/* XPM */
static char *_cf760c7cc3f4b7bd500a8e2e360409cOjKSSY7O49cMWtWj[] = {
/* columns rows colors chars-per-pixel */
"64 64 210 2 ",
"   c #010103",
".  c #05050B",
"X  c #07080E",
"o  c #090A0E",
"O  c #100E0F",
"+  c #070710",
"@  c #070910",
"#  c #0B0C14",
"$  c #0D0D1B",
"%  c #100F15",
"&  c #0D1014",
"*  c #0E111D",
"=  c #12151A",
"-  c #12141D",
";  c #0F0F20",
":  c #0F1221",
">  c #111424",
",  c #161925",
"<  c #191B24",
"1  c #14152B",
"2  c #141A2B",
"3  c #1A1D2B",
"4  c #171731",
"5  c #161C32",
"6  c #191D34",
"7  c #161F39",
"8  c #191E39",
"9  c #1D212C",
"0  c #172136",
"q  c #1C2234",
"w  c #162039",
"e  c #1B233B",
"r  c #1E283F",
"t  c #21232C",
"y  c #212533",
"u  c #252A34",
"i  c #2C2A33",
"p  c #21263A",
"a  c #242A3D",
"s  c #292C3C",
"d  c #2D313C",
"f  c #33333F",
"g  c #1B2541",
"h  c #1D2A43",
"j  c #1F2D48",
"k  c #1E314F",
"l  c #242B43",
"z  c #292D44",
"x  c #252E49",
"c  c #292F4A",
"v  c #263045",
"b  c #2A3145",
"n  c #25334B",
"m  c #2A334C",
"M  c #2E384D",
"N  c #313445",
"B  c #353847",
"V  c #3A3B46",
"C  c #31364D",
"Z  c #333A4D",
"A  c #3A3C4D",
"S  c #243553",
"D  c #2C3551",
"F  c #2D3A52",
"G  c #24365C",
"H  c #283959",
"J  c #2C3B5A",
"K  c #313753",
"L  c #323D54",
"P  c #3A3E52",
"I  c #333D5A",
"U  c #383F5A",
"Y  c #293D63",
"T  c #453F46",
"R  c #2F405E",
"E  c #354057",
"W  c #3B4255",
"Q  c #36415A",
"!  c #3B445C",
"~  c #3F495D",
"^  c #2D4264",
"/  c #2C436B",
"(  c #354363",
")  c #3A4463",
"_  c #374965",
"`  c #3D4964",
"'  c #32456B",
"]  c #3A4668",
"[  c #3E4B6A",
"{  c #2E497A",
"}  c #334A73",
"|  c #3D4C74",
" . c #354D7D",
".. c #44424E",
"X. c #48444D",
"o. c #434553",
"O. c #494651",
"+. c #4D4A56",
"@. c #41465B",
"#. c #444A5D",
"$. c #4B4B5B",
"%. c #534C55",
"&. c #524E5C",
"*. c #4E505F",
"=. c #565057",
"-. c #55515B",
";. c #5C555C",
":. c #65595E",
">. c #434C63",
",. c #4A4E63",
"<. c #414769",
"1. c #434E6B",
"2. c #445166",
"3. c #4B5166",
"4. c #44516D",
"5. c #4C546B",
"6. c #535464",
"7. c #5B5661",
"8. c #51556A",
"9. c #595669",
"0. c #55596D",
"q. c #5B5C6B",
"w. c #455372",
"e. c #495675",
"r. c #475977",
"t. c #4B5976",
"y. c #46567B",
"u. c #4B5B79",
"i. c #545C74",
"p. c #5A5E72",
"a. c #565A78",
"s. c #515E7B",
"d. c #6A5F64",
"f. c #605A69",
"g. c #53627D",
"h. c #5B6378",
"j. c #5B647D",
"k. c #6D6165",
"l. c #74646A",
"z. c #7C6B6A",
"x. c #626374",
"c. c #696777",
"v. c #6B6B7D",
"b. c #72707E",
"n. c #816F6E",
"m. c #89736F",
"M. c #334F83",
"N. c #365186",
"B. c #36538B",
"V. c #4A5580",
"C. c #565D81",
"Z. c #566582",
"A. c #5A6582",
"S. c #5B6985",
"D. c #59648C",
"F. c #5D6C89",
"G. c #5E718C",
"H. c #656684",
"J. c #626C85",
"K. c #6B6C87",
"L. c #616E8A",
"P. c #64738E",
"I. c #6A758D",
"U. c #737283",
"Y. c #70718F",
"T. c #7B7A8B",
"R. c #6A6D91",
"E. c #667591",
"W. c #6A7692",
"Q. c #6B7A95",
"!. c #6D7A95",
"~. c #687499",
"^. c #6E7D98",
"/. c #727C96",
"(. c #757A98",
"). c #717D99",
"_. c #727E99",
"`. c #807C8A",
"'. c #817F92",
"]. c #7E829B",
"[. c #7A87B8",
"{. c #84808E",
"}. c #848191",
"|. c #898694",
" X c #8A8A9B",
".X c #928D9B",
"XX c #99939F",
"oX c #A9898B",
"OX c #8E8EAB",
"+X c #928FA2",
"@X c #9A94A2",
"#X c #9A96A9",
"$X c #878DB5",
"%X c #8D90B0",
"&X c #9497B7",
"*X c #A29BA7",
"=X c #A69DAB",
"-X c #B4ACBA",
";X c #BAB1BD",
":X c #999DC7",
">X c #A7A5C2",
",X c #B5B3D1",
"<X c #B8BCEC",
"1X c #C1B7C5",
"2X c #C6C2D9",
"3X c #D3C6D8",
"4X c #C5C2E4",
"5X c #CBC8E9",
"6X c #E6DAF0",
"7X c #F3E6FC",
/* pixels */
"O # # # O # # & & & & & & # # # # # # # # # # # # # # # # # # # # # # # # # # # # # & & & % # # # # # # # # # # # # # # # # # o ",
"- a a a a z ! /.).).).^.L.e.! l l l l l l l l l a a a a l l l p y q q q q a 8.W.).).).W.g.1.K l l l a a a a a a l a a a a a a t ",
"> a l l l m ` ^.Q.Q.Q.Q.F.w.Q l l l l l x b m m n n x z z a p 3 y u > 9 c.o.q ~ S.W.Q.E.g.1.D l l l l x m m m m n c c x l l l y ",
"- a l l Q /.P.t.u.u.u.u.w.( F l l l l l t.W.Q.!.Q.!.g.3.z , * # P >.3 C -X(.a 3.L ! t.e.[ I m l l l l Q A.Q.!.!.Q.E.s.<.z a l q ",
"- l l z ! /.P.t.u.u.u.u.w.) K l l a m D u.E.E.j.>.B y < # . . @ 3 3 @ * f u p Y.W e 4.e.[ I m l l x m ` S.Q.Q.Q.Q.P.u.` x a l e ",
"- l l l ! /.P.u.u.u.u.u.w.) K l l l 5.W.g.L 9 - > 2 q e e q l C C v *     * > 3 = - C Q U I m l l U j.P.g.u.u.u.u.e.) I l l l e ",
"< L L L <.E.F.e.e.u.u.u.w.( L l l l 5.5.3 > p L -.7.#.#.>.~ Q ! L e @ X 3 @.) l @ . : , # * 6 a l E J.P.g.t.t.t.e.4.Q L l x C b ",
"u !.Q.W.S.) ) ) [ u.u.u.w.) L l a p N 3 m #.>.6.n.m.k.3.>.! z , @ : z Q 7.d.@.5 s #X6X4X~.X . # 3 U J.P.g.t.u.e.` I x l l I I.p.",
"y Q.E.E.Z.( Q U ) w.w.e.[ I c 6 , * * 1 m Q ~ *.k.l.f.#.M , @ , b ! >.,.$.&.b > H.>X2XOXa j.R.5 @ a i.A.t.e.e.1.Q F l v F [ E.i.",
"3 s.u.u.e.( I x D ) ) ) D e 2 2 q p q > > q M ! $.$.P e # * a E >.>.>.>.$.$.y y e.[ M a &X7X4X| : # q m Q ( ) I n x x U P.P.u.>.",
"3 t.u.u.w.( I l m U U K q 2 z W >.>.>.W a > : l L m 2 # q L >.>.>.>.` ,.;.:.i a 1.5 y OX7X7X,X) z u * b 4.w.[ ( v l x U W.P.u.! ",
"9 u.u.u.w.( L l l x x 2 > M ~ >.>.,.,.,.>.C $ $ 6 > > z ! 3.3.q.f.,.! #.;.k.T s >.e T.%X&X%X5.h.>X~.> 9 P.L.u.[ m l z Q W.P.u.! ",
"9 u.u.u.e.( I l l l 6 @ a Q z p z ! >.>.>.#.b > # > M >.3.,.3.z.z.d.@.Q ! -.&.s y !  X[ ( p 0.5X6X[.g . 5.S.u.` m a l L A.Z.u.` ",
"9 u.u.u.e.( I l l 6 @ : m e A p.p 6 v Q $.-.+.b : a ! ,.,.>.#.d.z.:.O.L F L ! b # W A.R 0 q :X,X<XD.*   m e.[ Q x l l m ` 1.t.! ",
"3 w.w.w.1.I D l q # # > $ X }.*X,.a q l +.=.=...6 z ! >.~ ! ! #.%.%.+.U F F L F , a s.( @ C.$X' x @ : l 2 w.] I x a l c L Q 4.Q ",
"3 ] ] ) U x x p - X > A $.* ! M $.-X`.< V %.%.o.q 2 M ! ! ! Q Q W W W U F L F J v > 6 L . S.y.S : W 2X5X, w.] I x a l x x m ) C ",
", I I I D a a 3 @ : N |.{.W .X0.@.T.v., 2 W o.W v > e L Q Q Q Q Q Q Q Q L L L F F m q @   1.y.e 5 ).]. X# ) I D x l l l l x F z ",
"- x x x l l p # * 5 N 6.y B }.#.y A a X $ n L Q L 6 $ e L Q L F L L L L F I L n n S J r @ 2 Q > r ' p % o L m x l l z x l l x p ",
"9 ,.2.1.` I 3 . , 2 q.U.- s XX0.W U.N . : n F E E m 2 $ q m F F M W W F F F m h 0 5 r n h q 2 # $ , @   . q x l l z l m >.1.1.P ",
"u P.P.E.F.` @ $ e 2 q.T.$.3 $.P A v.L @ 5 n m L L F m q $ > h n C O.+.E n n h * @ + # q n ( a.! h 0 * .   o q l z z l U P.W.W.p.",
"u G.L.L.Z.a . 0 v 2 9 `.#XA 3 x.P y - X > 1 5 r x M L L v 1 * 5 l B A F n j : @ N 6.q.W e I K.D.} / 5 a K.. # q z M >.e.J.L.F.5.",
"9 u.u.u.1.# > n F r 1 x.T.8.W *Xx.3 3 A P y @ # 6 l m F L L e $ > q j n n q X q 0.'.1X-X5 x 4.H.H.| 1 Y.6X$.. # e Q J.L.s.u.u.>.",
"9 r.t.t.M . r F F n q > b L > s 3 s |.*XT.v.3.y $ 0 n v n F L x $ # > e j 2 @ 2 m 5.T.+X# 0 5.oXoX0.2 <.4XV.:Xs > E I.P.u.u.t.@.",
"9 r.t.4., : F L L F n e 2 , # . - q.@X|.0.F ! 8.a > h C ....Z F m > @ $ 5 $ . . @ 2 U 0.s , ! `.oXc.6 : &X/.4XH.# C E.E.u.u.t.` ",
"9 u.u.E # e F L L M n n j j 5 X 3 #.0.#.b e x >.o.$ q O.%.%...m F F q $ # @ . > l 3.T.,X1Xp x 6.l.f.x c 3X~.J V., z E.E.u.u.u.` ",
"9 u.e.p # n L L A M v j j e # < o.7.7.+.V f s C A # 3 X.%.%.O.v n F F a * # X * a L ,.U.}.9 0 L &.0.] l #.C.H.D.y 3 L.E.u.u.u.` ",
"9 u.1., : n U O.X.V b h e $ $ W }.*X=X}.h.p.8.@.y . > B O...C l n v m F r ; . . $ 3 L p.U.t 1 x F ( ' H # ).5X$X8., 2.g.u.u.u.` ",
"9 u.E # 5 m Q O.X.V z e 2 . 2 F v..X|.p.F F ! 3.A # $ e b z 0 0 0 6 r v n 5 @ X > m p.|.;XA : g h S ^ ^ 5 C :X5X=Xt M 1.t.u.t.! ",
"3 1.v @ r F Q W A m r 5 >   2 5 a d s q q h n ! W * @ 1 6 1 @ X @ > : > h 0 #   $ y s A 5.> ; 8 g j J / Y q p H.0.# q I 1.1.1.U ",
"< Q q # l L Q F n j 0 1 ;   @ s $.8.W e $ X 2 U b . . @ @ X # o.#.v.x.= @ > $ .   . # M @XA ; 4 8 g S ' } Y w $ o . 2 m ! ` ) C ",
", m , # x L Q F v j 8 > $   s T.@X.Xv.5.5.C # @ X     . . . A =XU.#.5.- y ,.3 .   # r 0.-XA > 2 6 g n ^ } } M./ 5 . > x K K K l ",
"- l * @ z L Q F h 6 2 > $   > m 5.p.Q n F ! C X           @ P 0.s $ A q.! .X#.+ . X q 3.c., > 2 5 g ! 8.|  .B.B.G $ # l l l l y ",
"- l > X r L E F a q 3 > $   * 2 p p e r l n #.-   .       b U.0.> V v.|.P C a $ $ .   X @ ; 1 2 5 g @.9.y. .M.B.{ 2 # l x z l y ",
"- l 3 . , F E F z s u 3 > .   . = 3 3 2 , e s X   .       L h.o.9 v.v.Z e o...$ 5 * . X $ 1 1 2 4 e m U ' }  .N.M.7 # l x x l y ",
"= l e # @ l L F b d s y > #   9 $.5.! b 2 # .     . . . . 3 U a 6 C b q 2 U.b.> e q @ @ ; > 1 4 4 8 g g H / { N.M.w = L x z x y ",
"- l a q # > m L m s s y 2 > . q 8.~ F m v $   . X . X X + X > b W e C ! 2 A N $ r v # @ $ # ; 2 4 8 g g S / M.B.{ 1 q <.c z x y ",
"- l z l b # > m F v h 0 4 2 $ X , 2 > > *   @ # # # # # # @ X p Q e C Q 1 . . $ h m , 1 m x 2 $ 1 8 e g k } N.B.G # M ` x z l y ",
"- c m m ) 0.# > x n l 0 4 2 2 $ .       . # # $ $ $ $ $ $ # @ # > @ * , .     > l F q 2 L U F 6 # > 6 g H }  .Y * - L I x x m y ",
"9 w.e.w.t.g.` - * h n x g e 6 4 1 ; $ $ $ $ $ $ ; $ $ $ $ $ # @ .       . + $ 5 v F z > F U L v > # e n ^ ^ Y 2 @ b F m x M 5.W ",
"u Q.!.^.F.( ) F 3 - 2 0 5 8 e e r 0 8 6 2 1 > > > ; $ $ $ $ $ $ # # # $ $ > 5 l F Q b * h F L F r $ 5 S S S 2 # p F x x m ! E.i.",
"y F.S.S.s.( I F F b , # @ # : 5 h x n n n l e 5 5 2 2 > : * : > > > > 1 5 r n F L ! a $ e v F D n > : 5 > : - z F m l F 5.s.S.5.",
"9 t.t.u.w.( F l m Q L a , @ . . # * 2 q l v l g e e e 0 6 5 q 0 e e g h h n n F L L 2 $ 0 g h g 6 # . . # 9 M I x l l Q !.E.u.! ",
"9 t.t.u.w.( F l x M M M x e a s < .   X # * > 2 5 0 e g g g g h h h h h h h h l n l - # > > : $ + . & u ! e.w.) m l l Q !.E.u.! ",
"9 u.u.u.e.( F l l l l l v m 4.P.#.o     . X . . . X @ @ # # $ $ * * > > 1 1 > > > : X . . . o = u o.h.P.Q.P.s.1.m l l E P.P.u.! ",
"9 u.u.t.w.( I l l l l x U t.g.g.b X y 2 5 0 #   .                         .   X @ # * , b W ,.t.g.A.S.S.S.g.w.) m l l M e.u.t.! ",
"9 e.e.e.1.( K l l l b M 4.!.S.2.3 y c.W l j , $ 6 5 X                   + # X # p z m Q j.P.g.u.u.u.u.u.t.w.) I x l l m I _ w.! ",
"3 [ [ [ ) D m l l x Q i.g.A.g.` & 3 W 9 . z ! e 2 q +                 @ $ 2 2 # 3 m 2.g.A.Z.u.u.u.u.u.u.u.w.) I x l l x m F [ L ",
", ) Q ( L l l l l x >.^.F.t.t.Q o + P 0.- > q e a , .               . $ 1 0 8 > - M j.E.g.u.u.u.u.u.u.u.t.w.) I x a l l x m I C ",
"> m D D m l l l l z >.^.F.t.t.L X $ W 8.C W 3 z #.a X         . X X X $ 4 e e 2 $ z j.E.g.t.u.u.u.u.u.e.w.) F m x a l l x x m a ",
"- m m m m m z l l z ` P.S.t.w.M X : 3 p 0.v.W e 3 $           X X X $ $ $ 6 e 5 # y i.L.s.e.e.t.e.e.e.w.) I x l l l l x M M m a ",
"t j.g.g.s.` U l l x M ` ` [ ` z @ 5 , $ N @.a #             . . X s c.q.# : 1 6 # , L ) ` [ [ [ [ [ [ ) F c x l l l l L s.g.g.>.",
"u !.Q.!.L.w.>.z l l l l D ! I a # e h 5 1 * $ @             X X * P |.v.z 6.: 1 # * p x I ) ) ) ) ) ) I x l l z l x m ! P.Q.Q.i.",
"9 Z.g.g.u.` Q x l l l l x m m q $ e h g 5 $ $ @       .   . + # # > a 2 3.|.q $ # # p x m m m m m m m m x l l z l U s.Z.Z.Z.Z.,.",
"9 u.r.t.w.( I l l l l l l z z q # 5 h j g > $ @       . . . @ # X X # . , A a $ X & p z z z l l l l l l l l l z l Q P.P.u.u.t.! ",
"9 u.u.u.t.w.[ I D l l l l z z p $ > h j h 1 $ #       . . . # # @ X : , X z v.y . - a l l l l l l l l l l l l l l ! E.E.u.u.u.! ",
"9 u.u.u.u.u.w.) L l l l l z v x , $ 0 h 0 1 > # .     X . X $ $ # @ . $ 6 M $.*   , a l l x z m m m m m m m c x l ! E.E.u.u.u.` ",
"9 u.u.u.u.u.w.) I l l l l x >.J.3.< , e 5 6 2 #       X X # $ $ $ $ @ X $ # $   X q l l l L i.J.J.J.J.L.L.A.5.! x ! E.E.u.u.u.! ",
"9 u.u.u.u.u.w.) I l l l x v 5.^.P.W = 1 6 2 ; +       X X $ $ $ $ $ $ $ $ @     - p l l v Q A.^.Q.Q.!.!.Q.P.s.>.m Q P.P.u.u.u.! ",
"9 u.u.u.u.u.w.( I l l z ` P.S.s.u.4.s # # # @ X       . @ $ $ $ $ $ $ $ $ .   # e l l L i.J.g.g.g.g.g.g.s.t.[ I v M ` 4.u.u.u.@.",
"9 u.r.t.u.t.w.) L l l x 1.).F.u.u.u.w.E ,             . @ # @ @ $ $ $ # . . 3 m m l l L A.P.g.u.u.u.u.u.u.w.] I c m Q ` e.u.t.! ",
"< ) ) ) ] ) I x x l l x ,.).L.u.u.u.u.u.w.L #                   . + + # q M m l l l l L A.P.g.u.u.u.u.u.u.w.] I c l x D ) ) ) K ",
"< ( ( ) ( ) L l l l l x 1./.F.t.t.t.t.t.u.u.) z * .     . . o # - q m U ! Q v l l l l L A.P.g.u.u.u.u.u.u.w.) I x l l m ! ) ( C ",
"> x l l l l l l z z l l l x J ) ) ) ( ( ) ) D x l a e q e e p l l x x x x l l l l l l l x D I ) ) ] ] ] ) I c x l l l x x x l y ",
"- l a a a a a a s a a a a l m ! ! ! ! ) ) ! m l z x l a a a a a a a a l a a a a a a s a l m U ) ) ) ) ) ) U c l a a a a a a l y "
};
