/* XPM */
static char *result[] = {
/* columns rows colors chars-per-pixel */
"64 64 241 2 ",
"   c #020102",
".  c #0B0101",
"X  c #05050B",
"o  c #0B060C",
"O  c #09090A",
"+  c #0A0A0C",
"@  c #130101",
"#  c #1B0001",
"$  c #14090C",
"%  c #13120C",
"&  c #070811",
"*  c #0B0B13",
"=  c #0D0D1B",
"-  c #160D15",
";  c #0D1014",
":  c #0F111D",
">  c #161515",
",  c #14151D",
"<  c #230101",
"1  c #2B0000",
"2  c #2D0308",
"3  c #330101",
"4  c #3B0001",
"5  c #38050A",
"6  c #2C1613",
"7  c #28251A",
"8  c #362B1B",
"9  c #0F0F20",
"0  c #0F1322",
"q  c #121324",
"w  c #161925",
"e  c #1A1B25",
"r  c #14162B",
"t  c #141A2B",
"y  c #1B1D2A",
"u  c #171731",
"i  c #161B32",
"p  c #191D34",
"a  c #191F38",
"s  c #291D30",
"d  c #1D222C",
"f  c #1C2234",
"g  c #1B263B",
"h  c #1B233C",
"j  c #22232D",
"k  c #342A2D",
"l  c #212434",
"z  c #252934",
"x  c #252539",
"c  c #242A3E",
"v  c #2B2B3C",
"b  c #38273A",
"n  c #3B263C",
"m  c #430101",
"M  c #4C0000",
"N  c #49080D",
"B  c #540102",
"V  c #5C0102",
"C  c #57080C",
"Z  c #630001",
"A  c #6C0103",
"S  c #740102",
"D  c #7B0102",
"F  c #77060B",
"G  c #7F1019",
"H  c #452B1B",
"J  c #6D341E",
"K  c #5C1E2E",
"L  c #6B1D2D",
"P  c #741C29",
"I  c #7C1C2B",
"U  c #5A202F",
"Y  c #443723",
"T  c #492437",
"R  c #5B2132",
"E  c #552539",
"W  c #6C2E32",
"Q  c #674428",
"!  c #7A4629",
"~  c #1C2540",
"^  c #1E2B42",
"/  c #252B43",
"(  c #292C44",
")  c #2A2D47",
"_  c #252E49",
"`  c #372D44",
"'  c #26324A",
"]  c #293348",
"[  c #2A344D",
"{  c #363749",
"}  c #32364D",
"|  c #2C3552",
" . c #2E3B53",
".. c #2D3858",
"X. c #363A55",
"o. c #323C55",
"O. c #333C5A",
"+. c #4C3750",
"@. c #5A3C57",
"#. c #6A3349",
"$. c #6F3348",
"%. c #763C54",
"&. c #364057",
"*. c #3D4354",
"=. c #36415C",
"-. c #3B445D",
";. c #364362",
":. c #3A4463",
">. c #3D4964",
",. c #3A4768",
"<. c #3D4B6A",
"1. c #44495C",
"2. c #454B5D",
"3. c #52445F",
"4. c #6E465D",
"5. c #75455B",
"6. c #434C63",
"7. c #474A68",
"8. c #424E6B",
"9. c #554B66",
"0. c #4C5465",
"q. c #43516C",
"w. c #4D556B",
"e. c #54566C",
"r. c #52596A",
"t. c #455372",
"y. c #4A5674",
"u. c #495977",
"i. c #4B5976",
"p. c #4B5B79",
"a. c #575C72",
"s. c #515E7B",
"d. c #634D68",
"f. c #74576F",
"g. c #5E6175",
"h. c #54627D",
"j. c #58637C",
"k. c #616477",
"l. c #646679",
"z. c #6F637D",
"x. c #66697B",
"c. c #6B6C7E",
"v. c #7B657C",
"b. c #820102",
"n. c #8C0102",
"m. c #880509",
"M. c #930102",
"N. c #9B0101",
"B. c #950509",
"V. c #8E121C",
"C. c #94151E",
"Z. c #A30101",
"A. c #AB0102",
"S. c #AB070A",
"D. c #B40101",
"F. c #BB0102",
"G. c #B8060B",
"H. c #B90E15",
"J. c #AC111A",
"K. c #B21018",
"L. c #913218",
"P. c #8D1622",
"I. c #871927",
"U. c #911621",
"Y. c #971A28",
"T. c #911F30",
"R. c #A21A27",
"E. c #BA1A25",
"W. c #93222F",
"Q. c #8C293B",
"!. c #972838",
"~. c #A8222E",
"^. c #BA212D",
"/. c #A82C3B",
"(. c #AA303D",
"). c #C40102",
"_. c #CC0102",
"`. c #C80A0E",
"'. c #D50202",
"]. c #DC0203",
"[. c #D6080C",
"{. c #C40C12",
"}. c #C90B11",
"|. c #DC0D13",
" X c #CA121A",
".X c #D61219",
"XX c #E40203",
"oX c #EB0203",
"OX c #EB0609",
"+X c #E4090C",
"@X c #E8080B",
"#X c #F30304",
"$X c #F50506",
"%X c #E60D11",
"&X c #E41318",
"*X c #D01A23",
"=X c #C8232C",
"-X c #894629",
";X c #914A2A",
":X c #AE512C",
">X c #D25A2F",
",X c #D76633",
"<X c #E36734",
"1X c #E57637",
"2X c #883347",
"3X c #953445",
"4X c #AE3845",
"5X c #C33542",
"6X c #904557",
"7X c #AE4352",
"8X c #8D5569",
"9X c #86657B",
"0X c #D1833D",
"qX c #E6873E",
"wX c #EF9D5C",
"eX c #566582",
"rX c #5B6885",
"tX c #5D6B89",
"yX c #5E718C",
"uX c #636D86",
"iX c #616E8B",
"pX c #766E85",
"aX c #6F7081",
"sX c #64738E",
"dX c #767386",
"fX c #667491",
"gX c #6A7692",
"hX c #6C7B95",
"jX c #6C7C97",
"kX c #717D97",
"lX c #717E98",
"zX c #837D8C",
"xX c #948B99",
"cX c #A59AA6",
"vX c #C5B4BD",
"bX c #FBE69B",
"nX c #FDECAC",
"mX c #CAB9C1",
"MX c #DAC5CC",
"NX c #E5CFD4",
"BX c #FFF2C3",
/* pixels */
"% * * ; % ; ; ; ; ; ; ; ; ; ; % & * * + * * * * * * - + * % * * ; * * % * ; - 6 C B._.'.'.A.Z.'.XXF.m.m.N N 6 - * - * % * * ; + ",
"q x c c c ( -.kXkXkXlXjXyXw.=./ c / ( / ( ( c x v v n T K K U T b v v c / ` 8X5X$X_.S 3 #     @ m b.).].oXC.P.P.P U n ( c c c j ",
"q c / / / ] >.jXjXjXjXjXtXy.=._ / / / / / ] ] +.E I P.Y.K.K.J.P.P.I T b ` E |.].S .   + v { k < .     @ b.A.F.].XX{.P.T v U ( l ",
", c c ( &.hXsXi.i.i.s.i.q.;. .^ / / / / y.gXdX8X&X@X_.Z.D D b.A.'.XX[.I 6X&X).3   ; { 0.r.r.e.0.2.z $       . @ m n.oX.XR V.U K ",
", ( c / -.jXiXi.p.p.p.p.t.;. ./ / c ) | s.dX8X&XF.1 @         . @ 3 N.oX&XF.1 O v 0.r.r.r.r.r.0.1.{ 1.{ v j > O     m '.@XV.C.V.",
", ( / / -.kXfXp.p.p.p.p.<.,.X./ c ( y.gXf.2X*XXX1   # e s y > $     . A S.1 $ { r.r.r.r.r.0.v > X > + e { 1.0.2.1.z X < XXI.P.V.",
", X.X.o.>.fXtXy.u.p.p.p.t.:. ./ c c a.9X=XoXZ.m   , 2.r.0.0.0.2.{ e   . @ $ { r.r.r.0.1.v ;   + v { , O   % *.r.0.r.d   A.U.W R ",
"z kXgXgXtX,.,.:.8.p.p.p.q.:.| / ( ( 5.*XoXV .   j 0.r.0.0.2.2.0.0.r.1.;   , 0.r.2.{ e +   ; z 2.2.;         + , e e O . D.W.v.a.",
"x fXfXiXeX:.;.O.:.t.t.y.8.O.| / / T .XXXm   + { r.0.1.j * O X O ; z { q   f *.v ;   ; d { 6.0.1.$   m 1 # # # < < @ < D #X$.pXa.",
"p u.eXeXt.:..._ | :.:.:..._ / ( n L #Xm   - 6.r.0.{ X X +               X * & * e ` 1.0.-.{ ,     Z #XXXOX$XOX@X'.).XX@X(.v.s.6.",
"j i.u.u.t.;..._ ) X.O.X.| / +.$.W. X_.. X *.0.} , O , { y   X X *.dXzXw     X X                 b.#XE.Q.!.3XQ.Q.I.I.I.$.v.sXi.1.",
"j s.t.eXt.;..._ / _ _ _ ` R ~.#X].N.M     O &   X * p t X = p ' vXNXNXzXr X     X X X X     3 D.#X4X9XhXhXiXeX7.` b v &.jXfXp.-.",
"y p.p.p.t.:...) / / _ T I.+XXXS #                         = u ~ o.l.l.X.^ a =   X t a a =   @ M.$X7Xz.fXfXrXu.,.] c / O.rXj.i.>.",
"d p.p.p.y.:...) / ( ` J.$XZ.< X y ( -.l.c.g.c *     y X.:     0 ~ ~ ~ ~ ~ ~ a *   & h ~ h &   @ N.#X4Xd.s.y.<.O._ / / [ >.<.i.-.",
"y t.t.t.8.X.R ( / T T.#XS . : 6.c.c.zXNXNXNXmXe.w   * cXxXt     r ~ ~ ~ ~ ~ ~ a X   r ~ ~ u     . b.oX3Xe.y.,.=.) c / ) &.=.t.&.",
"y ,.,.:.O.R Y.K ( R #Xn.  w k.c.c.c.aXcXMXNXvXaXg.r   f -.~ =   X a ~ ~ ~ ~ ~ ~ =   = ~ ~ ~ & X   . Z.%X5.y.,.=./ / / / ' [ -. .",
"w X...o.| U P.U T {._.. * g.c.c.c.c.c.c.c.aXaXc.c.6.    h ~ a &   9 ~ ~ ~ ~ ~ ~ u   & a ~ ~ 0   X   < '.E.@.:.| ( / / / / _  ./ ",
"q ) _ _ _ R P.R P oXM   w.aXc.c.c.c.c.c.c.aXc.c.c.g.O   r ~ h r   X a ~ ~ ~ ~ ~ a   X a ~ ~ u   = X   Z @X$.[ ( / / / / / _ ^ c ",
"y 8.6.q.<.W Y.R C.F.. p x.aXc.c.aXc.c.c.c.c.c.aXc.x.0   r ~ ~ h X   u ~ ~ ~ ~ ~ ~ X X u ~ ~ p   * r   # XXI.n / / c / ' 6.8.q.X.",
"z sXgXfXtX%.!.U K.b.  2.c.c.c.c.c.c.c.c.c.c.c.c.c.x.=   r ~ ~ h *   q ~ ~ ~ ~ ~ h X   u ~ ~ a   & h & . N.H.T / / / / &.sXgXgXa.",
"z yXtXsXeX7.#.L ].V & k.c.c.c.c.c.c.c.c.c.c.c.c.c.x.X   i ~ ~ ~ 9   q ~ ~ ~ ~ ~ ~ &   u ~ ~ u   & h 0   V {.L ( /  .6.y.uXsXtXw.",
"d s.p.p.u.:.+.I '.< q x.c.c.c.c.c.c.aXc.c.c.c.aXaXe.  & h ~ ~ ~ &   r ~ ~ ~ ~ ~ a X X p ~ ~ r   = ~ r   M `.L ( / &.uXuXp.p.i.6.",
"d u.i.i.t.<.+.T.).@ x c.c.c.c.c.c.c.c.c.c.c.c.c.c.6.  = ~ a f 0     r ~ ~ ~ ~ ~ r   X a h h X   9 ~ r   B `.L / / -.gXsXp.p.i.2.",
"d u.i.i.i.u.%.W.F.. ] c.c.c.c.c.c.c.c.c.c.x.c.c.x._   X O X         X r ~ ~ ~ r X   q ~ h &     r ~ r   S H.R ( / -.gXfXp.i.i.>.",
"d u.u.u.p.p.%.~.D.. / aXc.c.x.c.c.c.aXc.[ t e.aXg.=   7 O     X ^ r     X           O 0 X     * h h & @ ).~.@.o.] :.fXfXp.p.p.-.",
"d u.u.u.p.p.%.Y.D.. a c.w.g.l.c.c.c.c.O.    t x.w.  + Q Q Q 7 X ' | g *   + % X *           X o 9 *   4 OX7Xe.7.[ &.sXsXs.p.i.6.",
"d p.p.p.i.i.%.!.).@ w k.& w g.c.aXc.c.t     q l.[   7 ! ! ! H   t &. .^ + Y Q % & ^ t *   % %         @ ).(.d.O.) o.i.h.s.p.p.>.",
"d p.u.p.p.p.9.Q._.< = e.    1.c.c.c.k.&     t x.g   Y ;X;X-XJ   *  .&.^ + Y ! >   g &.'   % Q % X = X   D .X$.O./ [ :.8.i.i.i.-.",
"d <.<.t.t.q.,.I [.m & 6.    g c.c.c.a.&     } c.]   + :X:X:X-X% X | &./ + H -X8   q &.'   % ;X7 , ' g   m +X2Xo._ / | O.8.8.8.X.",
"d ;.=.;.:.;.o.R {.S X &.X   q x.c.c.c.x   = k.x.2.    :X>X>X>XH   ^  .' O H :X-X  O '  .O + 8   X _ [   < $XQ.X._ / / ] -.:.:.X.",
", ..| | ....] T C.D.. &.^   q l.c.c.c.c.6.a.c.g.r     :X<X<X<X-X  i  .' X 8 <X>XO   g [ ;     X X p ..& @ '.T.{ _ ^ / / | | X.( ",
", / _ / / / / b I.].1 _ l.' 6.c.c.c.c.c.x.c.r.q   O Q 1XnXBXbX>X  :  .[ o < <X1XY   r  .:     h X 0  .:   D.C.T / / / / ( / / l ",
", / / / / / | d.!.F.# r x.x.x.c.c.c.c.c.g.] O     7 0X1XbXBXBXqX% X  . .* % <XqX0X  & | 0   5 +X5 X ' t   S H.K / / ^ / _ / / f ",
", / g c c ) :.pX7X`.# X l  .k.c.c.c.x.X.:           8 -X,XwXwX<Xk   g  .* + ,X<X!     ' f   B [.A X / g   M [.P / / / / / / / z ",
", c c / { w.a.l.8X+XD     * o.c.c.w.t       X r O +     + 7 J -Xl   p ..=   8 6 $     f g   3 XXN.  t g   1 OXQ.w.q.-.&._ / / z ",
", / c / -.kXsXy.d./.#XD .   f x.k.r         0 ' + N L.6         .   r  .=     . b.B   t g   # #XF.. 0 c   @ $X7XjXsXh.6.] / / f ",
", / / / -.lXiXp.s.d./.$X].1 q g.g.= X 4 F . * | & m @XG X i q . m   *  .0   & # oXD.X = g   . #X_.# = g   . @X4XrXeXy.:.] c / l ",
"w ] ' [ :.hXiXp.p.i.d.2X%XZ * a.g.* < #X$Xm X ' = < XXG.o h l . D $ & | t   = . oX].# X ^     oX[.1 & ~   . oX4Xy.q.:.O._ ( ] z ",
"d y.y.y.y.s.p.8.t.p.eX5.E.S   6.g.= @ ].*XA   / q . '.].o t l   F 2 X / p   & . ].+X4 X h X   XX[.m X h X @ XX!.7.>...[ / [ w.*.",
"z jXjXjXtX;.:.;.<.p.y.4.^.n.  *.l.r X D.%Xn.  f u   F.+X# t (   F B   / ^   X   )..XV   h X   _.{.Z   p X # XX3X6.o._ _ [ :.hXa.",
"j tXrXrXp.;.=...O.8.8.@.~.Z.  ( c.X.  < B m   f g   A.].@ w /   Z F   f ' X X   A. XA   ~ q   M.H.D   u X # XXQ.X.] / X.w.s.rXw.",
"d i.i.i.t.;.../ [ O.O.@.T.A.. c x.g.} q =     f g   M.n.  t )   m B.  r  .=     b.E.b.  h g   B oXM.  q & @ XXW.` / c -.gXfXp.-.",
"d p.i.i.t.;.../ / | ] +.P.F.@ f x.c.c.k.0.X   p _   V <   g ' X 1 S.. 0  .f     V [.n.X f [ X @ ).Z.  r q   Z..XE ( c O.jXfXp.-.",
"d p.p.i.t.;.../ / / / n P.F.@ f c.c.c.c.-.    _ '   2 . X  .' X < S.. =  .'     5 oXN.  f ..q   < M.. q g   4 XXI ( / X.sXyXp.2.",
"p p.p.y.t.,.../ / / / n W.).@ f c.c.c.c.f   * ..'   X   X | [ + @ S.# * | ..t   . XXN.  p o./     4 @ q  .X . '.P.n / [ i.p.p.-.",
"j y.y.t.<.;.../ / / ) { 3X+X1 = g.c.c.c.:   d o.[ X   X   /  .= . Z.< &  .&.'   . ].Z.  i o.X.s . 3 @ , o.p   Z.Y.T / ] &.,.u.-.",
"y <.<.<.;.| [ / / / -.a.6X.XZ   0.x.c.x.q   g .. .*   $   f ..t   B.3 X ' &.' X   ).Z.. t o. .( . 4 @ =  .~   Z.Y.U / ] [ ..>.&.",
"w :.;.:.../ / / / _ 6.lXf.E.N.  / c.c.x.d   t &.X.q   B   : o.p   S m X _ &.&.X   ).A.. q &.&.l   m @ *  .r   _.U.b / / / [ &.[ ",
"q [ | | [ / ( / / ( 6.lXz.3XXX3 : a.c.c.c   = | &.h   n.. o [ ^   V Z   ^ &.| X   D.D.. , o.o.q   Z . =  .& # XXI.v / / / ) [ ( ",
", [ [ [ [ ] ( ( / ( 6.fXrX4..XN.  / x.c.-.    '  .^ X D 3   ^ ]   2 D . g &.[ X   n.F.. ,  .o.* # D . :  .  4 ].I v / ) | [ ] c ",
"j j.j.h.s.:.&./ / / | :.>.3.Q.oX4   -.c.e.O   0 o.] X m F   w [ X   B.. t &./     V F.@ - X.[   B n.  , '   V `.L / / | h.h.h.6.",
"z hXhXhXiXy.2._ / / / / | O.#..XD.. o 0.c.y   X '  .X . F.. O | &   A.@ q  .r     5 F.@ $  .~   F.M.  : g   n.K.E / ] -.sXhXjXa.",
"j j.h.eXp.,.=./ / / / / / [ ` L #XN.. X ^ /     p  .=   _.4   ~ r   N.< =  .*   X # ).# o o.q @ XXn.  q t   D.U.T &.h.h.eXeXeX6.",
"d p.u.u.t.;.../ / / / / / / ( n I #X_.m         O [ r   N.N.  = ~   D M = [ X X q . F.2 @ | X 4 XXM.  0 =   _.P.b -.sXfXp.p.i.-.",
"d u.p.u.u.t.<.O. .c c / v c / / n R }.oXD < . #   r h   B ].#   i   V A o ~   * a   A.m @ s   Z `.N.  * X # XXI.( -.fXsXs.i.i.-.",
"d u.p.u.p.p.t.;.o./ / / / / ] ] ' ` E Y.].].F.F.1 X p   < XXZ   * o 3 m.X a   9 ^   b.Z @ -   b.K.Z.  X X 4 XXI / -.fXsXs.p.s.>.",
"p u.<.eXeXy.t.:.X./ ( / / / 6.rXtXuXuXz.8X4X3X%XZ.  * X   D.).    o @ Z.@ =   , [ X B b.. $   Z.4XA.    X Z .X$.] &.fXfXp.p.p.6.",
"u t.eXt.y.y.t.:.../ / / / ) w.jXhXhXhXjXhXdXf.3XoXV   X   S #XM     X Z.5 X   X h & < B.# @   _.4XD..   . N.^.#.] -.sXsXp.p.p.-.",
"f u.t.eXy.eXt.:.X._ / / :.sXrXh.eXp.s.s.p.eX8.@.K.].<     4 #X_.      D A     X   X . m.# X . '.4X_.#   @ ].!.+.' [ 6.q.p.p.p.1.",
"d u.t.eXt.t.t.;.../ / / 7.lXtXp.p.p.p.p.p.p.<.:.E XXZ..   . _.#XS     m S.    9       D 1   # XX3X[.3   1 OX2XX._ [ O.<.y.p.y.-.",
"t :.,.;.:.:.O._ / / / / 8.lXiXp.u.p.p.u.p.p.<.:.{ P #XZ   . n.E.XX1   @ ].m   F Z     A B   1 @X3X.XZ   3 %X2XO._ / _ | :.:.:.| ",
"y :.;.:.:.:.O._ / / / / 0.jXtXi.p.p.u.u.i.p.,.;.} T K.oXZ   V  X|.'.4 B XXZ.  n.XXB @ M.Z.  m |.3X^.A.. m |.2X| _ / / [ :.:.-.| ",
"q ) / / / ( _ ( ( / / / / _ ..:.:.,.:.:.:.:. ._ / / T K.oXD M.K.U [.S.m.H.XXM b.H.].F.].XX4 D  X#.2XoXZ.D. X+./ / / / / ) / ( a ",
", c c / c c v v v c c c c / | -.O.:.:.-.:.-.[ ^ / / / T C.K.C.I.n U C.P.C.{.S.S.C.P P.L [.G.H.R.@.+.2X!.!.L n / / / c c / / / s "
};
