/* XPM */
static char *_8738d0fba894949d4d48980923bd73cyME8CC6PqCH08diZ[] = {
/* columns rows colors chars-per-pixel */
"64 64 207 2 ",
"   c #020204",
".  c #04040C",
"X  c #07080D",
"o  c #100E0F",
"O  c #060712",
"+  c #070812",
"@  c #0B0B14",
"#  c #0B0B1C",
"$  c #100F15",
"%  c #0D1014",
"&  c #0E111C",
"*  c #15161E",
"=  c #14181D",
"-  c #0E0E23",
";  c #0E1024",
":  c #0F1329",
">  c #111225",
",  c #161924",
"<  c #191B24",
"1  c #12122B",
"2  c #15192C",
"3  c #1A1D2C",
"4  c #151533",
"5  c #151A35",
"6  c #191D34",
"7  c #171739",
"8  c #161C3B",
"9  c #181B3C",
"0  c #1D212C",
"q  c #1D2234",
"w  c #17213E",
"e  c #1C233B",
"r  c #21232C",
"t  c #212434",
"y  c #252933",
"u  c #21263C",
"i  c #252A3E",
"p  c #292A3D",
"a  c #191E41",
"s  c #172241",
"d  c #192444",
"f  c #1C2946",
"g  c #1A2549",
"h  c #1B2B4B",
"j  c #1E304E",
"k  c #1D2D52",
"l  c #1E3252",
"z  c #1F3358",
"x  c #202542",
"c  c #242B43",
"v  c #292D44",
"b  c #252D4A",
"n  c #292F4B",
"m  c #263145",
"M  c #2B3244",
"N  c #25314C",
"B  c #2B334C",
"V  c #2F384C",
"C  c #323545",
"Z  c #31364D",
"A  c #323B4D",
"S  c #383F4D",
"D  c #233554",
"F  c #2B3552",
"G  c #253856",
"H  c #2D3A54",
"J  c #233759",
"K  c #24395B",
"L  c #2B3C5B",
"P  c #313752",
"I  c #333B54",
"U  c #393F57",
"Y  c #333D5A",
"T  c #263B60",
"R  c #293E60",
"E  c #363F60",
"W  c #2F405F",
"Q  c #374057",
"!  c #3B4253",
"~  c #35415D",
"^  c #3B435D",
"/  c #2D4161",
"(  c #354362",
")  c #3A4563",
"_  c #3D4964",
"`  c #344668",
"'  c #3A4668",
"]  c #36486A",
"[  c #3D4A6A",
"{  c #394C71",
"}  c #40465F",
"|  c #424B5E",
" . c #434761",
".. c #424B65",
"X. c #494E64",
"o. c #424E6B",
"O. c #465165",
"+. c #4A5167",
"@. c #44516D",
"#. c #4B546C",
"$. c #4E586C",
"%. c #52566E",
"&. c #54586F",
"*. c #434D71",
"=. c #455373",
"-. c #4A5573",
";. c #475977",
":. c #4B5976",
">. c #4A5779",
",. c #475A78",
"<. c #4B5A79",
"1. c #4B5B79",
"2. c #4D5B7A",
"3. c #4E5D7A",
"4. c #535B74",
"5. c #595D73",
"6. c #525E7B",
"7. c #5A5F78",
"8. c #596177",
"9. c #54627D",
"0. c #5A647D",
"q. c #59687E",
"w. c #62667D",
"e. c #66697F",
"r. c #545E81",
"t. c #566482",
"y. c #5A6581",
"u. c #5D6984",
"i. c #5D6B89",
"p. c #5C708B",
"a. c #616781",
"s. c #636B84",
"d. c #6B6D84",
"f. c #626E8B",
"g. c #686F8C",
"h. c #6D7187",
"j. c #64738E",
"k. c #6B738C",
"l. c #707286",
"z. c #75768B",
"x. c #77798F",
"c. c #657491",
"v. c #6B7692",
"b. c #6B7A94",
"n. c #697896",
"m. c #6C7A95",
"M. c #6A7C96",
"N. c #717590",
"B. c #747B94",
"V. c #7A7D94",
"C. c #717D99",
"Z. c #747D98",
"A. c #7A7E9A",
"S. c #807C8E",
"D. c #817F92",
"F. c #7E829A",
"G. c #838296",
"H. c #82849B",
"J. c #888699",
"K. c #8D8A9C",
"L. c #938D9D",
"P. c #8489A3",
"I. c #8C8DA4",
"U. c #8A8FA8",
"Y. c #918EA0",
"T. c #8F91A6",
"R. c #8D92AC",
"E. c #9592A4",
"W. c #9C95A5",
"Q. c #9494AA",
"!. c #9997A9",
"~. c #9D9AAC",
"^. c #9398B1",
"/. c #9C9DB4",
"(. c #A198A7",
"). c #A39CAC",
"_. c #A99FAC",
"`. c #A09FB1",
"'. c #A6A1AF",
"]. c #A4A1B2",
"[. c #ABA5B4",
"{. c #AFA9B7",
"}. c #A5A5B9",
"|. c #AEAABA",
" X c #B3ACBB",
".X c #B4ACB9",
"XX c #B6B0BF",
"oX c #BAB2BE",
"OX c #AEADC1",
"+X c #BCB5C2",
"@X c #B9B5C5",
"#X c #BFB8C5",
"$X c #BDBBCB",
"%X c #C0B7C3",
"&X c #C2BAC6",
"*X c #C5BDC9",
"=X c #C8BFCB",
"-X c #C6C0CD",
";X c #CBC2CE",
":X c #CDC6D1",
">X c #CEC9D5",
",X c #D0C7D2",
"<X c #D3CBD5",
"1X c #D6CED9",
"2X c #D7D0D9",
"3X c #DAD3DC",
"4X c #DED7E0",
/* pixels */
"o @ @ @ o @ @ % % % % % % @ @ @ @ @ @ @ @ @ @ @ @ @ @ @ @ @ @ @ @ @ @ @ @ @ @ @ @ @ % % @ $ @ @ @ @ @ @ @ @ @ @ @ @ @ @ @ @ @ o ",
"* i i i i v ^ Z.C.C.C.M.f.-.^ v c c c c c c c c i i i i c c c i i i i c c V 0.C.C.C.C.v.9.o.P c c c i i i i i i c i i i i i i r ",
", i c v c B _ M.M.M.M.M.i.=.~ c c c c c b M B B N N b v v i c c c c c i m H q.M.M.M.M.c.9.o.F v v v v b B B B B B b b b c c c t ",
"* i c v ^ C.j.:.3.3.3.3.@.( H c c c v c -.v.b.m.b.m.0.4.V c c c c c c N 0.v.q.2.3.3.3.;.[ Y B c c c c ~ u.b.m.m.m.j.4...v i c q ",
"* c c v ^ C.j.:.<.2.2.<.=.( P c c i B F 3.c.b.b.b.m.9.-.V c c c c c c N q.v.t.2.2.2.2.;.[ Y n c c b B _ u.b.b.b.b.j.<._ b i c q ",
"* v c v ^ C.j.:.<.2.2.<.=.( P c c c $.v.y.3.3.3.3.6.o.) B b v c c c c N q.b.t.<.<.2.<.;.[ Y B c c U 0.j.9.3.3.3.3.;.) Y c c c q ",
"< I I I ..c.i.;.;.<.2.<.=.( I c c c -.C.u.2.2.2.:.=.) Y B b V H H H H ~ q.f.3.;.<.2.<.;.[ Y n c c Q s.j.9.:.:.:.;.@.~ I c b A M ",
"y m.b.v.u.) ) ) [ <.2.2.=.( P c c c -.M.u.2.2.2.o.) F b b c 0.v.v.m.m.v.=.) ' [ =.2.2.;.[ Y n c c Q s.j.9.:.<.;.[ Y b c c Y k.5.",
"y b.c.c.t.( ~ Y ) =.=.-.[ Y B c c c X.u.6.=.;.;._ ~ N c I Y y.j.c.c.v.c.=.) ~ ~ o.;.;.*.( I B c c I 4.y.:.;.;.o.~ H c N H [ c.4.",
"r 6.3.2.;.( L b F ) ) ) I b v v c c N N Y ) ) ) B c e q +.0.#.o.=.3.3.:.) Y b c F Y E E F c c c c v N F ~ ( ) Y N b b Y j.j.3. .",
"0 2.:.<.=.( Y c B Y Y Y V v V ^ ^ ~ ~ ~ [ o.Y M 3 > & & y C i v U @.=.) v u 6 6 6 6 q u c v I ^ ^ ~ ~ _ @.=.[ ( N c b U v.j.<.^ ",
"0 2.<.<.=.( I c c b b b b b o.v.v.v.j.0.O.A v V ^ 6.A.P.U.P.A.4.c M A V 7.R.}.}.}.^.F.s.&. .@.s.k.v.v.v.b.f.3.[ B i c ~ v.j.<.^ ",
"0 <.<.2.-.( Y v c v b b P ) 2.j.j.q.| M v 4.H.OX$X>X2X2X2X1X<X@X6.q e C.-X1X2X2X3X2X2X2X<X@XT.2.O.q.j.c.c.i.<._ B i c I y.t.<.) ",
"0 2.<.2.-.( Y v c v b b ..v.u.:.^ i , ( /.1X3X3X3X2X2X2X2X1X1X:X].e c |.1X2X2X2X2X3X3X3X3X4X4X$XX.i _ :.3.;.[ ~ b c c B _ o.:.^ ",
"3 =.=.=.o.Y F c c v I ..2.u.+.M i ^ F.$X3X3X2X2X2X1X1X1X<X<X<X:XXXH ^ &X<X1X1X1X2X2X2X3X3X3X3X3X$X0.m V o.=.] Y b i c n I ~ @.^ ",
"< ' ' ) Y b b c c b  .k.8.I q Y F.$X1X3X2X2X1X1X<X,X:X:X;X;X;X;XXXY @.*X,X,X,X<X<X<X1X1X2X3X3X3X3X>XP.F i ~ ) Y b i c b b B ) Z ",
", Y Y Y F i i c c b  .s.S 3 r.$X2X3X2X1X<X1X<X,X:X-X*X&X#X%X%X*X{.Y o.%X;X;X;X-X=X;X;X:X<X1X2X3X3X3X1X^.b < v F b c c v v b H v ",
"* b b b c c c v c c U S v k.>X3X3X2X<X:X;X:X,X:X*X+X.X].).~.[.oX].E o.+X;X-X&X+X+X%X%X*X;X<X1X2X2X3X3X<XR.F > q c c c b c c b u ",
"0 X.O.o._ Y H v v i t e P.>X3X3X2X1X:X;X*X*X*X%X{.!.H.H.V.B.V.~.E.) 2.+X*X%X.X!.].{. X+X*X:X<X<X<X1X3X3X<XU.e & q i c B ..o.o.U ",
"y j.j.c.i.=.) v i u , >.<X3X2X2X1X<X;X*X+X X[.!.H.N.g.s.a.9.y.G.H.( 7.oX%X.XK.B.H.K.!.]. X%X;X;X;X:X1X3X3X:Xf.> , i c U j.v.v.4.",
"y p.f.f.t.o.^ i t 3 2 P.1X2X2X1X<X,X;X%X{.E.F.k.y.2.=.=.o.o.2.x.V.( 2..X XE.s.a.a.s.g.N.H.~. X+X#X=X<X1X2X1XOX*.> i ..-.s.f.i.$.",
"0 <.3.3.;.) B , & @ 2 Q.1X1X<X:X;X;X=X+X!.g.6.=.] ( R L L L [ s.x.( @.[.[.x.@.[ ] ] ] [ <.u.A.~. X&X;X1X2X2X:XR.b i u.f.6.3.3. .",
"0 ;.:.:.=.~ q 2 2 X 2 Q.:X:X;X#X%X&X+X].s.[ ( L K J J l l l W 8.z.) ) ).).0./ K J J z J K ` ;.f.I.{.&X:X<X1X1X&X;.u u.j.3.<.:.} ",
"0 ,.:.:.@.M ^ U./.#.5 v.;X;X+X~.!.~.I.u.] L K K J J l l l l L -.d.( @.).W.4.K l k k k k k J / { y.H.].#X*X;X,X-Xu.6 ! u.3.<.:.) ",
"0 <.<.;.~ Y /.:X<X}.Y o.@X*X{.H.k.y.=./ K K K J J J l h l j G o.7.( 5._.W.4.l h h h h k k k z T [ 6.Z.~.{.OX*XOX;.# < | =.<.<.) ",
"0 <.<.@.F H.;X<X<X;Xv.h T.%X[.k.<.] R K J K J J J l h h h h D ) +.Y w._.W.-.h g g g h h h k k k K ] 2.v.I.Q.`.P.{ *.6.I U :.<.) ",
"0 <.2._  .{.:X:X:X;X~.F 4.[.{.B.=.R J J J J J l h h h h h h j Y _ L w._.L.o.h d d d d g g h k k k K ] 2.g.A.A.<.f.+X;XF.V ..<.) ",
"0 <.;.I s.%X;X;X;X;X#Xk.b B.{.K.=.J l l l l l h h h h h h h h G Y H 8.).K._ d d d d d d g g h k k l T ] 2.u.*.b T.;X:X XX.^ :.^ ",
"< o._ I !.*X*X*X=X=X*X Xo.L H.!.s./ l h h h h h h h h d d d f h f 8 B d.e.H a 8 s s a d d d d g k k z K ] ( w F  X;X;X#Xs.M ..U ",
"< ~ N Z [.%X%X%X%X&X*X%X!.) b 8.s.@.L h d d d d h h d d d 8 4 1 e p C I V 5 - 1 7 9 8 8 a a a d g h k k d 4 B H.%X=X=X%XI.v I Z ",
", B 3 B [.+X+X+X{.].XX%XoXE.( s ( =.o.L h d s s d d d s 8 : 1 X.J.W.).(.K.5.q + 1 7 9 9 9 9 a a d g g 7 - I K.+X%X%X%X+X[.Y c v ",
"* u & V ].oXoX.XH.6.B.)..X.X~...5 b ( ) L h s 8 8 s d 8 1 ; %.W._.).).(.W.W.l.q + 1 7 7 9 9 9 9 a 9 1 5 5.).+X#XoX.X.XoX{.=.6 q ",
"* q @ Y )..X.X!.9.] ] =.B.~.[.E.X.; ; 6 d d s 8 8 s s 5 - Y K.L.z.%. . .X.d.J.+.# # 4 7 7 7 9 7 1 # u d.[..XXX.X!.H.E.{.[.7.3 0 ",
"* q @ ) ).{.{.E.9.] R l J =.x.Y.G.F O   X + # - 1 4 4 - - 4.D.+.x > # # 1 N 4.%.2 O 1 4 7 4 - O . 2 h.).[.[.).K.a.6.k.W.).0.5 0 ",
"= q @ -.).[.[.'.K.@.J h d h G _ @.D 9 ^  .q .   . X + X # ^ +.d - .     + 4 h H > . # - # + 2 v > N J.!.K.V.9.o.] ] ;.H.W.a.6 0 ",
"* q # a.).).).).E.@.k d d d d d a 1 v x.E.d.i + 2 U X.v # h N 4 O       . ; w f ; & 3 > X 3 l.G.I 6 ..o.Y F D J L / ] d.K.d.d 3 ",
"* q ; h.W.E.G.x.a.L d a a d d d 9 - 6 w.K.x.I - F z.L.5.> 7 d 4 #       X 1 8 s 8 &.S.4.# M K.K.U O ; 7 7 7 a k K L / 7.G.h.b 3 ",
", u > d.E.J.7.) J d a a a a a a 8 # ; ^ 7.o.e O 5 ) w.$.2 1 s 7 1 + X O - 7 f 8 8 +.w._ # q l.l.Y + O 1 4 4 7 d J K L @.z.d.N 0 ",
"0 ^ 3 w.K.x.@.W h 9 9 9 7 7 9 9 7 # # N _ G 5 X # 8 c f ; + 1 d d 8 5 8 d h f : - 5 6 4 + > ) o.D # . - 1 1 1 7 k G G _ d.d.H C ",
"y 0.i 8.J.d.o.L h 9 7 7 7 7 7 7 7 # + F _ h 5 + . - 4 1 - O X ; w h N N j d ; + # - - > + - N J h ;   # 1 1 1 4 g J J ( a.s.I | ",
"t :.q -.D.d.) J d 7 7 7 7 4 7 7 4 + # H ~ 8 7 1 X O 1 1 - # O X + - 1 1 - + O # - - - # X ; h d h 1   # - > > 1 9 l l L 0.w.B ! ",
"0 [ 0 ..z.w.( D a 4 4 4 4 4 4 4 1 O + H H 1 4 8 # . # - - - # O O X X X X O # - - - - # X 5 d 7 h 5 . # > - > 1 7 h l G 7.7.c C ",
"0 o.q F e.7.~ h 8 1 1 1 1 1 1 1 > O + B G > ; 8 5 O . + - - - # # + O + + # - - - - - O + d 5 1 h 8 X # - - - > 4 d h D 4.$.e M ",
"0 @.i 6 #.5.~ h 9 1 1 1 1 1 1 > - X + N D > # 1 8 1 O . O # - - - # # # - - - - - 1 # O w h > 1 h 8 X # - - - 1 4 d h D $._ 6 C ",
"0 ;.V > ~ 4.( j 9 1 1 1 : 1 > - - O X c L 1 # - 5 s 5 # X O + # - : : 1 1 1 1 4 1 # + e D 5 # > d 5 X # - - - - 4 a h j ..L 3 A ",
"0 =.U > B 4.) l a 1 > > > > > - - O X e ~ > # - - 8 d w ; + + O O # 7 8 8 7 1 # X + d G 8 - # ; d 5 X + - - - - 4 8 g j ~ f < I ",
"< [ ~ , e $...N a 1 > > - - - - - # . 6 ( 5 # # # ; 8 d d 8 4 ; # # - - + X . + 2 N N 7 - # # : h 4 X + - - - - 1 8 d N H 1 3 Z ",
", ( Y 3 > ..X.D a 1 ; - - - - - - # . ; ~ d - # # # - 4 8 d d d 5 O     . - w b D f 4 - # # # 1 d ; . + # # # - 4 8 s h h ; q B ",
", B B q # F ..D 9 1 - - - - - - - # . O D N - # # # # # - 4 8 s s -     + 8 h h 5 ; # # # # # 5 d + X # # # # - 4 7 8 s 5 # e i ",
"= B B c & 5 ~ G 9 1 - - # # # # # # X . 9 H 1 # # # # # # # # - 1 1 X   # 7 4 - # # # # # # - d 5 X X # # # # - 4 7 8 8 1 > v i ",
"r 0.9.4.M ; N D 9 1 - # # # # # # # +   # D e # - # # # # # # # - 1 O   # 7 - # # # # # # # 1 d ;   O # # # # - 4 9 8 7 1 M :.X.",
"y m.b.v.4., ; 8 7 - - # # # # # # # + . . w h - # # # # # # # # - > O   # 1 - # # # # # # - 8 8 @ . + # # # # - 7 7 4 1 3 :.b.5.",
"0 t.9.9.:.i @ # - - # # # # # # # # # X   # d 5 - # # # # # # # # # X   O # # # # # # # # - 5 -   . + # # + # - 1 1 > > M 3.t.X.",
"0 <.;.:.=.Y i & @ X X O + + + + + + + X     - 7 - # # # # # # # # # .   X + # # # # # # # # #       O + + + + # # # , M _ <.:.^ ",
"0 <.<.<.:.=.[ H i & .     . .   . X X         + - - # # # # # # # +       O + + + + + O X .       . X O + + # > 2 i #.0.3.2.<.^ ",
"0 <.<.<.<.<.=.( Y u q , , > * & @ @ @ X X .     X O O O O O + + O .         . X X X X .     . @ & > > 2 6 q u i c U j.c.3.3.<.) ",
"0 <.<.<.<.<.=.( Y c c c c c ^ 8.5.4.$.+.O.| M 0 & X X .               . X @ @ & # # & & > q ! $.5.8.0.u.u.9.#.^ b ^ c.c.3.<.<.^ ",
"0 <.<.<.<.<.=.) Y c c c b N #.M.M.m.M.b.v.v.9.#.N e ^ X.A M M M M M M V I U H V v i i c m ^ u.M.b.b.m.M.b.j.6...B ^ j.j.3.<.<.^ ",
"0 <.<.<.<.<.=.( Y v c v _ j.u.6.6.6.6.6.6.6.@.[ F c ( [ =.;.>.:.:.:.:.:.<.>.] E B c c I 4.u.q.9.9.9.9.9.6.:.[ Y N V _ @.<.2.<.} ",
"0 <.;.:.<.;.=.( I v c b o.C.i.<.<.<.<.<.<.<.[ ) F c I ~ =.;.<.<.<.<.<.:.<.;.] Y B c c I y.j.9.<.2.2.2.2.<.=.' Y b B ~ _ ;.<.:.^ ",
"< ) ) ) ' ) Y b b c c b X.C.f.<.<.<.<.<.<.<.[ ) B c c b ~ ) ' ) ) ) ) ) ) ( F c c c v I y.j.9.<.<.<.<.<.<.=.' Y b c b F ) ) ) P ",
"< ( ( ( ( ( I c c c c b o.C.i.:.:.:.:.:.<.<.[ ( B c c c Y ( ( ( ( ( ( ( ^ ~ N c c c v I y.j.9.<.<.<.<.<.<.=.) Y b c c B ^ ( ( Z ",
", b v v v v v v v v v c v b L ) ) ) ( ( ) ) F b c b v v b b b b c b b b b c v v c v c c b F ~ ) ) ] ' ' ) Y n b v v v b b b v t ",
"* c i i i i i p p p i i i c B ^ ^ ^ ^ ( ( ^ B c v b c i i i i i i i i c i i i i i p p p c B Y ) ) ) ) ) ) Y n c i i i i i i c t "
};
