/* XPM */
static char *_20820f7d9a44a21e8bfe817e519953bePI2iOl2HVso6ksr[] = {
/* columns rows colors chars-per-pixel */
"64 64 224 2 ",
"   c #020205",
".  c #04050B",
"X  c #08090E",
"o  c #060612",
"O  c #070813",
"+  c #0C0C13",
"@  c #0B0C1C",
"#  c #100E11",
"$  c #0D1014",
"%  c #0E111B",
"&  c #14141E",
"*  c #15181D",
"=  c #0E0E23",
"-  c #0F1124",
";  c #0F1128",
":  c #121225",
">  c #161924",
",  c #191B24",
"<  c #12122C",
"1  c #161B2B",
"2  c #1A1D2B",
"3  c #151634",
"4  c #151A35",
"5  c #1A1E34",
"6  c #171739",
"7  c #161C3B",
"8  c #191A3D",
"9  c #1D222C",
"0  c #1D2234",
"q  c #17203E",
"w  c #1B233C",
"e  c #21232D",
"r  c #222635",
"t  c #252838",
"y  c #252A3E",
"u  c #1B1D43",
"i  c #1D1F48",
"p  c #1A2344",
"a  c #192444",
"s  c #1D244B",
"d  c #1C2A4C",
"f  c #1D314F",
"g  c #1E2750",
"h  c #1F2C53",
"j  c #1E3253",
"k  c #222646",
"l  c #252B43",
"z  c #292D45",
"x  c #252D4A",
"c  c #2A2E4A",
"v  c #2B3245",
"b  c #293347",
"n  c #25314A",
"m  c #2C334C",
"M  c #30364B",
"N  c #333B4E",
"B  c #242B54",
"V  c #262D59",
"C  c #243454",
"Z  c #2C3551",
"A  c #2E3A54",
"S  c #21345C",
"D  c #2B345A",
"F  c #25395B",
"G  c #2A3B5A",
"H  c #333A54",
"J  c #373C56",
"K  c #343D5A",
"L  c #2C3463",
"P  c #253B62",
"I  c #2C3C63",
"U  c #293769",
"Y  c #323C65",
"T  c #38404F",
"R  c #364050",
"E  c #3B4156",
"W  c #36415D",
"Q  c #3C435C",
"!  c #2D4165",
"~  c #2D456B",
"^  c #364362",
"/  c #3A4563",
"(  c #3D4965",
")  c #3A4569",
"_  c #35486B",
"`  c #3D4B6C",
"'  c #2E4578",
"]  c #364C73",
"[  c #364977",
"{  c #3A517A",
"}  c #41455C",
"|  c #424A5F",
" . c #434A63",
".. c #434866",
"X. c #434D6B",
"o. c #44516D",
"O. c #4A556A",
"+. c #4C546D",
"@. c #53596F",
"#. c #445373",
"$. c #495573",
"%. c #4B5976",
"&. c #455879",
"*. c #4C5B79",
"=. c #565A73",
"-. c #545B74",
";. c #525E7B",
":. c #56647A",
">. c #54627C",
",. c #5B637C",
"<. c #63667D",
"1. c #394E80",
"2. c #3B5884",
"3. c #475B86",
"4. c #505F82",
"5. c #4F6185",
"6. c #4C638C",
"7. c #556483",
"8. c #5A6683",
"9. c #5C6A85",
"0. c #54658B",
"q. c #57688D",
"w. c #5C6A8C",
"e. c #5E718C",
"r. c #4F6895",
"t. c #546A91",
"y. c #5B6D93",
"u. c #576D98",
"i. c #5E7096",
"p. c #5B719B",
"a. c #666A83",
"s. c #616E8B",
"d. c #64728D",
"f. c #6B738D",
"g. c #74758B",
"h. c #616F93",
"j. c #647393",
"k. c #6B7693",
"l. c #6C7A95",
"z. c #64749B",
"x. c #68779A",
"c. c #6C799C",
"v. c #737B96",
"b. c #797C93",
"n. c #717D9B",
"m. c #667AA3",
"M. c #6A7CA5",
"N. c #697DA6",
"B. c #717EA2",
"V. c #807F92",
"C. c #77819C",
"Z. c #7B829C",
"A. c #6E81A9",
"S. c #7581A4",
"D. c #7A84A5",
"F. c #7484AB",
"G. c #7A86AB",
"H. c #7D89AD",
"J. c #7F8CB1",
"K. c #87879C",
"L. c #8389A4",
"P. c #8A8DA4",
"I. c #828BAD",
"U. c #898EAA",
"Y. c #918FA2",
"T. c #8A91A8",
"R. c #8D92AB",
"E. c #9395AB",
"W. c #9897AB",
"Q. c #828EB2",
"!. c #8691B4",
"~. c #8A93B5",
"^. c #8E98B7",
"/. c #8D96B8",
"(. c #8F98B9",
"). c #9499B4",
"_. c #979BB4",
"`. c #939BBC",
"'. c #999FBE",
"]. c #A09DAE",
"[. c #9FA1B1",
"{. c #9BA1BD",
"}. c #A6A5B7",
"|. c #A3A6BA",
" X c #ACABBC",
".X c #B1ADBC",
"XX c #BCB3BF",
"oX c #9CA3C1",
"OX c #A1A6C4",
"+X c #A5A9C6",
"@X c #ABADC4",
"#X c #A7AAC8",
"$X c #AAADC9",
"%X c #B0AEC1",
"&X c #AFB2C5",
"*X c #AEB1CB",
"=X c #B4B2C3",
"-X c #B2B4CE",
";X c #BCB8C8",
":X c #B5B7D0",
">X c #B6B8D0",
",X c #BBBCD2",
"<X c #C2B9C5",
"1X c #C3BDCA",
"2X c #C0BFD4",
"3X c #C7C0CD",
"4X c #CBC3CE",
"5X c #C2C1D6",
"6X c #CBC6D3",
"7X c #C6C5D9",
"8X c #CAC7D8",
"9X c #CCC9DB",
"0X c #D3CCD5",
"qX c #D5CFDB",
"wX c #D8D2DD",
"eX c #DBD4DC",
"rX c #D9D6E3",
"tX c #E3DCE4",
"yX c #E3DFEA",
"uX c #E7E3EB",
"iX c #EAE4ED",
"pX c #EEE9F1",
"aX c #F2EDF3",
"sX c #F5F1F5",
/* pixels */
"# + + + # + + $ $ $ $ $ $ + + + + + + + + + + + + + + + + + + + + + + + + + + $ $ $ $ $ $ $ + + + + + + + + + + + + + + + + + # ",
"& y y y y z Q v.v.v.v.l.s.%.Q l l l l l l l l y y y y y l l l y y y y l l m 8.v.v.v.l.d.;.X.M l l l y y y y y y l y y y y y y e ",
"> y l l l b ( l.l.l.l.l.9.#.W l l l l l z z z x n n x z z y l l l l l y z A ,.d.:.| T R N b y k l l l z m m m m m x x x l l l r ",
"* y l l W v.d.%.*.*.*.*.#.^ A l l l l 0 M N b b T O.-.%.m l l l l l l n ,.f.E , % l X.8.$.Z < % > w l W 9.l.l.l.l.d.-...z y l 0 ",
"* l l z Q v.d.%.*.*.*.*.#./ N l 0 2 % + > t c l 2 > r E m l l l l l l n :.E % E oXuXaXaXpXrX`./ : % t / 9.k.k.k.k.d.*.( z y l 0 ",
"* l l l Q v.d.*.*.*.*.*.#./ Z 1 + - K Z.,XrXrXrX5X_.-.1 0 z z l l l l n N b _.uXsXsXaXpXpXaXaXyX&X..9 @.>.*.*.*.*.&./ K l z l 0 ",
", H H H ..j.w.&.$.*.*.*.#.^ y X k ^.iXsXsXaXpXiXuXiXrX) : l m H A A A z & f.aXaXyX7X+XoX+X7XpXsXsX8Xx r $.%.%.%.&.o.W H l z N b ",
"t l.l.k.9./ / / ` *.*.*.#.H & m ,XaXaXrX>XoX!.J.J.!.oX3.< l a.v.l.l.l. .X ) oX(.F.A.N.m.N.F.oX7XyXrXk.@ N %.*.&.( K x l l K f.=.",
"t k.k.j.7.^ W K / $.$.$.` 0 1 @XsXiX*XF.m.N.N.N.N.N.G.u.k ^ v.C.v.k.k.| X I m.A.A.A.A.N.N.N.m.N.(.>X+Xu 2 o.&.X.W A l n A ( j.-.",
"e ;.*.*.&.^ K x Z / / ( Z @ w.uXrXoXN.m.A.F.F.F.G.H./.!.[ w.Z.l.s.8.>.( @ ] F.F.A.A.A.A.A.A.A.N.A.`.-X4.: K / K n z z K d.d.*...",
"9 %.%.*.#.^ K l m K K Q l s +X7X`.G.F.N.Q.~.Q.!.(./.oXOX6.i.L.C.k.9.7.*.8 3.G.F.F.A.N.A.F.A.A.A.A.F.-X'.q W X.^ n l z J k.d.*.Q ",
"9 *.*.*.#.^ H l l x m A s 0.#X`.Q.Q.Q.J.oXOXoXoX+XoX$X*Xm.p.R.L.v.d.8.7.B 3.J.H.G.F.A.F.G.F.F.F.F.F.+X-X` K 4.o.m y z W k.d.*.Q ",
"9 *.*.*.$.^ K l z m m x V ~.oX!.~./.(.`.$X-X*X$X*X$X-X-XQ.p.E.T.Z.k.s.s.L 3.Q.Q.J.J.F.H.Q.Q.J.H.H.F.(.>Xx.B #.X.m y l H 8.7.*./ ",
"9 *.*.*.$.^ K z c m H p ) #XoX~.`.oXOX#X-X>X>X-X>X>X>X>X`.p.E.R.L.n.f.k.' 3.!.Q.Q.!.Q.Q.Q.Q.Q.Q.Q.F.J.>X(.L Y ( m l l m ( X.%.Q ",
"2 #.#.#.X.K Z z b N / k 0.-XoX/.oX$X*X-X,X,X>X>X>X>X,X,X+Xz.E.E.L.v.f.v.{ 6.~.~.~./.!.!.~.~.~.!.Q.F.H.-X*X1.L ` m z l c H W o.W ",
"2 ) ) / K z z z b J X.k G.,X+X`.OX*X$X-X2X5X5X,X,X,X>X,X-XN.R.E.L.v.f.v.2.r.`.`.`.`.^.(.`.(.~././.!.!.*X,Xu.L X.J b l z x m / M ",
"> K K K Z y y l m J X.L `.,X$X'.'.OX$X-X,X5X5X,X,X>X-X>X-XF.P.Y.K.b.f.v.2.r.`.`.oXoX`.`.`.`.`.oXoX`.`.#X7XJ.U X.Q b z l l x A z ",
"* x z x l z z z m Q X.[ $X>X#X'.`.OX$X-X>X5X5X2X,X>X-X-X-XQ.L.K.K.g.g.b.6.r.`.oXOXoX`.`.'.`.oX#XOX+X{.OX7X$X' ` } m z z z x n r ",
"9  . .X.( K H z m E ^ 3.>X-XoXoX`.+X*X-X-X>X,X,X>X-X-X-X-X`.U.[.E.P.Y.T.r.p.`.oXoX`.~.`.`.`.oX+X+X+XoXoX7X,X3.] | N m m ..X.o.J ",
"r d.d.j.w.#./ z b E Y y.,X-XoXOXoX+X*X-X-X>X-X-X-X-X>X-X-XoX!.=X@X X X{.u.N.oXOXoX`.`.`.`.oXoXoXoXOXOXoX5X9Xp.[ O.E m W d.f.k.=.",
"r e.s.w.7.X.Q z b E Y F.2X*XoX#X+X#X-X-X-X>X>X-X-X-X>X>X:X+X!.@X X|. X{.p.H.oXOXOXoX`.`.oXOXOXoX+X+XOXOX,XqXF.' +. .+.-.s.s.w.+.",
"9 *.*.;.$./ K x m J I ~.5X$XoX$X$X$X-X-X>X>X-X>X-X-X>X>X:X$X!.{.|.|.|._.p.J.+X#X#XoXoXoX+X#X+X+X#X$X+X#X>XqX~.' X.@.f.d.;.*.*...",
"9 %.%.%.$.X.( H J J L `.7X$XoX$X*X*X-X-X>X>X>X>X>X>X-X-X-X-X~._.|.|.|.^.m.Q.#X$X$XOXoX+X#X$X#X#X+X+XOX+X>XrX`.' ` =.v.k.*.*.%.| ",
"9 &.%.%.%.%.$./ Q H D '.7X+XoX$X-X-X-X-X-X>X>X>X>X-X-X-X-X-X`.Q.|.|.|.!.m.~.+X#XOXOXOX$X*X*X+X+X+XOXOXOX-XrXoX' _ -.l.k.>.*.*...",
"9 *.*.*.*.*.%.X./ H V {.7XOXoX$X-X-X-X-X-X-X-X>X>X-X*X-X-X-XoXG.I.Q.H.N.N.`.OXOXoXoX#X*X$X#X+X#X#X#X+XOX*XqX#X{ _ @.l.k.>.*.*...",
"9 *.*.*.*.;.*.X...J V {.5XOXoXOX$X*X*X-X-X-X-X-X-X*X*X*X*X$X+XH.F.Q.Q.N.F.oX+X+XoXoX+X$X#X+X#X$X$X#X+X+X#X9X*X{ Y O.l.k.>.*.*...",
"9 *.*.*.*.;.*.X...Q V '.5XoX{.oX$X*X-X-X-X-X-X*X*X-X*X*X*X*X+XQ.!.9X>XF.Q.oX+X#XOX+X#X$X#X#X$X$X$X$X#X+X+X8X*X{ D ..8.9.>.;.*...",
"9 *.*.*.;.;.*.o.X.} D ~.,XoX'.OX$X*X*X-X-X-X-X-X*X*X*X*X$X$XOXQ.Q.*XoXF.J.`.oXOXOX#X#X$X#X$X$X$X$X$X#X+X+X9X$X[ D ..+.%.;.;.*...",
"9 #.o.$.$.$.+... .} Y x.>X{.'.OX$X*X*X*X-X-X-X*X$X+XOX`.`./.Q.H.F.F.G.F.F.H.Q.!.`.`.oXOX#X$X$X$X$X$X+X+X+X9X#XY D | ....%.$.+.W ",
", / / / X.X...W }  .L 3.@X'.'.OX+X$X*X*X#XoX`.`.~.!.Q.Q.Q.Q.Q.Q.J.J.Q.Q.J.H.H.H.H.H.H.H.!.(.'.oX+X#X+XoXOX9X{.L Y | Q W X.X...H ",
", H A K K Q Q E Q V V U ~.'.`.oXoXoX'.~.Q.Q.Q.~.^./.`.`.(.`.(.`.(././././.^.~./.~.!.Q.H.H.H.H.H.Q.~.`.`.{.6X_.L /  .Q J Q J J c ",
"> c m m m N J K k L 3.' 6.S.H.H.G.G.H.Q.~./.`.`.'.'.oXoXoXoXoXOXOX+X+X+XOXoXoXoX{.`.`.`./.~.!.H.G.N.N.N.F.-Xz.L `  .Q J N m b t ",
"> z b m M N ..Z D _.8X~.' 2.u.z.S.H.!.(.`.'.oXoX+X$X-X>X>X,X5X5X5X5X5X5X2X,X,X,X>X-X$XOX'.`.`.^.~.I.S.z.t.6.{ { I ..Q E N m b t ",
"* z z z b H K p K.eXuXtXx.2.u.B.H.!.^.`.OX$X-X>X,X2X,X,X>X>X-X-X$X+X+X+X#X$X$X*X-X-X>X>X-X$XOX`.^.~.G.N.t.{ S.=X` D Q E H m b t ",
"* z z b J =.c 8.0XtXtXuX=X3.u.B.H.^.OX-X>X>X-X$X+XOXoX`.`.`.`./.^.^.^.~.~.~.!.Q.!.!.~.^.`.{.OX{.'.^.G.x.6.3.5XeXv.x @. .H m b t ",
"* l z m ..s.x  XeXeXtXtXeXB.6.x.D.~.`.`.^.~.~.^.^.^.(.(.`.`.`.`.`.(.`.(./.^.^.~.~.Q.Q.H.H.G.G.S.S.B.x.y.2.T.eXeXW.k ;.-.H m m t ",
"* l z m ( %.N 6XeXeXeXtXtX6Xj.0.z.x.N.G.H.I.Q.!.!.!.!.~.~.!.~.~.~.~.~.~.~.!.Q.Q.I.I.I.I.H.G.S.N.z.u.6.3.q.6XeXqX}.x / +.H b z r ",
"> m m Z ..l W 0XqXeXeXeXeXtX1Xy.0.i.x.N.G.G.H.H.I.H.I.I.I.I.I.!.`.oXOX`.!.I.H.H.H.H.G.G.D.S.N.x.i.t.3.3.|.eXqX1X.XX.l ..M b m y ",
"9 $.$.%.o.@ +.4X0XqX0X=X1XeXtX;Xx.q.z.c.S.S.D.G.H.H.H.H.I.I.{.9XyXuXuXtX,X^.H.H.G.G.D.S.B.c.x.i.t.6.0._.qXeX4X=X.Xs.5 J m H +.} ",
"t l.l.l.o.O <.4X4X4X}.w.v..XeXtX0Xn.y.x.c.x.B.S.D.D.G.G.H.~.rXpXpXiXuXuXtX2XU.G.D.S.S.B.x.z.i.t.6.w.}.eXeX4X}..X XP.q x Z / k.-.",
"r 9.9.9.K + g.3X4X1Xb.&.&.w.P.1XeX;Xc.q.y.j.z.x.B.S.S.S.H.;XtXrX7X@X+X+X,XqX+XD.S.B.c.x.z.j.y.q.S.=XqXqX=XZ.Z.W.}.].Z l %.;.9.O.",
"9 %.%.*.z + V.1X<X1X}.7.] &.4.k.}.;X_.0.0.j.y.i.z.c.c.S.L.6X9X'.~.I.D.U._.;X&XD.B.c.z.j.y.0.h._.0XqX3X}.l.9.f.P.W.]. .y l.j.*.Q ",
"9 %.%.%.t + K.<X<X<X=Xd.P I ~ ] &.w.w.5.%X6X@Xj.y.S.L.n.n.@X|.I.D.n.c.n.L._._.n.c.x.y.y.D.R.R. X XU.j.*.#.#.7.g.Y.W.=.r l.j.*.Q ",
"9 *.*.%.r + K.}..XXX}.#.g h S P ~ ~ ~ { ;XeXeXL.k.6XeX1Xn.R.U.S.z.i.i.j.n.L.U.n.U.U.w.k.1X4Xv.&.*.] ~ ! ~ ! ` ,.b.Y.<.0 d.e.*.Q ",
"9 *.*.%.r + b.K.f.f.o.d i s h S P P P P C._.}.w.0.;XqX6Xn.l.C.l.w.0.0.w.k.C.n.L.1X;Xj.w.=X X8.P P P S h S P P #.a.b.a.1 $.*.%.Q ",
"9 &.$.$.0 + a.b.;.#.F u u i s s h S B s 8.k.j.{ ~ w.P.E.w.4.k.j.w.0.0.w.k.n.7.w.C.n.&.{ K.Z.*.h h h s u s S j ! ,.f.<.1 A / #.Q ",
"2 ` ` ` 9 + ,.g.%.` C 8 8 8 u i s s i u *.8.*.! V _ *.*.] ~ &.s.s.w.w.j.k.7.] ] ] ] ~ P *.;.` s 8 i 8 6 4 d h F %.a.,.: z A ` J ",
"> / W ^ 1 o @.a.$.! d 6 6 6 6 8 u i 8 4 #.*._ P s C _ ! P S S ! #.4.4.&._ P S P P S h s _ _ _ u < 8 6 3 < u d j X.-.=.% l m K M ",
"> m Z Z 0 X  .,.X.C d 3 3 6 6 6 8 8 6 < ` #.F S p 8 P S h h s s s h h s s g h h g s 8 u I F I 7 = 3 < < < 3 p d ^ %.O.@ l x m y ",
"* m m m w . H =./ j a < < < 3 3 6 6 3 = ^ ^ B h s 3 h h i s i 8 8 8 8 8 8 u i u 8 8 < p F d F 7 + < < : ; < 8 s W +...+ m m b y ",
"e ,.:.>.W . y -.^ j a < < < < < 3 6 < @ G ! p u s 3 8 d u 8 6 6 6 3 3 6 6 6 6 6 8 6 = h h p j 4 o = = = = < 4 a G o...+ %.>.:. .",
"t l.k.k.;.+ 1 +.^ j a < < < < < < 3 < @ F G 8 6 u 8 < 3 s s 8 6 3 3 < < < 3 6 8 8 = a j u 4 j 4 X = = = = < 4 p G X. .% d.k.l.-.",
"9 7.>.>.$.+ @ / / j a < : : < < < < < + d F 8 < 8 p p < = p h d p 8 8 8 u p s 4 @ q F d < 6 d 4 X @ = = = = 6 p C +.E , >.7.7. .",
"9 *.%.%.#.2 X k / f a < : = = : : < < + q F a : < 4 d F 7 - < 4 7 p s s a 4 = : a F C 4 = 3 d 4 X @ = @ @ = 6 a C +.z r *.*.%.Q ",
"9 *.*.*.%.M . < Q j a < : = = = = < < + - G a : : < 4 C G F d 7 @ o @ O o = q F G h 4 = = 3 d < . @ @ @ @ = 6 p C +.5 b *.*.*.Q ",
"9 *.*.*.*...$ + K C a < = = = = = < < @ + F d = = = = < a C G G a .     < C C n q < @ @ = 4 d = . @ @ @ @ < 6 p C ( -  .*.*.*./ ",
"9 *.*.*.*.$.0 . z C 7 : = @ @ @ = = < = . d C ; = = @ = = ; < 8 a @   X 4 a 4 < @ @ @ @ = 7 a X X @ @ @ @ < 6 p G l & >.*.*.*.Q ",
"9 *.*.*.*.*.K . - a 3 = @ @ @ @ @ = < < o 4 F 4 = = @ @ @ @ @ @ < :   o 6 < @ @ @ @ @ @ : a <   X @ @ @ @ = 6 7 C - 2 8.*.*.*.Q ",
"9 *.*.*.*.*.X.2 . + @ @ @ @ @ @ @ @ = < @ @ n a = = @ @ @ @ + @ = =   o < @ @ + @ + @ @ 3 4 o   o @ @ @ @ 3 4 4 4 o y X.*.*.*.} ",
"9 *.%.%.*.$.$.H > . . X o + @ @ @ @ @ = o . 4 x < @ @ @ @ @ @ @ @ +   . @ @ @ @ @ @ @ = 6 @     o @ O o @ 6 < O o : A ( $.*.%.Q ",
", / / / ) / K x l 0 & X . . . X o o o o .   . < 4 = @ @ @ @ @ @ @ +     @ @ @ @ @ @ @ @ O       . . . . X @ @ : < w x Z / / / N ",
", ^ ^ / ^ / J l z l l l z t 2 & + X . . . .   . o O o X o o o O o .     X o o o o X .       . X + + % > r b b m l l l m Q / ^ M ",
"> x l l l l l l z z l l l x Z W K m z l r r 1 % + X . . .     .         . . . X + + + % : 1 y m Z A K K ^ K c l l l l z x x l r ",
"* l y y y y y y y y y y y l m Q Q Q Q / Q W b y y w 0 9 2 > > > > > > > 2 1 0 0 r t t t y m K / / ^ / / / K c l y y y y y y l r "
};
