/* XPM */
static char *_8fca5491285474b9c24ea331b5bea0b3TXrE0WR2nc33Y8l[] = {
/* columns rows colors chars-per-pixel */
"64 64 122 2 ",
"   c #0E0D0F",
".  c #100E0F",
"X  c #0D0E13",
"o  c #100F15",
"O  c #0D1014",
"+  c #15161D",
"@  c #14181D",
"#  c #151622",
"$  c #171924",
"%  c #191B25",
"&  c #1A1E29",
"*  c #1D222C",
"=  c #1F2335",
"-  c #21232C",
";  c #212433",
":  c #252A33",
">  c #20243B",
",  c #252B3E",
"<  c #29293D",
"1  c #1E2B43",
"2  c #242B43",
"3  c #282D45",
"4  c #252D49",
"5  c #282E4A",
"6  c #263046",
"7  c #293147",
"8  c #26314A",
"9  c #2A324C",
"0  c #2D384B",
"q  c #31354E",
"w  c #30394F",
"e  c #263050",
"r  c #2C3552",
"t  c #2E3955",
"y  c #2E3959",
"u  c #313653",
"i  c #323B55",
"p  c #393D54",
"a  c #333C5B",
"s  c #383F5A",
"d  c #363F61",
"f  c #374057",
"g  c #3F4353",
"h  c #36415D",
"j  c #3B435D",
"k  c #364362",
"l  c #3A4463",
"z  c #374965",
"x  c #3D4965",
"c  c #3B4668",
"v  c #3E4B6A",
"b  c #40465F",
"n  c #424C65",
"m  c #424E6C",
"M  c #445166",
"N  c #44516D",
"B  c #4A546D",
"V  c #4F586F",
"C  c #444E70",
"Z  c #455372",
"A  c #495674",
"S  c #475976",
"D  c #4B5976",
"F  c #495779",
"G  c #475A78",
"H  c #4B5A79",
"J  c #4B5B7A",
"K  c #4E5B79",
"L  c #4C5B7A",
"P  c #4D5C78",
"I  c #4D5D79",
"U  c #4E5D7C",
"Y  c #505B77",
"T  c #525D75",
"R  c #585C71",
"E  c #515D7B",
"W  c #515E7A",
"Q  c #546077",
"!  c #51627D",
"~  c #54627D",
"^  c #55607E",
"/  c #57647F",
"(  c #59657C",
")  c #59647E",
"_  c #5C677F",
"`  c #5B687F",
"'  c #556282",
"]  c #566480",
"[  c #566481",
"{  c #5A6681",
"}  c #5D6680",
"|  c #586784",
" . c #5D6B82",
".. c #5C6B86",
"X. c #5A6D88",
"o. c #5D6C89",
"O. c #5E718C",
"+. c #616D86",
"@. c #606D89",
"#. c #616E8A",
"$. c #64718B",
"%. c #63718C",
"&. c #63728F",
"*. c #65738E",
"=. c #66748F",
"-. c #6A758E",
";. c #69788F",
":. c #627590",
">. c #657491",
",. c #697692",
"<. c #677993",
"1. c #6B7891",
"2. c #6D7B93",
"3. c #6A7995",
"4. c #6C7895",
"5. c #697C96",
"6. c #6B7C97",
"7. c #6D7D96",
"8. c #6D7C99",
"9. c #707C97",
"0. c #747D97",
"q. c #707E98",
/* pixels */
". X X X . X X O O O O O O X X X X X X X X X X X X X X X X X X X X X X X X X X X X X O O X o X X X X X X X X X X X X X X X X X   ",
"+ < , , , 3 j 0.q.q.q.7.@.A j 3 2 2 2 2 2 2 2 2 , , , , 2 2 2 , , , , 2 2 0 } q.q.q.q.,.^ n u 2 2 2 , , , , , , , , , , , , , - ",
"# , 2 3 2 9 x 7.5.5.5.5.X.Z h 2 2 2 2 2 4 7 8 9 8 8 4 3 3 2 2 2 2 2 2 , 6 t ` 5.5.5.5.:.! m r 3 3 3 3 4 8 9 9 9 9 4 4 4 2 2 2 ; ",
"+ < 2 3 h 9.%.D I I I I Z k t 2 3 3 3 2 D 1.2.4.2.4./ D 0 2 2 2 2 2 2 8 ) 1.] L L L I A v s 9 2 2 2 2 h  .2.4.4.4.=.Y n 3 , 2 = ",
"+ 2 2 3 j 9.%.D H L L H Z k u 2 2 2 8 r I >.3.3.3.4.^ A 0 2 2 2 2 2 2 8 ` 1.' L L L L A v s 5 2 2 4 0 x ..3.3.3.3.%.H x 4 , 2 = ",
"+ 3 2 3 j 9.%.H H L L H Z k u 2 2 2 V ,.| I I I I E m l 9 4 3 2 2 2 2 8 ` 1.' H H L H S v s 9 2 2 i _ $.! I I U U S l a 2 2 2 = ",
"$ i i i n >.o.S A H L H Z k i 2 2 2 V 4.| L L L D Z l s 9 4 0 t t t t h / @.U S H L H S v s 5 2 2 f +.=.! D D D S N h i 2 4 w 7 ",
": 4.2.,...l l l v H L L Z k i 2 2 2 A 4.| L L L m l e 4 3 2 ) 1.1.4.4.,.Z l c v Z L L A v s 5 2 2 f +.=.! D H S v a 4 2 2 a -.R ",
": 3.<.>.| k h a l Z Z A v s 9 2 2 2 n  .E Z S A x h 8 2 i a | >.>.>.,.>.Z l h h m A A C k i 8 2 2 i T | D S S m h t 2 8 i n >.T ",
"- E I L S k y 4 r l l l i 4 3 3 2 2 8 8 a l l l r 4 2 2 ^ ,./ I I I I L v k e 8 a k k d e 2 2 2 2 3 6 r h k l a 8 4 4 s *.%.I n ",
"* L D H Z k a 2 8 s s a 0 3 0 h j h h h v Z m v r 3 3 2 ) q.! H L L H D v k e 4 t a a u 4 6 i h h h h x N Z v k 8 2 4 s 1.%.H j ",
"* L H H Z k i 2 2 4 4 4 4 4 n ,.,.,.1.1.3.3.' D a 4 3 2 { q.! H H H H D v k 8 2 4 4 4 2 2 i Q ,.1.1.1.1.3.@.U v 8 , 2 h 1.%.H j ",
"* H H L A k a 3 2 3 4 4 u l L *.>.%.%.>.>.>.E Z t 4 3 2 L ..I H H H H H v h 8 2 3 3 3 7 i n { =.=.=.*.>.>...H x 8 , 2 i | ] H l ",
"* L H L A k a 3 2 3 4 4 n ,...I I I I I U U m l 9 4 3 4 h x A L L L L H v j 8 2 3 3 3 i Q %./ I I I I I U A v h 4 2 2 9 x m D j ",
"& Z Z Z m a r 2 2 3 u n D $.] D D D L H H L v k 9 4 3 3 r i m Z Z Z Z Z h i 4 2 2 8 h B | o.! L L L L L L Z c a 4 , 2 5 i h N h ",
"& c c l s 4 4 2 2 4 n -...E L D H H H H H H v k 9 2 2 3 4 4 s l l l l l e 3 2 2 2 t E %.] I I L H H H H H Z c s 4 , 2 4 4 9 l q ",
"$ a a a r , , 2 2 4 n 9.@.L L L H H H H Z N k i 3 , 2 2 2 2 r a a a a i 4 2 , 2 2 t | ,.] L L L H H H D S v s r 4 2 2 3 3 4 t 3 ",
"+ 4 4 4 2 2 2 3 3 4 n 9.@.L L L L L L L m l r 4 2 2 2 2 2 2 2 4 4 4 4 4 2 , , 2 3 i | ,.] L L L H L H S v s 9 4 2 2 3 4 2 2 4 > ",
"* n M m x a t 3 3 3 i I Z N N Z Z Z Z Z k i 5 2 2 2 2 2 j n n n n n n n h i 3 2 2 9 n A N N N N Z m m v a r 4 2 2 3 2 0 n n m p ",
": =.=.>.o.Z l 3 , 2 4 0 i l l l l c c c t 4 2 2 2 2 2 1 Q =.;.>.,.=.=.=.I N 0 2 2 4 8 r h l l c c c l s 9 4 2 2 3 3 2 i $.-.,.R ",
": O.@.@.| m j 2 , 2 2 4 9 t t t t t t i 5 2 2 2 2 2 j v / o.%.o.o.o.o.o.D m 0 2 3 2 2 4 r t t i i u u r 5 2 2 2 4 0 n A +.@.@.V ",
"* H I I A l a 2 3 3 2 2 4 4 4 4 4 4 4 4 3 2 2 2 2 2 E =./ E Q I I I I U v k 9 3 3 3 2 3 4 4 4 3 3 3 4 3 3 2 2 3 4 f +.@.E I I n ",
"* S D D Z m l r 9 3 3 2 2 3 3 2 2 2 2 2 2 2 2 2 2 2 ) 8.' I I I L L L H Z m a r 4 , 2 2 2 , , 2 2 2 2 2 2 2 2 3 2 h -.*.I H D b ",
"* G D D D A m s i 2 2 , , , , 2 2 3 3 2 2 2 2 3 3 2 / 7.! I I I L L H H H A c a 8 2 2 2 2 2 2 2 3 3 2 2 2 2 4 2 2 j >.>.I D D l ",
"* H H D H H Z k a 2 2 , , 2 p B B B B B B B l j 9 2 / 5.! L L L L L H H L A v s 8 2 2 2 2 9 x B B B B B B B l i 3 l ,.>.I H H l ",
"* H H H H H Z k a 2 2 , , 2 n -.1.1.1.1.1.1.^ Z i 4 ) 7.! L L L L L H H L A v s 9 2 2 2 2 i / 1.1.1.1.1.1.@.Y n 8 h >.>.I H H l ",
"* H L H D D Z k a 2 2 2 i B T o.X.o.o.o.o.o.D N r 2 B ^ I D L L L L H H L A v h 8 2 2 9 x L | o.o.X.X.X.o.] Z j 6 t I ! L H H l ",
"* H H D D H Z k i 2 2 3 n ;...I I I I I I I v l 9 2 i x Z D L L L H H H L F v s 8 , 3 i ) *.' I I I I I I S v a 6 9 j m L L D j ",
"& m N N N m x t 9 3 2 4 n 9.o.D D D D H H L v l 9 2 9 t x m m m m m m m m m a r 4 2 2 i } ,.' L L H H H H Z l a 4 4 r a m m m i ",
"% k k k l l a 2 3 3 3 4 n 2...D H H H H L L m l 9 2 3 4 a k k k l k k k k h 8 2 2 2 2 i  .,.' H H L L L L Z l a 4 2 2 9 j l l q ",
"# r r r t t 9 2 2 3 3 4 i B N m m C C m m m d t 4 2 2 4 e t t t y u u t t r 4 2 2 2 2 8 x N m m m m m m m v a e 4 2 2 4 u u u 3 ",
"+ 3 4 4 2 2 2 2 3 3 3 2 2 4 t k k l l l k k e 2 2 2 2 2 3 3 2 2 2 2 2 2 2 2 2 2 2 2 2 3 2 8 a k l l k k k s 8 3 3 2 2 2 2 2 3 ; ",
"+ 2 2 2 2 4 i B B B A B n h a r r r r r r 0 4 2 2 2 2 2 3 3 3 2 2 2 2 2 2 5 n A B B B N x h i u r r r r r 0 4 2 2 2 2 2 4 4 3 ; ",
"+ 2 , 2 , 3 j 4.q.q.q.8.@.D h 2 2 2 2 2 2 2 3 4 4 4 2 3 3 3 3 2 2 2 2 2 3 r | 7.8.8.8.>.^ m r 2 2 2 2 2 2 2 2 2 2 2 2 4 4 4 4 ; ",
"@ 2 , 2 q V T | | ......E v a 2 2 2 2 2 j B Z B B B x f 7 3 2 2 2 2 2 2 x A ] X.| | | ] Z l 9 2 2 2 2 0 n B B B B B j i 4 3 4 ; ",
"+ 2 , 3 j 9.%.D L L L H Z k r 2 2 2 4 4 T 7.7.7.7.8./ D 0 2 3 2 2 2 2 8  .3./ D H H H Z c s 8 , 2 2 4 j +.7.8.8.8.%.E m 5 3 4 ; ",
"+ 3 2 4 j q.%.D L H L H Z l t 2 2 2 j B ^ o.o.o.o.o.D B 0 4 2 2 2 2 2 8  .3./ H H L L Z v s 8 , 2 0 n D | ....o.X.] Z l 4 3 3 ; ",
"# 5 8 9 l 4.@.D H H L H C l t 2 2 2 D q.| D S D D D x h 8 2 4 8 8 8 8 0 | >.! D H L L Z c s 8 , 2 f  .*.! D D D D Z l a 4 4 8 : ",
"* Z A Z L ^ L m Z H L H Z l t 2 2 2 D 8.| D D D N m a r 4 2 x B B B B B T E N N A L L Z v s 8 , 2 h ..>.! H H D N x t 9 4 0 B g ",
": 5.4.5.o.k k k v H A A m k r 2 2 2 B ,.^ D A A x j 9 2 8 8 | 4.4.4.4.,.N l k l Z L L Z c a 8 2 2 i { @.E D H Z l i 4 4 9 j >.T ",
"; X.| | E k s t a m m m k t 9 2 2 2 h N N N m m s r 4 2 n Z ] | ......| m k a y c m m c a r 4 3 3 0 c m N N m x i 0 2 t B E | B ",
"* D L H Z k t 2 9 h h h r 3 3 9 9 9 9 8 h x x l r 2 3 2 } 9.^ H H H H D v k 9 4 a h h a 9 2 8 0 0 9 9 t l x l s 4 2 2 h 4.>.I j ",
"* D D H Z k t 2 4 0 0 0 8 3 s V D D D D ! ] A N t 4 4 2  .q.^ H H H H D v k 9 4 9 r r 0 4 0 n T D D D E ^ Q Z l 8 2 2 h 4.>.H j ",
"* H L H Z k t 2 2 2 2 2 6 0 B 1.1.1.3.3.5.5.] L t 4 4 2 ^ ,.! L L L L D v k 8 2 2 2 2 3 8 h } 2.2.4.4.3.3.%.E m 8 2 2 f =.%.H j ",
"* H L D Z k a 2 2 2 2 4 i L ^ | | | | | ....S m r 2 2 2 n E L H H H H H v k 8 , 3 , 2 0 n T / | | | | | | ! Z l 7 2 2 0 A H D j ",
"* S A A m k u 2 2 2 7 0 N 4...D L L L L L H v l 8 2 2 2 i h N A A A A A c s 8 2 2 3 8 h ) *.^ H H H H H D N l a 4 2 2 8 a z Z j ",
"& v v v l r 9 2 2 4 h T ^ | ! H H L L H H L v l 9 4 3 2 9 r x m v v v v a 9 4 2 2 9 M Q | ] U H H H H H L Z l a 4 2 2 4 0 t v i ",
"$ k h k i 2 2 2 2 4 n 8.o.D D D H L L H H A x j 9 3 2 2 3 3 s k d k k h 8 2 2 2 2 i ) >.^ H H H H H H H D Z l a 5 , 2 3 4 9 s q ",
"# 9 r r 9 2 2 2 2 3 n 8.o.D D D H H H L Z m a r 4 3 3 3 3 3 9 r 9 r r r 2 2 2 2 2 i ` =.^ D H H H H H A Z l t 9 4 2 2 3 4 4 9 , ",
"@ 0 0 0 9 8 3 2 3 3 x =.| D A A A A A A x j 9 2 2 3 3 4 8 0 r 0 0 0 0 0 8 4 3 2 2 w Q @.E A A A A A A Z l a 4 2 2 2 2 4 0 0 9 , ",
"- ) ^ ^ Y x i 2 2 4 0 l x v v v v v v v a 0 4 3 3 3 4 2 B ^ ^ ^ ^ / / Q N j 9 3 2 3 i l x v v v v v v k t 5 4 3 2 2 2 i E ^ Q n ",
": 4.3.4.@.Z n 3 2 2 2 3 r j h h h h h h r 2 2 2 3 3 8 0 | 3.3.1.3.3.3.<.E B r 3 2 2 , 4 a k k k k k k a 4 2 2 3 2 4 8 j =.3.5.T ",
"* ' ! ^ L x h 4 2 2 2 2 4 8 8 8 8 8 9 9 4 2 2 2 2 2 B / ] ] ' ^ ] ] ] ] N l 9 3 2 2 2 4 8 9 9 9 9 9 9 8 4 2 2 3 2 i E ] ] ] ] n ",
"* H S D Z l a 2 2 2 2 2 2 3 3 2 2 2 2 2 2 2 2 2 2 2 ) 7.' L H H H H H H v l r 5 3 3 3 3 3 3 , , 2 2 2 2 2 2 2 3 2 h =.=.I H D j ",
"* H H H D Z v a r 2 2 2 2 3 3 3 2 2 2 2 3 3 3 2 3 2 / 8.' L L H L H H H A Z l a 8 2 2 2 2 2 2 2 2 2 2 2 3 2 2 3 3 j >.>.I I H j ",
"* H H H H L Z k i 2 2 2 2 3 6 8 8 8 8 8 8 5 5 5 3 2 ^ 5.' L L L H H H L L D v h 9 2 2 2 3 4 3 8 8 8 8 9 9 8 5 3 3 j >.>.E I H l ",
"* H H H H H Z k a 2 2 2 2 4 n +.+.+.+.+.@.+.Y B r 2 ) 8.' H H L H H H L L D v s 9 2 2 2 2 i T +.+.+.+.@.@.| B j 4 j >.>.I H H j ",
"* H H H H H Z l a 2 2 2 4 8 B 7.7.7.7.7.7.7.] L t 4 ) 5.' L L L H L L L L D v s 9 2 2 2 6 h  .7.3.3.4.7.3.%.E n 8 h *.%.I H H j ",
"* H H H H H Z k a 3 2 3 x *...E E E E E E E N v r 2 k v A H L L H H H L H F c d 9 2 2 i T o./ ! ! ! ! ! U D v s 8 0 x N H L H b ",
"* H S D H A Z k i 3 2 4 n q.o.H H H H H H H v l r 2 i h Z A H H H H H D H S c s 8 2 2 i | =.! H L L L L H Z c a 4 9 h x A H D j ",
"% l l l c l s 4 4 2 2 4 n q.@.H H H H H H H v l 0 2 2 4 h l c l l l l l l k r 2 2 2 3 i _ =.! H H H H H H Z c a 4 2 4 r l l l u ",
"% k k k k k i 2 2 2 2 4 n 9.o.D D D D D H H v k 0 2 2 2 s k k k k k k k j h 8 2 2 2 3 i } =.! H H H H H H Z l a 4 2 2 9 j k k q ",
"# 4 3 3 3 3 3 3 3 3 2 2 3 4 y l l l k k l l r 4 2 4 3 3 4 4 4 4 2 4 4 4 4 2 2 2 2 2 2 2 4 r h l l c c c l s 5 4 3 3 3 4 4 4 3 ; ",
"+ 2 , , , , , < < < , , , 2 0 j j j j k k j 9 2 3 4 2 , , , , , , , , 2 , , , , , < < < 2 8 s l l l l l l s 5 2 , , , , , , 2 ; "
};
