/* XPM */
static char *_c12cb360e1340df8f66d64956d0e9e053d7FHCARWBZCHup[] = {
/* columns rows colors chars-per-pixel */
"64 64 162 2 ",
"   c #010101",
".  c #06060A",
"X  c #080708",
"o  c #07080B",
"O  c #0A0A0C",
"+  c #0D0E13",
"@  c #0D0F18",
"#  c #100F14",
"$  c #0E1015",
"%  c #0E121A",
"&  c #121213",
"*  c #12151C",
"=  c #15181E",
"-  c #1B1B1B",
";  c #131621",
":  c #161922",
">  c #1A1C24",
",  c #161B2A",
"<  c #1A1E2B",
"1  c #1D212C",
"2  c #1D2334",
"3  c #1E2539",
"4  c #1D283C",
"5  c #242424",
"6  c #21242C",
"7  c #2C2B2C",
"8  c #222533",
"9  c #252934",
"0  c #292B37",
"q  c #21263C",
"w  c #242A3E",
"e  c #292C3B",
"r  c #2D313D",
"t  c #333333",
"y  c #3C3C3C",
"u  c #242741",
"i  c #242B43",
"p  c #282D45",
"a  c #252E49",
"s  c #292E4A",
"d  c #263046",
"f  c #2A3144",
"g  c #26314A",
"h  c #2A324C",
"j  c #2E384A",
"k  c #313644",
"l  c #31354E",
"z  c #343A4A",
"x  c #393E4E",
"c  c #2C3552",
"v  c #2E3955",
"b  c #2D3858",
"n  c #313753",
"m  c #333B55",
"M  c #3A3F51",
"N  c #333D5A",
"B  c #383F5A",
"V  c #363F62",
"C  c #413E44",
"Z  c #364056",
"A  c #3C4253",
"S  c #36415D",
"D  c #3B445D",
"F  c #3D495F",
"G  c #364362",
"H  c #3A4463",
"J  c #374965",
"K  c #3D4964",
"L  c #3B4668",
"P  c #3E4A6A",
"I  c #444444",
"U  c #4D4D4D",
"Y  c #41465B",
"T  c #444A5D",
"R  c #554F56",
"E  c #545354",
"W  c #5C5C5C",
"Q  c #424C64",
"!  c #494E62",
"~  c #424E6B",
"^  c #455264",
"/  c #4B5166",
"(  c #44516D",
")  c #4A546D",
"_  c #5D5760",
"`  c #5F5961",
"'  c #444F70",
"]  c #455373",
"[  c #495674",
"{  c #475977",
"}  c #4A5976",
"|  c #475A78",
" . c #4C5B79",
".. c #535D75",
"X. c #585C71",
"o. c #515E7B",
"O. c #625B63",
"+. c #655E68",
"@. c #54627D",
"#. c #59657D",
"$. c #59687E",
"%. c #646464",
"&. c #6B646D",
"*. c gray42",
"=. c #737373",
"-. c #7A727C",
";. c gray48",
":. c #566581",
">. c #5A6681",
",. c #5B6A85",
"<. c #5C6B86",
"1. c #5E6B87",
"2. c #5D6C89",
"3. c #5E718C",
"4. c #616D86",
"5. c #616E8A",
"6. c #64718B",
"7. c #63718D",
"8. c #64738D",
"9. c #66748F",
"0. c #68748E",
"q. c #627590",
"w. c #657491",
"e. c #697692",
"r. c #667993",
"t. c #6B7891",
"y. c #6D7B93",
"u. c #6C7895",
"i. c #697C96",
"p. c #6A7D97",
"a. c #6E7D97",
"s. c #6E7C98",
"d. c #707C97",
"f. c #747D97",
"g. c #707C98",
"h. c #867E89",
"j. c #838383",
"k. c #8B828E",
"l. c #898989",
"z. c #8E8E8E",
"x. c #938996",
"c. c #978E9A",
"v. c #998F9C",
"b. c #939393",
"n. c #9B919E",
"m. c #9A9A9A",
"M. c #A0A0A0",
"N. c gray65",
"B. c #ABABAB",
"V. c #B3B3B3",
"C. c #BCBCBC",
"Z. c #C3C3C3",
"A. c #CCCCCC",
"S. c #D4D4D4",
"D. c #DDDDDD",
"F. c #E3E3E3",
"G. c #EAEAEA",
"H. c #ECECEC",
"J. c #F3F3F3",
"K. c gray96",
"L. c gray99",
"P. c #FFFFFF",
/* pixels */
"  + + + # + + $ $ $ $ $ $ + + + + + + + + + + + + +       o O + + + + + + @ @ @ @ @ $ $ @ # @ + + + + @ @ @ + + @ @ + + + + + O ",
"  9 w w i p D f.g.g.g.a.1.( B p i i i i i i i i w 2     X   o : 9 w w i i h $.g.g.g.g.e.@.~ n i i i w w w w w w i i w w w q w 6 ",
"  9 i p i h K a.i.i.i.i.A $ * 4 i i i i p d g h g 3   X =.E     @ q i q d v $.i.i.a.i.q.@.~ c a p p p p g h h h h s s a i i i 8 ",
"  9 i p S d.7.}  . . .z       2 p p p i } t.y.u.u.0.>   t D.z.&   @ q g #.t.:. . . . .{ P B h i i i i Z ,.y.u.u.i.w...Q p w w 2 ",
"  w i i D d.7.} }  .( %     . 3 i i g c  .w.i.i.i.u.D X   l.K.N.-   % i $.t.:. . . . .{ P B s i i p j K 1.i.i.i.i.7.} K p w i 2 ",
"  u i p D g.7.} }  .f   I 5 . , 2 w ) e.>. . . . .o.j O   t G.P.M.&   ; @.t.:.} }  .} [ P B h i i m $.6.@. . . . .[ H N i i i 3 ",
"  n m m Q w.2.[ { ( $ O C.t       : ) s.,. . . .} Q O   X ;.K.P.P.;..   A 5. .[ }  .} [ P B h i i Z 4.9.@.} } } [ ( S m i p z f ",
"+ u.y.e.1.H H H P S   t P.U 5 7     Y u.,. . . .~ S %   & C.P.P.P.D.t   $ N L P ]  . .{ P B s i i Z 4.9.@.} } [ P N a i i N 0.X.",
"+ 5.r.w.:.G S N H 9   =.P.D.S.b.  . A ,.o.] [ { K S i %   t A.P.P.P.z.    i S S ~ { { ' H m g i i m ..>.} [ [ ~ G v i g v ~ w...",
"  : (  .[ G N a c *   N.P.P.K.W   % p g N H H H c a i 4 1   E H.P.P.S.-   1 c g N G G V c i i i i i g c S G H N g p p B 6.7. .Q ",
"X   : ] P G N i s O & Z.P.P.S.-   e S S P ] ~ P c p p i @.>   =.K.P.K.%.  * a a v N N v a d m S S Z S K ( ] P G g i p B t.8. .D ",
"R   + Q H G m u q . - S.P.P.C.    #.t.t.i.i.:.} N p p i >./ o & V.P.P.V.X o i i p p p i i m @.e.t.t.t.t.i.5. .P g w i Z t.8. .D ",
"-.X 9 } ] G N i q . & Z.P.P.B.  + >.7.w.w.w.o.] v p p i } #.:   E J.P.D.5   2 i i i i d m ~ >.9.9.9.w.w.w.1.} K g q i m >.:. .H ",
"O * (  .] G N i i o   M.P.P.V.X + (  . . . .~ H h p p p S K e   - D.P.J.I   , i i i i m @.7.#. . . . . . .} P S a i i h K ~ } D ",
"  m ] ] ~ N c i i @   j.P.P.A.- o ~  .} } } P G h p p p c m m . X C.P.P.;.  ; i p g Z ( >.2.@. . . . . . .] L N a w i s m S ( S ",
"@ L L H B p p i i ;   U K.P.F.t   Z } } } } P H h i i p a a c O   z.P.P.l.  + i i c o.7.:. . . .} } } } } ] L B a q i p a h H l ",
": N N N c q w i i <   5 G.P.K.W   8 { } ] ] H m s w i i i i g O   ;.P.P.j.  + i i c >.e.:. . . .} } } } [ P B c p i i p p a v s ",
"@ a p a i i i i i 2 O & Z.P.P.b.  O H  .~ H c a i i i i i i 2     j.P.P.;.  O q i m >.e.:. . . .}  .} [ P B h p i i i p i i a q ",
"  Q ^ ~ K N c i i q %   =.P.P.F.7   2 ~ H m s i i i i i j j :     Z.P.P.;.  + w i h ~ [ ( ( ] ] ] ~ ~ P N c p i w i i j ~ ~ ^ M ",
"& 8.9.w.2.] H i e i <   & S.P.P.b.O   8 c a q 3 2 , % + + .   & %.J.P.P.W   * i i p g c S H H L L L H B h p i i i i i m 6.e.e.X.",
"8 3.5.5.:.~ D i w i q O   =.J.P.J.%.X   % * + o         $ I ;.C.G.P.P.J.y   + q p i i a c v v m m m n c s i i i p h ~ [ 4.5.7.) ",
"1  . . .{ H N i p p i ,   & C.P.P.H.%.          X & t =.Z.K.P.P.P.P.P.F.&     O 3 i i p p p p s s s a a p i i p p Z 4.5.o. . .Q ",
"1 { } } ] ~ H c h p i q +   y S.P.P.J.B.E U %.m.Z.D.H.P.P.P.P.P.P.P.P.A.  I y   O 3 w i i w i i i i i i i i i p p S 0.6. .} } Y ",
"1 | } } } { ~ B m p i i 2 O   U K.P.P.P.J.J.P.P.P.P.P.P.P.P.P.P.P.P.P.S.U A.Z.-   % q i i i i i p p i i i i p p p H e.w. .} } H ",
"1 } } } } } ] G N i i w q +   ;.P.P.P.P.P.P.P.P.P.P.P.P.P.P.P.P.P.P.P.P.G.P.P.l.    < i i h K ( ) ) ) ) ) ( H m a H w.w. .} } H ",
"1 } } }  .} ] G N i i i <   I K.P.P.P.P.P.P.P.P.P.P.P.P.P.P.P.P.P.P.P.P.P.P.P.G.I   @ i i m #.9.t.t.t.t.t.5...Q g D w.w. .} } H ",
"1 }  .} } } ] G N i i q *   m.P.P.P.P.P.P.P.P.P.P.P.P.P.P.P.P.P.P.P.P.P.P.P.P.P.l.  . i K } >.1.1.1.1.1.2.:.] D d c  .@. .} } H ",
"1 } } } } } ] G m i i q O   C.P.P.P.P.P.P.P.P.P.P.P.P.P.P.P.P.P.P.P.P.P.P.P.P.P.A.-   e #.5.Q j [  . . . .[ P N g j D ~ }  .} D ",
", ~ ( ( ] ~ K v h p i q + & A.P.P.P.P.P.P.P.P.P.P.P.P.P.P.P.P.P.P.P.P.P.P.P.P.P.J.I   2 >.A     : Z } } } ] H N p p c N ~ ~ ~ m ",
"> H G H H H N i p p p q O & A.P.P.P.P.P.P.P.P.P.P.P.P.P.P.P.P.P.P.P.P.P.P.P.P.P.P.;.  : #.=   7   @ (  . .] H N p i i h D H H l ",
": c c c v v h i i p p i @ X B.P.P.P.P.P.P.P.P.P.P.P.P.P.P.P.P.P.P.P.P.P.P.P.P.P.P.N.X o f   - x.5 % K ~ ~ P N c p i i p n n n p ",
"* p p p i i i i p p p i %   l.P.P.P.P.P.P.P.P.P.P.P.G.A.F.P.P.P.P.P.P.P.P.P.P.P.P.A.&   .   +.x.# < G G H B g i i i i i i i p 8 ",
"* i i i i p m ) ) ) [ ) 9   j.P.P.P.P.P.P.P.P.P.P.D.E - 7 ;.D.P.P.P.P.P.P.P.P.P.P.D.5     - v.-.  q c v c c p i i i i i p p p 8 ",
"* i w w w s D u.g.g.g.s.Q   =.P.P.K.P.P.P.P.P.P.P.%.        U J.P.P.P.P.P.P.P.P.P.H.t     O.n.C O q i i i i i i i i i p p p p 8 ",
"= i q w l ) ..,.,.1.1.1.[ . I J.m.t ;.J.P.P.P.P.P.t         O B.P.P.P.P.P.P.P.P.P.G.7     h.k.O ; i i j Q ) ) ) ) ( D m p i p 8 ",
"= i q i D d.7.}  . . .} ' + 5 D.t   & V.P.P.P.P.H.5           E P.P.P.P.P.P.P.P.P.F.7   5 v.+.  @ 3 p D 4.a.s.s.s.8.o.~ s i p 8 ",
"= p i p D g.7.}  .}  .} ] ; - C.7     =.P.P.P.P.F.5           5 G.P.P.P.P.P.P.P.P.D.-   &.n.O.O   $ D } >.1.1.2.1.:.] H a i p 8 ",
"; s g h H u.5.} } }  .} ' 2 X b.%.    t K.P.P.P.P.y           O C.P.P.P.P.P.P.P.P.C.O   _ n.n.`   O ..6.@.} } } } ] H N p p g 9 ",
"1 [ [ [ } @. .~ ] }  .} ] p   W z.    & A.P.P.P.P.=.            M.P.P.P.P.P.P.P.P.l.    6 k.c.t   , ,.w.@.} } } ( K v h p h ) A ",
"0 i.u.s.2.G H G P } { { ~ c . 7 N.O   X B.P.P.P.P.Z.-         X V.P.P.P.P.P.P.P.P.y       > E     e >.5.o.} } ] H m a a g D w...",
"8 1.,.,.o.G B v N ~ ~ ~ H c @ & V.5     b.P.P.P.P.P.;.X       7 G.P.P.P.P.P.P.P.V.O   >         . d L ~ ( ( ~ K m j i c ) o.,.) ",
"1 } } } ] G v i c S S S c p :   b.W     m.P.P.P.P.P.K.z.- X 7 N.P.P.P.P.P.P.P.B.&   : Y 8       , h h v H K H B a i i S u.w. .D ",
"1 } } } ] G v i a c c h g p f . t B.I t F.P.P.P.P.P.P.P.F.A.D.P.P.P.P.P.P.A.*.&   O + o         * Q } o.@.@.] H g i i S u.w. .D ",
"1 }  .} ] G v i i i i i d j ~ :   l.G.G.P.P.P.P.P.P.P.P.P.P.P.P.P.P.P.D.j.5           X $ $ $     z y.i.i.7.o.~ g i i Z 9.7. .D ",
"1 }  .} ] G N i i i i p m } @.z   5 Z.P.P.P.P.P.P.P.P.P.P.P.P.P.J.S.b.t           O 8 A T T ! <   O o.,.,.@.] H g i i h [  .} D ",
"1 [ { { ~ G m i i i d h ( u.1.( *   5 b.F.P.P.P.P.P.P.P.P.K.D.m.I &           O 0 Y T ! ! / / A     j } } ] H N p i i g N J ] D ",
", P P P H c h i i p Z ..@.>.@.} ~ *     - %.M.C.C.z.z.m.*.5 O         + > 9 k x A Y T ! ! / / / >   2 }  .] H N s i i p j v P m ",
": H S G m i i i i p ~ s.2.} } } } ~ 8 o     X & X           . O   $ f x x x x A A Y Y T T A r 0 :   : } } ] H N s w i p p h B l ",
"; h c c h i i i i s ~ s.2.} } } } } } H 9 * .         O 6 r k &   o 0 z z z x M A x k 6 *           % [ ] H v h p i i p p a h w ",
"= j j j h g s i p s K 9.,.} { { { { { { K B q     .   * x x z         @ * = > > > +         + & >   O ] H N a i i i i p c c h w ",
"6 #.@.@...K m i i p h H K P K P P P P P N j i O     + z x x 8     = >                 + 9 x T ! / &   H v s p i i i i m o.@.@.! ",
"9 u.i.u.5.[ Q i i i i p c D S S S S S S c i i @   O k A x k o     6 z e < : > > > 6 k A T ! / / / >   n a i i i i p g D 9.i.i...",
"1 :.@.@. .K Z p i i i i p g g g g g h h a i i :   $ z A M >       o 9 z z z x x x A A T T ! ! ! / 1   p p i i i i m o.:.>.:.:.Q ",
"1 } { } ] H N i i i i i i i i i i i i i i i i 3     9 A z             O 6 f k z x A x k 9 6 0 z ! <   q i i i i i S 9.9. . .} D ",
"1 } } } } ] P N c i i i i i i i i i i i p p p u *   + M 8                   O O O o             *     i p i i p p D w.w. . .} H ",
"1 } } } } } ] H N i i i i i d g g g g g g s s s u .   0 :                                             h h g s s p D w.w.o. .} H ",
"1 } }  .} } ] H N i i i i p Q 4.4.4.4.4.5.4...) c ,     O                                         + 0 4.5.>.) D a D w.w. .} } D ",
"1 } } } } } ] H N i i i p g ) a.a.a.a.a.a.a.:.} v a z                                             ^ u.a.i.7.o.~ g S 6.7. .} } H ",
"1 } } } } } ] G N p i p K 6.1.o.o.o.o.o.o.o.( P c i D j o                                         O F @. .} P B g h K ( }  .} Y ",
"1 } | } } { ] H m p i p ~ g.2.} } } } } } } P H c i m S D >                                         + D } ] L N s h S K { } } D ",
"> H H H L H B a p i i p ~ g.5.}  .} } } } } P H j i i a S H h : .                                     * K ~ L N s i a c H H G n ",
"> H G G G H m i i i i p ~ d.2.} } } } } } } P G j i i i B H G G B *                                   $ D ~ H N a i i h D H G l ",
"; a p p p p p p p p p i p a b H H H G G H H c a i i p p p p p a i i 3 %                   + , 9 3 , 1 v H B s a p p p p a a p 8 ",
"= i w w w w w e e e w q q i j D D D H H H D h i p p i w e w q i w w w i q < : * * = > < q g B H H H H H H B s i w w w w e e i 8 "
};
