/* XPM */
static char *_548670f0c8646de8640781c48c56295cROU423FBfVhW4YD[] = {
/* columns rows colors chars-per-pixel */
"64 64 160 2 ",
"   c #010101",
".  c #050609",
"X  c #07080C",
"o  c #0A0B0C",
"O  c #100E0F",
"+  c #0C0D13",
"@  c #100F15",
"#  c #0E1015",
"$  c #0E111A",
"%  c #121314",
"&  c #13151C",
"*  c #15181E",
"=  c #1B1B1B",
"-  c #131621",
";  c #161923",
":  c #191C24",
">  c #171B29",
",  c #191E2B",
"<  c #1D222C",
"1  c #1D2235",
"2  c #1E253A",
"3  c #242424",
"4  c #21232C",
"5  c #2B2B2B",
"6  c #212432",
"7  c #252935",
"8  c #282B35",
"9  c #21263B",
"0  c #252B3E",
"q  c #292B3C",
"w  c #2C313D",
"e  c #323232",
"r  c gray23",
"t  c #242B43",
"y  c #282D45",
"u  c #252E49",
"i  c #282F4A",
"p  c #263146",
"a  c #2B3244",
"s  c #26314A",
"d  c #2A334C",
"f  c #2D384B",
"g  c #313646",
"h  c #313845",
"j  c #31364C",
"k  c #343A4B",
"l  c #383E4C",
"z  c #263050",
"x  c #2C3552",
"c  c #2E3A55",
"v  c #2D3858",
"b  c #313753",
"n  c #333B55",
"m  c #3A3E52",
"M  c #333C5A",
"N  c #383F5A",
"B  c #3A414F",
"V  c #374057",
"C  c #3E4354",
"Z  c #36415C",
"A  c #3B445D",
"S  c #3D495E",
"D  c #364362",
"F  c #3A4564",
"G  c #374965",
"H  c #3C4964",
"J  c #3A4668",
"K  c #3E4B6A",
"L  c #444444",
"P  c #4C4C4C",
"I  c #40465F",
"U  c #444B5D",
"Y  c #525252",
"T  c #5B5B5B",
"R  c #434C65",
"E  c #494F62",
"W  c #424E6B",
"Q  c #445166",
"!  c #4B5265",
"~  c #44516D",
"^  c #4A546D",
"/  c #4E586F",
"(  c #51576A",
")  c #545A6E",
"_  c #444F71",
"`  c #455372",
"'  c #495674",
"]  c #475977",
"[  c #4B5976",
"{  c #4C5B79",
"}  c #4E5D7C",
"|  c #505B77",
" . c #535D74",
".. c #595E73",
"X. c #515E7A",
"o. c #51627D",
"O. c #53627D",
"+. c #56617E",
"@. c #58637C",
"#. c #59657C",
"$. c #5C677F",
"%. c #59687D",
"&. c gray38",
"*. c #626262",
"=. c #6B6B6B",
"-. c #717171",
";. c #7C7C7C",
":. c #556283",
">. c #566480",
",. c #566582",
"<. c #5A6681",
"1. c #5D6680",
"2. c #586784",
"3. c #5D6B82",
"4. c #5C6A85",
"5. c #5C6B86",
"6. c #5A6D88",
"7. c #5D6C89",
"8. c #616D86",
"9. c #606D89",
"0. c #616E8B",
"q. c #64718B",
"w. c #63718D",
"e. c #63728F",
"r. c #65738D",
"t. c #66748F",
"y. c #69748E",
"u. c #69788F",
"i. c #627590",
"p. c #657491",
"a. c #697691",
"s. c #667993",
"d. c #6B7891",
"f. c #6A7993",
"g. c #6D7B93",
"h. c #6D7A95",
"j. c #697C96",
"k. c #6B7C97",
"l. c #6D7D96",
"z. c #6F7C97",
"x. c #707C97",
"c. c #747D97",
"v. c #707C98",
"b. c #858585",
"n. c #8D8D8D",
"m. c #939393",
"M. c #9B9B9B",
"N. c #A0A0A0",
"B. c #A3A3A3",
"V. c #AEAEAE",
"C. c #B4B4B4",
"Z. c #BBBBBB",
"A. c gray77",
"S. c #CBCBCB",
"D. c gray83",
"F. c #DCDCDC",
"G. c #E4E4E4",
"H. c #ECECEC",
"J. c #F4F4F4",
"K. c #FFFFFF",
/* pixels */
"o + + + O + + # # # # # # + + + + + + + + + + + + + + + o X o + + + + + + + + + + + # # # @ + + + + + + + + + + + + + + + + + o ",
"& q 0 0 0 t A c.v.v.v.l.9.' A y t t t t t t t t 0 0 0 0 9 > 6 0 0 0 0 t t f 1.v.v.v.v.a.+.R b t t t 0 0 0 0 0 0 t 0 0 0 0 0 0 4 ",
"- 0 t y t d H l.j.j.j.j.6.' Z t t t t t u p d d s s 1 +     . 1 t t t 9 p c %.j.j.j.j.i.o.W x y y y y u d d d d d i u u t t t 6 ",
"& q t y Z x.w.[ { { { { ` D c t y y y t [ f.g.h.u.l .       . 1 t t t s #.f.>.{ { { { ] K N d t t t t Z 3.g.h.h.h.t.| R y 0 t 1 ",
"& t t t A x.w.[ [ { { [ ` D x t t t d x { p.f.r.h   = &.o   ; t t t t s %.f.:.{ { { { ] K N i t t u d H 4.f.f.f.f.w.[ H u 0 t 1 ",
"& y t y A v.w.[ [ { { [ ` D b t t t / a.2.{ { q   % Z.N.. . 2 t t t t s %.f.:.[ [ { [ ] K N i t t n $.r.o.{ { } } ] F M t t t 2 ",
"; n n n R p.7.] ] [ { [ ` D n t t t ' h.2.{ a   % S.K.T     . 9 v v v Z +.9.} ] [ { { W K N d t t V 8.t.o.[ [ [ ] ~ Z n t u k a ",
"7 h.g.a.4.F F F K [ { { ` D n t t 0 / h.2.H o o M.K.K.F.n.5   B f.h.h.a.` F J K ' { a + * b i t t V 8.t.o.[ [ ] K M u t t M u...",
"7 f.s.p.2.D Z M F ` ` ' K N j t t t R 3.{ ,   T K.K.K.J.N.o   l p.p.a.p.` F Z Z W A       ; y t t n X.<.[ ] ] W Z v t s v R p. .",
"4 X.{ { ] D v u x F F F n u y y t t p s d . o Z.K.K.J.n.o   : ' { { { { K D z s M 9   o %   , t t t s x Z D F M s u u N r.w.{ R ",
"< { [ { ` D M t d N N M f y f Z A Z Z Z 0   r H.K.K.N.%   4 ' { { { [ [ K D z u c 1   e m.  X n Z Z Z H ~ ` K D s t u N f.w.{ A ",
"< { { { ` D n t t u u u u u R a.a.a.f.r.:   b.K.K.J.e   : q.o.[ { { { [ K D s t 2 -   e G.r   C f.f.f.f.f.9.} K d 0 t Z f.w.{ A ",
"< [ { { ' D M y t y u u b F { r.p.w.w.X..   A.K.K.N.. . S 4.{ [ [ [ [ [ K Z s , .     5 H.M.  ; 3.t.p.p.i.4.[ H d 0 t n <.>.{ F ",
": { [ { ' D M y t y u u R a.4.{ { { { k   = H.K.J.L   - Z H ] { { { { [ K A d ,     = =.J.D.o   H { { } } [ K Z u t t d H W [ A ",
"& ` ` ` W M x t t y b R { q.>.[ [ [ [ 6   &.K.K.D.X . 1 x n W ` ` ` ` ` Z n u t X % D.J.K.H.5   k { { { { ' J M u 0 t i n Z ~ Z ",
"# J J F N u u t t y R y.4.{ { [ [ [ [ <   b.K.K.N.  + t u u N F F F F F z y t t $ . V.K.K.J.Y   0 [ [ [ [ ` J N u 0 t u u d F j ",
"o M M M x 9 0 t t u R x.9.{ { { [ [ [ ;   m.K.K.m.  + t t t x M M M M n u t 0 t ;   ;.K.K.J.&.  , [ [ [ ] K N x u t t y y u v y ",
"X u u u t t t t t t R x.9.{ { { { { [ *   N.K.K.n.  + t t t t u u i u u t 9 0 t >   Y J.K.J.T   * ` [ ] K N d u t t t u t t u 9 ",
"X S Q W H M c t t t n { ` ~ ` ` ` ` _ *   C.K.K.;.  + t A R R R R R R R Z n y t ,   5 J.K.J.T   # K W K M x u t t t t d R R W m ",
". 3.t.p.7.` F t 0 t u f n F F F J J F >   m.K.K.V.  . 2 o.t.u.p.a.t.t.t.{ ~ f t >   5 J.K.H.e   - F F N d u t t t t t n q.u.a. .",
". o.9.9.2.W A t 0 t t u d v v v v v x ;   Y J.K.F.X   f >.7.q.7.7.7.7.7.' W d t -   5 J.K.F.=   1 n b x i t t t u f R ' 8.9.q./ ",
"  H { { ] F M t y y t t u u u u u t $   o Y H.K.J.P   # a S ^ { { { { } K D d y +   &.K.K.A..   9 y u y y t t y u V 8.9.X.{ { R ",
"  S [ [ ' W F x d y t t t t t t t &   e C.J.K.K.K.F.3     . # q H ` [ [ ` W M t . X C.K.K.M.  o 9 t t t t t t y t Z u.r.{ [ [ I ",
"  H [ [ [ ] W N n y t t 0 0 0 t ,   r G.K.K.K.K.K.K.F.-.3 .       + < a H ] J &   = G.K.J.Y   - t y t t t t u t t A a.p.{ [ [ F ",
"  H [ [ [ [ ` D M t t 0 0 t n U + o A.K.K.K.K.K.K.K.K.J.G.A.;.5           + %     T K.K.D.%   A ^ ^ ^ ^ ^ ~ F n y F a.p.{ [ [ F ",
". H [ [ [ [ ` D M t t 0 9 t R C   -.K.K.K.K.K.K.K.K.K.K.K.K.K.J.A.M.&.= .       P F.K.J.=.  & t.f.f.f.f.f.9.| R d Z p.p.{ [ [ F ",
"o K { [ [ [ ` D M t t t n ^ [ % . S.K.K.K.K.K.K.K.K.K.K.K.K.K.K.K.K.K.H.m.r 3 =.H.K.K.Z.=   l 7.7.6.6.6.7.>.` A p c { o.{ [ [ F ",
"% ' [ [ [ [ ` D n t t t R u.U   L J.K.K.K.K.K.K.K.K.K.K.K.K.K.K.K.K.K.K.K.K.J.K.K.K.J.P   & { { { { { { { ] K M p d A W { { [ A ",
"; W ~ ~ ` W H c d y t u R x.6 o Z.K.K.K.K.K.K.K.K.K.K.K.K.K.K.K.K.K.K.K.K.K.K.K.K.K.n.X . ! :.{ { [ [ [ [ ' F M u u x M W W W n ",
"; D D D F F M t y y y u R 8.o e K.K.K.K.K.K.K.K.K.K.K.K.K.K.K.K.K.K.K.K.K.K.K.K.K.C.%   w r.:.[ [ { { { { ` F M u t t d A F F j ",
"& x x x c c d t t y y u n k   -.K.G.H.K.K.K.K.K.K.K.K.K.K.K.K.K.K.K.K.K.K.K.K.K.A.=   $ H ~ W W W W W W W K M z u t t u b b b t ",
"& y u u t t t t y y y t t $ X Z.n.% 5 D.K.K.K.K.K.K.K.K.K.K.K.K.K.K.K.K.K.K.K.J.L .   + t s M D F F D D D N d t t t t t t t y 6 ",
"* t t t t u n ^ ^ ^ ' ^ R o 5 A.X     P K.K.K.K.K.K.K.K.K.K.K.K.K.K.K.K.K.K.K.J.S.m.  + V Z n b x x x x x f u t t t t t u u t 6 ",
"& t 0 t 0 y A h.v.v.v.l./   &.=.      L K.K.K.K.K.K.K.K.K.K.K.K.K.K.K.K.K.K.K.K.K.S.X o Q W x t t t t t t t t t t t t u u u u 6 ",
"& t 9 t j / X.2.2.4.4.2.q   b.X       &.K.K.K.K.K.K.K.G.Z.D.K.K.K.K.K.K.K.K.K.K.K.D.o . Z F d t t t t f R ^ ^ ^ ^ ~ A n u t u 6 ",
"& t 9 t A x.q.[ { { { ] - = b.        n.K.K.K.K.K.K.N.= . % C.K.K.K.K.K.K.K.K.K.K.A.  . n N d 0 t t u A 8.l.l.l.l.w.X.W i t u 6 ",
"& y t u A v.w.[ { [ { ` X L -.      . Z.K.K.K.K.K.S.=       X S.K.K.K.K.K.K.K.K.K.M.  X N N d 0 t f R [ <.4.4.7.6.>.` F u t y 6 ",
"- i s d F h.9.[ [ [ { H   &.=.      r H.K.K.K.K.J.L           -.K.K.K.K.K.K.K.K.J.=.  o N N d 0 t V 3.t.o.[ [ [ [ ` F M u u d 7 ",
"< ` ' ` { +.{ W ` [ { a   T b.      M.K.K.K.K.K.D.o           L J.K.K.K.K.K.K.K.H.L   ; F N d 0 t Z 4.p.:.[ [ [ ~ H v d u f ^ C ",
"7 j.h.j.7.F D D K ] ` 0   &.G.e = ;.J.K.K.K.K.K.m.            o H.K.K.K.K.K.K.K.S.o   d J M u t t n <.9.X.[ [ ` F n u u d A p. .",
"6 6.2.2.X.D N v M W W 0   L J.J.H.K.K.K.K.K.K.J.;.            5 K.K.K.K.K.K.K.K.b.  . N M x u t t f J W ~ ~ W H n d t c ^ X.2.^ ",
"< [ { [ ` D v t d Z Z p   o S.K.K.K.K.K.K.K.K.K.=.            ;.K.K.K.K.K.K.K.H.e   * M d t d f d d d v F H F N u t t Z h.p.{ A ",
"< [ { [ ` D v t u x x d X   &.J.K.K.K.K.K.K.K.K.N.          = D.K.K.K.K.K.K.K.m..   9 f u d R  .[ R ~ X.+.o.` F d t t Z h.p.{ A ",
"< [ { [ ' D v t t t t t <   . n.K.K.K.K.K.K.K.K.G.=       . M.K.K.K.K.K.K.K.G.3   + t t d Z 1.u.U & 8 f.f.w.X.W d t t V t.w.{ A ",
"< [ { [ ` D M t t t t u n 6   X m.J.K.K.K.K.K.K.K.A.e o = n.K.K.K.K.K.K.K.J.r     ; t f R ^ S &     # <.2.o.` F p t t f ' { [ A ",
"< ] ] ] W D b t t t p f ^ u.<   X Y A.J.K.K.K.K.K.K.H.F.G.K.K.K.K.K.K.K.J.n.      o + & % o     % o # [ [ ~ F M u t t d M G ' A ",
", K K K F x d t t u Z X.+.<.q       = &.Z.J.K.K.K.K.K.K.K.K.K.K.K.K.K.H.b.X     .           o 8 l   : [ { ' F M u t t u d v K n ",
"; D Z D n t t t t u R l.7.[ <   : *       e b.A.D.J.J.K.K.K.K.K.J.J.A.P       7 C : o .   ; ( ..w   0 [ [ ` F M u 0 t y u d N j ",
"- d x x d t t t t y R l.7.[ 7   : %   . .         3 Y b.m.N.m.;.=.e         w ) ) ! 4 . % ! ..) # . A ] ` F v d u t t y u u d 0 ",
"* d d d d d y t y y H t.2.[ a   .   % a g &               . .       . o 8 U ( C 4 o   & U ..) &     # H F M u t t t t u f f d 0 ",
"4 @.o.+.| H n t t u f F H K f     . w k a .   .   , 6 &         o % & ; : ; +     . 4 E  .U :         $ x i u t t t t n X.+.o.E ",
"7 h.f.h.9.` R t t t t y x A n X   & k k <   . +   & g k 4 o .               . % 4 C ! E k %             1 t t t t u d A t.f.j. .",
"< :.o.+.{ H Z u t t t t u d d &   : k k #   % 4     , g k k k g w q 7 q q a m C C C l ;                 $ 9 t t t n X.>.<.>.>.R ",
"< [ ] [ ` D M u t t t t t t t 1   & j k X   4 k 7     + 7 j k k k k k k k k k k a < .                   $ t t t t Z t.t.{ { [ A ",
"< [ [ [ [ ` W M x t t t t t t t + . a k o   q k k 6       o & < 7 q w w q 6 : % .             - 1 2 1 , 9 t y y u A p.p.{ { [ F ",
"< [ [ [ [ { ` D n t t t t t p d 9   : g ;   q k k <       .                               . 1 d d d d d d d i y y A p.p.X.{ [ F ",
"< [ [ { [ [ ` D M y t t t u R 8.8.w . 6 < . < k k :                                     . p  .8.8.8.8.9.9.<.^ F u A p.p.{ [ [ A ",
"< [ [ [ [ [ ` F M t t t u s ^ l.l.t.< . ;   + g k 7                                   . 0 Z 3.l.f.f.h.l.f.w.X.R d Z r.w.{ [ [ A ",
"< [ [ [ [ [ ` D M y t u H r.4.X.X.X.R #       q k k o                               . 0 X.8.+.o.o.o.o.o.} [ K N s f H ~ [ { [ I ",
"< [ ] [ [ ] ` D n y t u R v.7.[ [ [ [ A +     : g k w .                           . 1 n <.t.o.[ { { { { [ ' J M i d Z H ] [ [ A ",
": F F F J F N u u t t u R v.9.[ { [ [ [ H *     o : < +                         + 9 y n 1.t.o.[ [ [ [ [ [ ] J M i t u x F F F b ",
": D D D D D n t t t t u R x.7.[ [ [ [ [ [ ' p & .                           $ 1 0 t y n 1.t.o.[ [ [ [ [ [ ] F M u t t d A D D j ",
"- u y y y y y y y t t t y u v F F F F D F F x u t 9 1 1 9 t t 2 1 1 1 1 2 t t t t t t t u x M F F J J J F N i u y y y u u u y 6 ",
"& t 0 0 0 0 0 q q q 0 0 9 t d A A A D F A A d t t u t 0 0 0 0 0 0 0 0 t 0 0 0 0 0 q q q t d N D F F F F F N i t 0 0 0 0 0 0 t 6 "
};
