/* XPM */
static char *bbfd3dcb36b34b5ea7c9674eeacfbe5cvPrn0lCcyeo9kl2u[] = {
/* columns rows colors chars-per-pixel */
"64 64 162 2 ",
"   c #010102",
".  c #060609",
"X  c #07080C",
"o  c #0B0B0D",
"O  c #100E0F",
"+  c #0D0E13",
"@  c #0C0F18",
"#  c #100F15",
"$  c #0D1014",
"%  c #0E1119",
"&  c #131314",
"*  c #181617",
"=  c #14151C",
"-  c #16181E",
";  c #1C1C1C",
":  c #131622",
">  c #161924",
",  c #1A1D25",
"<  c #161A2A",
"1  c #1A1E2A",
"2  c #191E31",
"3  c #1D222C",
"4  c #1D2333",
"5  c #1F263B",
"6  c #242424",
"7  c #21242D",
"8  c #2A272A",
"9  c #2B2B2B",
"0  c #222532",
"q  c #252934",
"w  c #282B36",
"e  c #21263B",
"r  c #252A3E",
"t  c #292A3C",
"y  c #2B313D",
"u  c #333333",
"i  c #3A363B",
"p  c #3C3B3D",
"a  c #202742",
"s  c #242B43",
"d  c #282D45",
"f  c #262E49",
"g  c #292F4A",
"h  c #263046",
"j  c #2B3344",
"k  c #26314A",
"l  c #2A324C",
"z  c #2D384B",
"x  c #323643",
"c  c #343947",
"v  c #31354E",
"b  c #343A4B",
"n  c #393E4D",
"m  c #263050",
"M  c #2C3552",
"N  c #2E3955",
"B  c #2D3858",
"V  c #313753",
"C  c #333B55",
"Z  c #393D54",
"A  c #333D5A",
"S  c #383F59",
"D  c #433E43",
"F  c #374056",
"G  c #3D4253",
"H  c #36415C",
"J  c #3B435D",
"K  c #364362",
"L  c #3A4463",
"P  c #374965",
"I  c #3D4965",
"U  c #3B4668",
"Y  c #3E4B6A",
"T  c #444444",
"R  c #4B464C",
"E  c #4A4A4A",
"W  c #404556",
"Q  c #41465B",
"!  c #454A5D",
"~  c #554E55",
"^  c #555555",
"/  c #5D565D",
"(  c #5C5B5C",
")  c #434C64",
"_  c #494F62",
"`  c #424E6C",
"'  c #425165",
"]  c #4B5166",
"[  c #43516D",
"{  c #4C546B",
"}  c #4F586F",
"|  c #434F71",
" . c #455372",
".. c #495674",
"X. c #475977",
"o. c #4B5976",
"O. c #475A78",
"+. c #4B5B79",
"@. c #525C75",
"#. c #585C71",
"$. c #515E7B",
"%. c #566176",
"&. c #54627D",
"*. c #5A657E",
"=. c #59687E",
"-. c #636363",
";. c #6C6C6C",
":. c #727272",
">. c #7B717B",
",. c #7C7C7C",
"<. c #566582",
"1. c #5A6681",
"2. c #5B6A85",
"3. c #5C6B89",
"4. c #5A6D88",
"5. c #5E718C",
"6. c #616D86",
"7. c #606D89",
"8. c #616E8A",
"9. c #646F8B",
"0. c #64718B",
"q. c #63718D",
"w. c #64738E",
"e. c #66748F",
"r. c #6A758E",
"t. c #657491",
"y. c #667490",
"u. c #697692",
"i. c #667993",
"p. c #6B7891",
"a. c #6D7B93",
"s. c #6B7A94",
"d. c #6D7A95",
"f. c #697C96",
"g. c #6E7D97",
"h. c #6D7C99",
"j. c #707C97",
"k. c #747D97",
"l. c #707C98",
"z. c #827983",
"x. c #818181",
"c. c #868686",
"v. c #8B8B8B",
"b. c #929292",
"n. c #9E929E",
"m. c gray61",
"M. c #A396A2",
"N. c #A4A4A4",
"B. c gray68",
"V. c #B3B3B3",
"C. c #BCBCBC",
"Z. c #C4C4C4",
"A. c #CBCBCB",
"S. c #D4D4D4",
"D. c #D7D7D7",
"F. c #DDDDDD",
"G. c #E4E4E4",
"H. c #ECECEC",
"J. c #F3F3F3",
"K. c #F4F4F4",
"L. c gray98",
"P. c gray99",
/* pixels */
"O + + + O + + $ $ $ $ $ $ + + + + + + + + + + + + o         o + + + + + + + + + o o $ $ $ # + + + + + + + + + + + + + + + + + o ",
"= t r r r s J k.l.l.l.g.7...J s s s s s s s s s e   o ;.  % r r r r r s s z 1.{     c 9.&.` V s s s r r r r r r s s r r r r r 7 ",
": r s s s l I g.f.f.f.f.4...H s s s s s f h k k @   m.x.  . = s s s s r h N =.q   &   y +.` M s s s s f k l l l l g g f s s s 0 ",
"- t s s H j.q.o.+.+.+.+. .K N s s s s s ..p.a.Q   ( L.c.8 o   4 s s s k *.p.&.3   ,.T   0 S l s s s s H 2.a.d.d.s.y.@.) d r s 4 ",
"- s s s J j.q.o.+.+.+.+. .K V s s s k M +.y.y.+ X F.P.P.H.u   < s s s k =.p.<.z   ( D.; . g l s s f z I 2.s.s.s.s.q.+.I f r s 5 ",
"- s s s J l.q.+.+.+.+.+. .K V s s s } u.1.+.F   ( P.P.P.;.  X e s s s k =.p.b $   u K.c.  : g s s C =.w.&.+.+.+.+...L A s s s 5 ",
"> C C C ) y.3.....+.+.+. .K V s s s ..h.2.+.3   B.P.P.Z.X   r N N N N H *.2.=   o -.L.G.8   e s s F 6.e.&.o.o.o...[ H C s f b j ",
"q d.a.u.2.L L L Y +.+.+. .K C s s s ..g.2.+.$   D.P.P.E   : *.p.p.d.d.u. .L k   ( L.P.P.;.  : s s F 6.e.&.o.+...I A f s s A r.#.",
"q s.i.y.<.K H S L  . ...Y S v s s s ) 2.$...+ & G.P.H.; . M 2.u.y.y.u.y. .L S % & D.P.P.V.  X e s C @.1.o.....` H N s k N ) y.@.",
"7 $.+.+...K A f M L L L C f s s s s k k A A   8 J.P.A.o 3 u.*.+.+.+.+.+.Y K m 2   v.P.P.A.&   0 s s k M H K L A l f f S w.q.+.) ",
"3 +.o.+. .K A s k S S A z s z H J H H H Y J   u K.P.V.  y g.&.+.+.+.+.o.Y K m 5   p J.P.G.6   j H H H I [  .Y K k s f S p.w.+.J ",
"3 +.+.+. .K C s s f f f f f ` u.u.u.p.p.s.&.  T L.P.b.  j l.&.+.+.+.+.o.Y K l r X & D.P.G.; X %.p.p.p.p.s.7.+.Y k r s H p.w.+.J ",
"3 +.+.+...K A s s s f f V L +.w.y.q.q.y.y.*.  8 J.P.N.  1 2.+.+.+.+.+.+.Y H k r o   Z.P.G.6 o =.e.e.y.y.y.3.+.I k r s C 1.<.+.L ",
"3 +.+.+...K A s s s f f ) u.2.+.+.+.+.+.+...X ; G.P.A.o % L ..+.+.+.+.+.Y J k r X X A.P.G.6 + ..+.+.+.+.+.o.Y H f s s l I ` o.J ",
"1  . . .` A M s s s V ) +.0.<.o.o.o.+.+.+.+.+   D.P.G.&   k `  . . . . .H C f s . o D.P.D.& -  .+.+.+.+.+...U A f r s g C H [ H ",
"1 U U L S f f s s f ) r.2.$.+.o.+.+.+.+.+.+.1   m.P.P.;.  % C L L L L L m s s 4   ; G.P.C.  3 +.+.+.+.+.+. .U S f r s f f l L v ",
"> A A A M r r s s f ) j.7.+.+.+.+.+.+.+... .M   u J.P.D.&   . % : 4 e s e e e X   T L.P.c.  r +.+.+.+.o...Y S M f s s s s f N d ",
"- f f f s s s s s f ) j.7.+.+.+.+.+.+.+.` L =   u G.P.P.Z.8                     X Z.P.J.9   H +.+.+.+...Y S l f s s s f s s f e ",
"3 ) ' ` I A N s s s C +. .[  . . . . . .K <   ( K.P.P.P.P.P.D.V.m.-.p u u i u i V.P.P.Z.  o I  . .` ` Y A M f s s s s z ) ` ` Z ",
"q e.e.y.3. .L s r s f z C L L L L U U U l   8 J.P.P.P.P.P.P.P.P.P.P.P.P.P.P.P.P.P.P.P.-.  4 L U U U L S l f s s s s s C 0.r.u.#.",
"q 5.7.7.<.` J s r s s f k N N N N N N C <   B.P.P.P.P.P.P.P.P.P.P.P.P.P.P.P.P.P.P.P.Z.o . k N C C C V M g s s s f z ) ..6.7.7.} ",
"3 +.+.+...L A s s s s s f f f f f f f f X   G.P.P.P.P.P.P.P.P.P.P.P.P.P.P.P.P.P.P.L.E     < f d d d f s s s s s f H 6.7.$.+.+.) ",
"3 X.o.o...` L M l s s s s s s s s s s r   u K.P.P.P.P.P.P.P.P.P.P.P.P.P.P.P.P.P.P.Z.& -.& . e s s s s s s s s s s H r.w.+.+.o.Q ",
"3 O.o.o.o...` S C s s s r r r s s s s e   E L.P.P.P.P.P.P.P.P.P.P.P.P.P.P.P.P.P.P.J.F.L.E   < s s s s s s s f s s J u.y.+.+.o.L ",
"3 +.+.o.+.+. .K A s s r r s Z { { { { b   N.P.P.P.P.P.P.P.P.P.P.P.P.P.P.P.P.P.P.P.P.P.P.v.  , [ { { { { { ' L C d L u.y.+.+.+.L ",
"3 +.+.+.+.+. .K A s s r r s ) u.p.p.p.G   D.P.P.P.P.P.P.P.P.P.P.P.P.P.P.P.P.P.P.P.P.P.P.C.X - 0.p.p.p.p.p.7.@.) k H y.y.+.+.+.L ",
"3 +.+.+.o.o. .K A s s s C { $.3.4.3.3.y   G.b.:.H.P.P.P.P.P.P.P.P.P.P.P.P.P.P.P.P.P.P.P.A.& $ &.3.4.4.4.3.<. .J h N +.&.+.+.+.L ",
"3 +.+.o.o.+. .K C s s s ) p.2.+.+.+.+., ; D.X   v.P.P.P.P.P.D.;.-.F.P.P.P.P.P.P.P.P.P.P.Z.o & ..+.+.+.+.+...Y A h z J ` +.+.o.J ",
"1 ` [ [ [ ` I N l s s f ) j.3.o.o.o.o.+ 9 N.    ;.P.P.P.P.G.;     & D.P.P.P.P.P.P.P.P.P.Z.o > o.+.+.+.+.+...L A f f M A ` ` ` C ",
", K K K L K C s s s s f ) j.2.o.+.o.o.+ T v.    :.P.P.P.P.,.        ^ L.P.P.P.P.P.P.P.P.C.X j +.+.+.+.+.+. .L A f s s l J L L v ",
": M M M N N l s s s s f C { [ ` ` U U   ( ^     c.P.P.P.L.9         u H.P.P.P.P.P.P.P.P.N.  h ` ` ` ` ` ` Y A m f s s f V V V d ",
"- s f f s s s s s s s s s f N K K K K . ;.T     N.P.P.P.F.&         8 H.P.P.P.P.P.P.P.P.x.  r K L L K K K S k s s s s s s s s 0 ",
"= s s s s f C { { { ..{ ) H A M M l k   :.E     D.P.P.P.D.&         8 H.P.P.P.P.P.P.P.L.E   z V M M M M M z f s s s s s f f s 0 ",
"- s r s r d J d.l.l.l.h.7.o.H s s e e   T v.  u K.P.P.P.K.&         u K.P.P.P.P.P.P.P.F.&   > s s s s s s s s s s s s f f f f 0 ",
"= s r s v { @.2.2.3.3.3.$.Y A s s r e   ; H.A.H.P.P.P.P.P.E         ;.P.P.P.P.P.P.P.P.v.  +   = r s s z ) { { { { ' J C f s f 0 ",
"- s r s J j.q.o.+.+.+.+. .K M s s s f +   Z.P.P.P.P.P.P.P.D.;     ; D.P.P.P.P.P.P.P.J.8   z.* + s s f J 6.g.h.h.h.w.$.` g s f 0 ",
"- s s f J l.q.o.+.+.+.+. .L N s s s J j   8 G.P.P.P.P.P.P.P.D.x.,.D.P.P.P.P.P.P.P.P.c.  D R   4 s z ) ..1.2.2.3.4.<. .L f s s 0 ",
": g k l L d.7.o.+.+.+.+.| L N s s s ..g.:   9 A.P.P.P.P.P.P.P.P.P.P.P.P.P.P.P.P.P.C.& o /   > r s F 2.w.&.o.o.o.o. .L A f f k q ",
"3  ... .+.&.+.`  .+.+.+. .L N s s s ..h.$.=   o :.D.L.P.P.P.P.P.P.P.P.P.P.P.P.G.b.&   / & % f r s H 2.y.&.+.+.o.[ I N l f z { G ",
"q f.d.h.3.K K K Y +.....` K M s s s { u.&...4     & T ,.B.Z.D.F.F.G.F.Z.m.-.9 &     ~ 8   k k s s C 1.7.$.o.+. .L C f f l J y.@.",
"0 4.2.2.$.K S N A ` ` ` K N l s s s H [ [ [ Y S +         X o & & & & X         p >.n.9   : f s s z U ` [ [ ` I C z s N { $.2.{ ",
"3 o.+.+. .K N s l H H H M s d l l l l l H I I L f     7 = & $ :   + 3 0 7 = ,   / M.M.~   . f z z l l N L I L S f s s H d.y.+.J ",
"3 o.o.+. .K N s f z z z k s S } ......o.&.<...[ >   x ] ] - G c   & 1 ! ] x +   i n.D     4 ) @.......$.&.&. .L k s s H d.y.+.J ",
"3 +.+.+...K N s s s s s h z { p.p.p.s.s.h.h.<.+.X & ] ] q 3 ] 3   n q & G { n o X >.X   > H 1.a.a.d.d.s.s.q.$.` k s s F e.q.+.J ",
"3 +.+... .K A s s s s f C +.&.2.2.2.2.2.3.3...L   c ] c o Q _ o . ! ] q o n ] G   o   = ) @.*.2.2.2.2.2.2.&. .L k s s z ..+.o.J ",
"3 ......` K V s s s h z [ d.2.o.+.+.+.+.+.+.Y 3   _ n o y ] q   o Q ] ] 1 o n { ,     C *.w.&.+.+.+.+.+.o. .L A f s s k A P ..J ",
"1 Y Y Y L M l s s f H @.&.1.&.+.+.+.+.+.+.+.Y o 1 n o 7 ] Q   X 1 q ] { _ = o G c   q &.1.<.+.+.+.+.+.+.+...L A g s s f z N Y C ",
"> K H K C s s s s f ) h.3.o.o.+.+.+.+.+.+...S   7 . 7 ] ] $   c Q + G { { ! $ & Q o c y.&.+.+.+.+.+.+.+.o. .L A g r s s f l S v ",
": l M M l s s s s d ) h.3.o.o.o.+.+.+.+. .` 4     , ] ] =     c ] w & ! { { n   q & 0 y.&.o.+.+.+.+.+... .L N l f s s s f f l r ",
"= z z z l k d s s d I e.2.o.............I J +   . ! ] 3       = _ ] - - _ { ] 1 X + - 7.$............. .L A f s s s s f z M l r ",
"7 *.&.&.@.I C s s f z L I Y Y Y Y Y Y Y A z +   c ] 3           w ] ! & = _ { W . . X J I Y Y Y Y Y Y K N g f s s s s C $.&.&._ ",
"q d.s.d.7. .) s s s s s M J H H H H H H M s %   ! 0               n { W + = ! ] =     s A K K K K K K A f s s s s f k J e.s.f.@.",
"3 <.&.&.+.I H f s s s s f k k k k k l l f s :   x                   n { Q + = _ 0     s k l l l l l l k f s s s s C $.<.<.<.<.) ",
"3 +.X.o. .L A s s s s s s s s s s s s s s s <       :                 G { W o 7 c   . s s s r s s s s s s s s s s H e.e.+.+.o.J ",
"3 +.+.+.o. .Y A M s s s s s s s s s s s s s e     + 4                 o _ { x . n . o s s s s s s s s s s s s s s J y.y.+.+.+.J ",
"3 +.+.+.+.+. .K A s s s s s h k k k k k k g g .   o 4                   0 { ] & 3   X s s f d k k k k l l k g d s J y.y.$.+.+.L ",
"3 +.+.+.+.+. .K A s s s s f ) 6.6.6.6.6.7.6.@.0     4 .                   _ { w .   : s s C @.6.6.6.6.7.7.1.{ L f J y.y.+.+.+.J ",
"3 +.+.+.+.+. .K A s s s f k { g.g.g.g.g.g.g.<.[     = +                   G { G     4 s h H 2.g.s.s.d.g.s.q.$.) k H w.q.+.+.+.J ",
"3 +.+.+.+.+. .K A s s s I w.2.$.$.$.$.$.$.$.[ Y 4     +       : C         y { j   + s C @.3.*.&.&.&.&.&.+.o.Y S k z I [ +.+.+.Q ",
"3 +.X.o.+.o. .K C s s f ` l.3.+.+.+.+.+.+.+.Y L M :           I o.=       > G o   4 s C 1.e.&.+.+.+.+.+.+...U A g l H I ..+.o.J ",
", L L L U L S f f s s f ) l.7.+.+.+.+.+.+.+.Y L z s < .       z L 4       X =   < s s C 1.e.&.+.+.+.+.+.+...U A g s f M L L L V ",
", K K K K K C s s s s f ` j.3.o.o.o.o.o.+.+.Y K z s s a e .   + K r     X     > s s s C 1.e.&.+.+.+.+.+.+...L A f s s l J K K v ",
": f s s s s s s d d s s s f B L L L K K L L M f s f s s f 4 . + s 5     2 o : s s s s s f M H L L U U U L S g f s s s f f f s 0 ",
"- s r r r r r t t t r r r s z J J J J K K J l s s f s r r r r r r r 4 5 r r r r r t t t s k S L L L L L L S g s r r r r r r s 0 "
};
