/* XPM */
static char *_41a2cfa42ca4ee1f9deae1e1b9a7ea4rCZp1EBDIrr84zYS[] = {
/* columns rows colors chars-per-pixel */
"64 64 166 2 ",
"   c #010202",
".  c #060609",
"X  c #07080B",
"o  c #0B0B0D",
"O  c #100E0F",
"+  c #0C0E13",
"@  c #100F15",
"#  c #0E1015",
"$  c #0F111A",
"%  c #131313",
"&  c #13151C",
"*  c #19171A",
"=  c #16181E",
"-  c #1C1B1C",
";  c #131623",
":  c #161924",
">  c #1A1C23",
",  c #161A2A",
"<  c #1A1D2C",
"1  c #191F31",
"2  c #1D222B",
"3  c #1D2234",
"4  c #1E253A",
"5  c #1F283D",
"6  c #232323",
"7  c #21232D",
"8  c #2B2B2B",
"9  c #212533",
"0  c #252933",
"q  c #282B36",
"w  c #21263B",
"e  c #242A3E",
"r  c #2A2C3B",
"t  c #302C30",
"y  c #2D313D",
"u  c #343434",
"i  c #3B363A",
"p  c #3D3D3D",
"a  c #242B43",
"s  c #282D45",
"d  c #262E49",
"f  c #282F4A",
"g  c #263046",
"h  c #2C3343",
"j  c #26314B",
"k  c #2A334C",
"l  c #2D3A4D",
"z  c #313542",
"x  c #353947",
"c  c #31354E",
"v  c #353B4B",
"b  c #393E4D",
"n  c #263050",
"m  c #2C3552",
"M  c #2E3955",
"N  c #2D3858",
"B  c #313653",
"V  c #333B55",
"C  c #393D54",
"Z  c #333C5A",
"A  c #383F59",
"S  c #3B404F",
"D  c #374056",
"F  c #3E4354",
"G  c #36415D",
"H  c #3B445D",
"J  c #3F4958",
"K  c #364362",
"L  c #3A4463",
"P  c #374965",
"I  c #3D4965",
"U  c #3A4668",
"Y  c #3E4B6A",
"T  c #454545",
"R  c #474748",
"E  c #4A454A",
"W  c #4A4A4A",
"Q  c #404556",
"!  c #41465B",
"~  c #444B5D",
"^  c #535353",
"/  c #5D555D",
"(  c #5B5B5B",
")  c #424C64",
"_  c #484E62",
"`  c #424E6B",
"'  c #425165",
"]  c #4C5166",
"[  c #43516D",
"{  c #4B546C",
"}  c #4F586F",
"|  c #434D70",
" . c #455372",
".. c #495674",
"X. c #475977",
"o. c #4B5976",
"O. c #475A78",
"+. c #4B5B79",
"@. c #535D74",
"#. c #585C71",
"$. c #515E7B",
"%. c #54627D",
"&. c #5A667D",
"*. c #59687F",
"=. c #636363",
"-. c #6B626A",
";. c #6D6D6D",
":. c #716870",
">. c #747474",
",. c #7A7A7A",
"<. c #80767F",
"1. c #566480",
"2. c #566582",
"3. c #5A6681",
"4. c #5D6680",
"5. c #586784",
"6. c #5D6B82",
"7. c #5B6A85",
"8. c #5A6D88",
"9. c #5D6C89",
"0. c #5E718C",
"q. c #616D86",
"w. c #606D89",
"e. c #616E8A",
"r. c #64718B",
"t. c #63718D",
"y. c #65738E",
"u. c #66748F",
"i. c #6A758E",
"p. c #627590",
"a. c #657491",
"s. c #6A7691",
"d. c #667993",
"f. c #6B7891",
"g. c #6D7B93",
"h. c #6A7995",
"j. c #6C7895",
"k. c #697C95",
"l. c #6B7C97",
"z. c #6C7C95",
"x. c #6E7C98",
"c. c #707C97",
"v. c #737C96",
"b. c #707E99",
"n. c #838383",
"m. c #8B8B8B",
"M. c gray57",
"N. c #939393",
"B. c gray59",
"V. c #9E929D",
"C. c #9C9C9C",
"Z. c #A497A3",
"A. c #A6A6A6",
"S. c #AAAAAA",
"D. c #B2B2B2",
"F. c #BDBDBD",
"G. c #C3C3C3",
"H. c #CBCBCC",
"J. c #D3D3D3",
"K. c #DBDBDB",
"L. c #E3E3E3",
"P. c #E4E4E4",
"I. c #E9E9E9",
"U. c #EBEBEB",
"Y. c #F4F4F4",
"T. c #FEFEFE",
/* pixels */
"O + + + O + + # # # # # # + + + + + + + + + + + + + + + + + + + + X .   . + + + + + # # # @ + + + + + + + + + + + + + + + + + o ",
"& e e e e s H v.z.v.b.z.w...H a a a a a a a a a e e e e a a a 3 + .     + j 4.b.b.b.b.s.%.` B a a a e e e e e e a a e e e e e 7 ",
"; e a a a k I z.h.k.k.k.8. .G a a a a a d g j k j k d s s a 3 + o ^ %   2 l *.k.k.k.k.p.%.` m a a a a d j k k k k f f d a a a 9 ",
"= e a a G v.t.o.o.+.+.+. .K M a a a a a o.f.g.j.g.j.&.o.l 3 + % m.m.o X ~ s.1.+.+.+.+...Y A j a a a a G 6.g.j.j.h.u.$.) s e a 3 ",
"= a a s H v.t.o.+.+.+.+. .K B a a a j m +.a.h.h.h.j.%...s + o M.I.B.- . 2 q.1.+.+.+.+...Y B : ; e d l I 7.h.h.h.h.t.+.I d e a 3 ",
"= a a a H v.t.+.+.+.+.+. .K B a a a } s.5.+.+.+.+.$.` L ; . ;.I.T.P.C.* X %.1.+.+.+.+...I , . . : V &.y.%.+.+.+.+...L Z a a a 3 ",
": V V V ) a.9.....+.+.+. .K B a a a ..x.5.+.+.+.o. .L k . 6 J.T.T.J.^ X = %.+...+.+.+...L + . - . h q.u.%.o.o.o...[ G V a d c h ",
"0 j.g.s.7.L L L Y +.+.+. .K B a a a o.z.5.+.+.+.` L n :   >.Y.T.L.^ o : V L U Y  .+.+...K X % M.% % &.u.%.o.+...Y Z d a a Z i.#.",
"0 h.d.a.5.K G A L  . ...Y A c a a a ) 6.$. .....I G d + % F.T.Y.>.o > o.` L G G ` ....A 3 . % J.W . F 5.o.....` G N a j M ) a.@.",
"7 $.+.+...K Z d m L L L V d a a a a j j Z L L L m d 3 . i P.T.J.8 + H o.Y K n j Z K K , .   - L.B.  ; m G K L Z j d d A y.t.+.) ",
"2 +.o.+. .K Z a j A A Z l a l G H G G G Y  .` Y m a ;   ,.Y.T.m.X e ..o.Y K n d M Z Z <   W C.Y.H.% + H [  .Y K j a d A f.y.+.H ",
"2 +.+.+. .K V a a d d d d d ` s.s.s.f.f.h.h.1.o.Z a $ . D.T.Y.R X H +.o.Y K j a d d d 3   =.I.T.I.8 o &.h.w.+.Y j e s G f.y.+.H ",
"2 +.+.+...K Z a a a d d B L +.y.a.t.t.a.a.a.$. .M a + o G.T.K.* # [ +.+.Y G j a s s s s X R Y.T.T.p   { 9.9.+.I j e a V 5.1.+.L ",
"2 +.+.+...K Z a a a d d ) s.7.+.+.+.+.+.+.+.` L k a X % J.T.H.% &  .+.+.Y H j a s s s l & 8 I.T.Y.p   V  ...Y G d a a k I ` o.H ",
"<  . . .` Z m a a a B ) +.r.1.o.o.o.+.+.+.+.` K k a X % J.T.G.% ; `  . .G V d a a j G ) = - K.T.Y.u   c [  .U Z d e a f V G [ G ",
"< U U L A d d a a d ) i.7.$.+.o.+.+.+.+.+.+.` K k e + % J.T.H.% + G L L n a a a a m $.&.# * K.T.K.- . H o. .U A d e a d d k L c ",
": Z Z Z m e e a a d ) v.w.+.+.+.+.+.+.+. . .K V s w + X D.T.I.8 . d Z V d a e a a M 5.%.. 6 I.T.G.X $ [ ..Y A m d a a a a d N s ",
"= d d d a a a s a s ) v.w.+.+.+.+.+.+.+.` L m d 4 $ X 6 D.T.T.>.. + , 4 e e e a s V 5.F   ^ Y.T.C.  3  .Y A k d a a s d a a d w ",
"2 ) ' ` I Z M s s s V +. .[  . . . . . .K V f 4 + X >.G.I.T.T.J.W o X # ; 3 w w a k H &   M.T.Y.( . l Y Z m d a a s a l ) ` ` C ",
"0 u.u.a.9. .L s e a d l V L L U L U U U M d a & . >.L.T.T.T.T.T.J.B.^ 6 . X X + ; 1 $   - J.T.K.6 + A A k d a a s s a V r.i.s.#.",
"0 0.w.w.5.` H a e a a d j M N N N N N V f a 3 . p K.T.T.T.T.T.T.T.Y.K.G.m.W 6 % . .   % M.Y.T.,.. : B m f a a a d l ) ..q.w.t.} ",
"2 +.+.+...L Z a a a a a d d d d d d d d a a ; . B.Y.T.T.T.T.T.T.T.T.T.T.I.K.H.D.M.>.( A.I.T.G.6   3 d a a a a a s D q.w.$.+.+.) ",
"2 X.o.o. .` L m k a s a a s e a a a a a a w + 6 J.T.T.T.T.T.T.T.T.T.T.T.T.T.T.T.Y.I.L.Y.T.I.^   $ a a a a a a a a G i.y.+.+.o.! ",
"2 O.o.o.o...` A V a a e e e e a a a a a a < . ,.Y.T.T.T.T.T.T.T.T.T.T.T.T.T.T.T.T.T.T.T.T.m.o X 3 a a a a a d a a H a.a.+.+.o.L ",
"2 +.+.o.+.+. .K Z a a e e a V { { { { { { 2 - H.T.T.T.T.T.T.T.T.T.T.T.T.T.T.T.T.T.T.T.T.C.-   h ' { { { { ' L V s L s.a.+.+.+.L ",
"2 +.+.+.+.+. .K Z a a e e a ) s.f.f.f.f.q.& W L.H.Y.T.T.T.T.T.T.T.T.T.T.T.T.T.T.T.T.T.G.8 %   ~ f.f.f.f.f.w.@.) j G a.a.+.+.+.L ",
"2 +.+.+.o.o. .K Z a a a V { $.9.8.9.9.9.~ X B.>.u n.Y.T.T.T.T.T.T.T.T.T.T.T.T.T.T.T.T.H.n.n.. q 9.8.8.8.9.1. .H g M +.%.+.+.+.L ",
"2 +.+.o.o.+. .K V a a s ) g.7.+.+.+.+.+.3 * S.-   W Y.T.T.T.T.T.T.T.T.T.T.T.T.T.T.T.T.Y.I.H.o & o.+.+.+.+...Y Z g k H ` +.+.o.H ",
"< ` [ [ [ ` I M k a a d ) v.9.o.o.o.o.[ # R n.X   =.Y.T.T.T.T.H.M.S.Y.T.T.T.T.T.T.T.T.T.T.K.% +  .+.+.+.+. .L Z d d m Z ` ` ` V ",
"> K K K K K V a a a a d ) g.7.o.+.+.+.H . ,.T .   M.T.T.T.T.D.u * - n.Y.T.T.T.T.T.T.T.T.T.K.* + [ +.+.+.+. .L Z d a a k H L L c ",
"; m m m M M k a a a a d V { [ ` ` | | s o M.*   % G.T.T.T.L.p .     * H.T.T.T.T.T.T.T.T.T.G.o # I ` ` ` ` Y Z n d a a d B B B s ",
"= a d d a a a a a a a a a d M K K L L : 6 m.o   W I.T.T.T.M.X         S.T.T.T.T.T.T.T.T.T.M.. : K L K K K A j s s a a a a a a 9 ",
"& a a a a d V { { { ..{ ) G Z m m m k + 6 C.% X A.T.T.T.Y.W         . D.T.T.T.T.T.T.T.T.T.(   3 m m m m m l d a a a a a d d a 9 ",
"= a e a e s H j.b.b.b.x.w.o.G a a a e X 6 J.B.C.I.T.T.T.I.8         % H.T.T.T.T.T.T.T.T.L.8 X 4 a a a a a a a a a a a d d d d 9 ",
"& a e a c { @.5.5.9.9.9.$.Y Z a a a e X % H.I.Y.T.T.T.T.I.-         u P.T.T.T.T.T.T.T.T.D.o $ e a a a l ) { { { { ' H V d s d 9 ",
"= a e s H v.t.o.+.+.+.+. .K m a a a d $ . ,.Y.T.T.T.T.T.Y.R         ,.Y.T.T.T.T.T.T.T.Y.(   . < a a d H q.z.x.x.x.t.$.` f s d 9 ",
"= a a d H b.t.o.+.+.+.+. .L M a a a H D X * S.T.T.T.T.T.T.S.*     u J.T.T.T.T.T.T.T.T.F.* * * X 3 l ) o.5.7.7.9.8.1. .L d s a 9 ",
"; f j k L j.w.o.+.+.+.+.| L M a a a o.j.h . 8 D.Y.T.T.T.T.Y.S.;.,.H.T.T.T.T.T.T.T.T.I.W . / E   3 D 6.y.%.o.o.o.o. .L Z d d j 0 ",
"2  ... .+.%.+.`  .+.+.+. .L M a a s o.x.+.2 . 6 n.L.T.T.T.T.Y.I.I.T.T.T.T.T.T.T.T.T.n.o t -.& $ e G 7.a.%.+.+.o.[ I N k d l { F ",
"0 k.j.k.9.K K K Y +.....` K m a a a { s.%.) 9 . % W M.J.Y.T.T.T.T.T.T.T.T.T.T.T.T.C.* % / - + w a V 3.w.$.o.+. .L V d d k H a.@.",
"9 8.5.5.$.K A N Z ` ` ` K M k a s a G [ [ ` k . . X % u ( M.F.K.Y.T.T.T.T.T.T.I.m.6 % W 6 + 4 s s l U ` [ [ ` I V l a M { $.5.{ ",
"2 o.+.+. .K N a k G G G m a s k k k k j G G $ X h y + . X % 6 u ( ;.>.>.;.,.=.p % * :.i . , g k l k k N L I L A d a a G j.a.+.H ",
"2 o.+.o. .K N a d l l l j a A } o.o.o.o.+.0 X x _ F X > 9   + + o o o + o % X . > <.V./   $ ) @.o.o.o.$.%.%. .L j a a G j.a.+.H ",
"2 +.+.o. .K N a a a a a g l { f.f.f.h.h.~ o 0 _ S = . v y   r F b z y r r y 7   - V.Z./ . + %.g.g.j.j.h.h.t.$.` j a a D u.t.+.H ",
"2 +.+.o. .K Z a a a a d V +.%.5.5.5.5.o.& & Q r + X r ~ >   = z Q ~ ~ ~ ~ ~ b # . -./ % . V %.5.5.5.5.5.5.%. .L j a a l ..+.o.H ",
"2 ......` K B a a a g l [ j.7.o.+.+.+.e . 2 : . X z _ ~ X . + X + & : : : = + . . % o   v q.%.o.+.+.+.+.o. .L Z d a a j Z P  .H ",
"< Y Y Y L m k a a d G @.%.5.%.+.+.+. .%   . . : b _ ] 2   : b q : + o X X + = y :     h @.1.+.+.+.+.+.+.+. .L Z s a a d l N Y V ",
": K G K V a a a a d ) x.w.o.o.o.+.+.) X + < x ~ ] _ r .   h ] _ ~ Q F F F F ~ _ z   . @.%.+.+.+.+.+.+.+.o. .L Z s e a a d k A c ",
"; k m m k a a a a s ) x.9.o.o.o.+.+.G . 0 ~ ] ] Q 2 .   . = Q ] ] ] ] ] ] ] ] ] ~ +   J %.o.+.+.+.+.+... .L N k d a a a d d k e ",
"= l l l k j s a a s I u.5.o.........H X 7 ] ] z #     X z # % q b ! ~ _ _ ~ ~ F z &   0 +.......o.o... .L Z d a a a a d l l k e ",
"7 &.%.%.@.I V a a d l L I Y Y Y Y Y L $ X v z X       + ! b = X X + % % & & # X . X . X g V G Y Y Y Y K M f d s a a a V $.%.%._ ",
"0 j.h.j.w. .) s a a a a m H G G G G G e . + +           2 ~ ! z 2 = # + + + # & 9 v 0   . X + V K K K V d a a d a d j H u.h.k.@.",
"2 1.%.%.+.I G d a a a a d j j j j j k j < + .           . = b _ ~ ~ ~ ! Q F Q ~ _ ] ~ r +   . a k k k j d a a s a V $.1.1.1.1.) ",
"2 +.X.o. .L Z a a a a a a s s a a a a a e 4 $               X 7 b ~ ] ] ] ] ] ] ] ] F 7 .   $ e a a a a a a a s s G u.u.+.+.o.H ",
"2 +.+.+.o. .Y Z m a a a a s s s a a a a a a ,                   X & < 0 z v v v r > + .   + w a a a a a a a a a d H a.a.+.+.+.H ",
"2 +.+.+.+.+. .K V a a a a s g j j j j j j f w                         . . X X X . .   X ; w s j j j j k k j f s d H a.a.$.+.+.L ",
"2 +.+.+.+.+. .K V a a a a d ) q.q.q.q.q.w.q.} %                             + ; ; : < 4 e V @.q.q.q.q.w.w.5.{ L d H a.a.+.+.+.H ",
"2 +.+.+.+.+. .K Z a a a d j { z.z.z.z.z.z.z.1.h                             s N d a a a g G 6.z.h.h.j.z.h.t.$.) j G y.t.+.+.+.H ",
"2 +.+.+.+.+. .K Z a a s I y.7.$.$.$.$.$.$.$.[ K +                           m A k a a V @.9.&.%.%.%.%.%.+.o.Y A j l I [ +.+.+.! ",
"2 +.X.o.+.o. .K V a a d ` b.9.+.+.+.+.+.+.+.Y L e X                         + e j a a V 5.u.%.+.+.+.+.+.+...U Z f k G I ..+.o.H ",
"> L L L U L A d d a a d ) b.w.+.+.+.+.+.+.+.Y L k 3 +                         , a a a V &.u.%.+.+.+.+.+.+. .U Z f a d m L L L B ",
"> K K K K K V a a a a d ` v.9.o.o.o.o.o.+.+.Y K l a 4 1 < +               X ; 5 a a a V 4.u.%.+.+.+.+.+.+. .L Z d a a k H K K c ",
"; d a a a a a a s s a a a d N L L L K K L L m d a d a a a w 3 < ; ; ; , 1 3 e a a a a a d m Z L L U U U L A f d a a a d d d a 9 ",
"= a e e e e e r r r e e e a l H H H H K K H k a a a a e e e e e w 9 9 e e e e e e r r r a j A L L L L L L A f a e e e e e e a 9 "
};
