/* XPM */
static char *_b8079911c914108d0f0c12d9bb71901hC1J512wZzCt6197[] = {
/* columns rows colors chars-per-pixel */
"64 64 205 2 ",
"   c #010102",
".  c #080706",
"X  c #05060A",
"o  c #06080D",
"O  c #0A0A0C",
"+  c #100E0F",
"@  c #14130F",
"#  c #070B13",
"$  c #0B0D13",
"%  c #0C0E1B",
"&  c #100F15",
"*  c #0D1014",
"=  c #0D111C",
"-  c #131314",
";  c #14151D",
":  c #1A1A19",
">  c #1C1B1C",
",  c #221F1B",
"<  c #0D1423",
"1  c #0E1728",
"2  c #0F192B",
"3  c #121523",
"4  c #151924",
"5  c #1A1B23",
"6  c #15162A",
"7  c #151B2C",
"8  c #191D2C",
"9  c #131D33",
"0  c #1A1B32",
"q  c #1E1E3A",
"w  c #1F2027",
"e  c #1D222C",
"r  c #162035",
"t  c #1D2334",
"y  c #16233C",
"u  c #1C253C",
"i  c #232324",
"p  c #2B2825",
"a  c #23232B",
"s  c #2C2C2C",
"d  c #302E2D",
"f  c #3C3729",
"g  c #212433",
"h  c #242933",
"j  c #2A2A33",
"k  c #21243D",
"l  c #252A3D",
"z  c #2A2B3B",
"x  c #2A303D",
"c  c #333333",
"v  c #32333E",
"b  c #3B3B3C",
"n  c #413C2E",
"m  c #474234",
"M  c #172440",
"N  c #192744",
"B  c #1A2845",
"V  c #1D2C4B",
"C  c #1F2F50",
"Z  c #222243",
"A  c #242B43",
"S  c #282D45",
"D  c #25264A",
"F  c #262D4A",
"G  c #282D4A",
"H  c #263047",
"J  c #2B3345",
"K  c #25314B",
"L  c #2A334C",
"P  c #2E394C",
"I  c #353644",
"U  c #3B3A44",
"Y  c #31354F",
"T  c #333C4E",
"R  c #3C3E4B",
"E  c #2A2B54",
"W  c #233353",
"Q  c #2C3552",
"!  c #2E3955",
"~  c #243559",
"^  c #26385E",
"/  c #2A3A5B",
"(  c #323455",
")  c #333B54",
"_  c #373856",
"`  c #333D5B",
"'  c #3C3C59",
"]  c #283C63",
"[  c #2A3D64",
"{  c #413F5B",
"}  c #3C4355",
"|  c #36415C",
" . c #3B445D",
".. c #2D4066",
"X. c #2E426C",
"o. c #374362",
"O. c #3B4564",
"+. c #3C4964",
"@. c #33466A",
"#. c #3B4668",
"$. c #3E4B6A",
"%. c #2F4571",
"&. c #314672",
"*. c #364C79",
"=. c #3A517F",
"-. c #434343",
";. c #4B4B4B",
":. c #554F48",
">. c #434453",
",. c #42455E",
"<. c #434A5B",
"1. c #48485A",
"2. c #4B4B5D",
"3. c #515151",
"4. c #585256",
"5. c #5D5D5D",
"6. c #605842",
"7. c #726955",
"8. c #7C7257",
"9. c #424B64",
"0. c #4E4F60",
"q. c #424E6B",
"w. c #514E60",
"e. c #465265",
"r. c #44516D",
"t. c #4A546D",
"y. c #595664",
"u. c #57596C",
"i. c #585A6E",
"p. c #455372",
"a. c #495775",
"s. c #475977",
"d. c #4A5976",
"f. c #485779",
"g. c #4B5B79",
"h. c #535C74",
"j. c #5B5D71",
"k. c #515E7A",
"l. c #625C65",
"z. c #556176",
"x. c #53627D",
"c. c #59647D",
"v. c #626262",
"b. c #696367",
"n. c #65636C",
"m. c #6C6C6C",
"M. c #756D6B",
"N. c #7E756E",
"B. c #6C6874",
"V. c #726E7A",
"C. c #737373",
"Z. c #74717C",
"A. c #7C7C7C",
"S. c #887C5E",
"D. c #84796A",
"F. c #887E71",
"G. c #9C8E6F",
"H. c #978A73",
"J. c #A79976",
"K. c #A49679",
"L. c #B2A37D",
"P. c #BAAA7F",
"I. c #3C5383",
"U. c #3E5788",
"Y. c #415A8D",
"T. c #445D92",
"R. c #556581",
"E. c #5A6680",
"W. c #5B6A84",
"Q. c #5D6C88",
"!. c #5E718C",
"~. c #466197",
"^. c #616D87",
"/. c #616E8A",
"(. c #64738D",
"). c #6A758D",
"_. c #7B7784",
"`. c #667591",
"'. c #697691",
"]. c #667993",
"[. c #6C7A95",
"{. c #6D7B99",
"}. c #717C97",
"|. c #707E98",
" X c #827E8B",
".X c gray52",
"XX c #84808D",
"oX c #8C8C8C",
"OX c #929292",
"+X c #9C9C9C",
"@X c #BEAD81",
"#X c #A3A3A3",
"$X c #ABABAB",
"%X c #B2B2B2",
"&X c #BABABA",
"*X c #C1B082",
"=X c #C5C5C5",
"-X c #C7C8C8",
";X c #CBCBCB",
":X c #D3D3D3",
">X c #DBDBDB",
",X c #E3E3E3",
"<X c #ECECEC",
"1X c #F4F4F4",
"2X c #FEFEFE",
/* pixels */
"+ $ $ $ + $ $ * * * * * $ O O                 X o O O O O O $ $ $ $ $ $ $ $ $ $ $ $ * * * & $ $ $ $ $ $ $ $ $ $ $ $ $ $ $ $ $ O ",
"; l l l l S  .}.|.[.z.x * X                             X $ ; 8 l l l l l L h.c.t.1.<.} T P l k l A l l l l l l A l l l l l l a ",
"3 l A S A L +.[.`.<.;     p v..X+X+XoXoX.XA.C.v.;.b i : O       $ t u 4 ; = ; * O           X $ 3 q A S L L L L K G F F A A A g ",
"; l A S | }.(.a.x X   - A.,X1X:X&X%X&X;X:X<X1X1X1X<X>X:X$Xm.s       X           - > s p : O         $ J E.[.[.[.[.).k.9.S l A t ",
"; A A S  .}.(.P X   c $X<X$X-.> - - - : : c oX1X2X2X2X2X2X1X>X#Xc   O s 3.C.OX$X=X:X>X>X:X&X+XA.;.-   O T (.[.[.[.(.g.+.S l A t ",
"; S A S  .}.x.$   c ;X2X:Xs                 : %X2X2X2X2X2X2X2X2X>X.XOX:X2X2X2X2X2X2X2X2X2X2X2X2X<X$X-.O   x g.g.g.f.O.` A A A t ",
"5 ) ) ) 9.(.h   O $X2X2X&XO                   oX1X2X2X2X2X2X2X2X2X1X1X2X2X2X2X1X<X>X:X>X<X1X2X2X2X2X,X.X- X l p.f.r.| ) A S T S ",
"h [.[.'.W.o.$   -.<X2X2X:Xp                 + $X2X2X2X2X2X2X2X2X2X2X2X2X>X#XC.3.b c p s -.C.&X,X1X2X2X1X%Xs   J O.` F A A ` '.j.",
"h [.].`.R.!   O #X2X2X2X1X#X:               5.1X2X2X2X2X2X2X2X2X2X2X2X$Xs         o $ $ X     c +X1X1X;X;X$X: O S ! A K ! $.`.h.",
"8 k.g.g.f.L   : :X2X2X2X2X1X:X%X+XA.m.C.OX#X,X2X2X2X2X2X2X2X2X2X2X2X&Xi   o 3 7 S ( ) ) S 7 $   O ;.&X-.O b i   $ A S ` (.(.g.9.",
"5 a.d.g.p.S   s <X2X2X2X2X2X2X2X2X2X1X1X2X2X2X2X2X2X2X2X2X2X2X2X2X1Xm.  $ S G F Q ` ) Q F H L e X   > O   X       7 S ' [.(.g. .",
"4 a.g.g.p.8   5.2X2X2X2X2X2X2X2X2X2X2X2X2X2X2X2X2X2X2X2X2X2X2X2X2X,Xb   8 | K A S S S S A ) x.(.e.-     J <.4     4 A ` [.(.g. .",
"4 a.g.g.p.$   oX2X2X2X2X2X2X2X2X2X2X2X2X2X2X2X2X2X2X2X2X2X2X2X2X2X:X:   l | K A S S S J ) q.W.).(.h.z h x.Q.p.J 7 k S ) E.x.g.+.",
"5 a.g.d.p.    %X2X2X2X2X2X2X2X2X2X2X2X2X2X2X2X2X2X2X2X2X2X2X2X2X2X%XO X P  .L A S S S ) x.(.x.g.g.g.g.g.g.d.$.| F A S L +.q.d. .",
"8 p.p.r.+.    =X2X2X2X2X2X2X2X2X2X2X2X2X2X2X2X2X2X2X2X2X2X2X2X2X2XOX  O L ! F A A L | e.E.Q.x.g.g.g.g.g.g.p.#.` F l A G ) | r.| ",
"8 #.#.O.L     ;X2X2X2X2X2X2X2X2X2X2X2X2X2X2X2X2X2X2X2X2X2X2X2X2X1XC.  = F S A A A ! k.(.R.g.g.g.g.g.g.g.g.p.#.` F l A S F L +.Y ",
"4 ) ) ) t   O >X2X2X2X2X2X2X1X:X;X,X2X2X2X2X2X2X2X2X2X2X2X2X2X2X<Xv.  = F A l A A ! E.'.R.g.g.g.g.g.g.d.f.$.` Q S A A S S F ! S ",
"; F S F 3   : ,X2X2X2X2X,XOX;.s : s c m.=X2X2X2X2X2X2X2X2X2X2X2X1X3.  = A l l l S ) E.'.R.g.g.g.g.g.g.f.$.` L S A A S S A A F k ",
"e 9.e.q.e   s ,X2X2X2X1X5.              : +X1X2X2X2X2X2X2X2X2X2X<X-.  e | ) S A A L 9.a.r.r.p.p.p.q.q.$.` Q S A A S A L 9.q.q._ ",
"h ).).`.x   c >X2X2X1X.XO                 : =X2X2X2X2X2X2X2X2X2X,Xb   I g.r.L A A S L Q | O.O.+.+.+.O.` L S A A S S A ) (.'.'.h.",
"h !./.W.;   s >X2X2X,Xb                     .X2X2X2X2X2X2X2X2X2X,Xc   T 9. .L A S A A S Q ! ! ) ) ) ( Q G A A A S L 9.a.^.^.Q.t.",
"e g.g.|     p ;X2X2X,Xs                     .X2X2X2X2X2X2X2X2X2X,Xc   O   X % 0 A S A S S S S S S S S S S A A S S | ^.^.k.g.g.9.",
"e p.r.t     O #X2X2X1XoXO                 - =X2X2X2X2X2X2X2X2X2X;X>             % t A A A l l A S S A A A A A S A | '.(.g.d.d.,.",
"e $.+.*       m.1X2X2X1Xm.O             O .X1X2X2X2X2X2X2X2X2X2X%XO   $ 3 $       X t A A A A A S S A A A A S S A  .`.`.g.g.d.+.",
"e +.| o       -.<X2X2X2X<XOXb : O O   s +X1X2X2X2X2X2X2X2X2X2X2X%XO     u D q $       8 A L +.t.t.t.t.t.t.e.+.) F o.`.`.g.g.g.+.",
"e  .| X   -   > &X2X2X2X2X1X<X:X%X$X%X>X1X2X2X2X2X2X2X2X2X2X2X2X=Xi     X D E G m m O X u ) x.[.(.z.c.`.[.^.k.9.L  .`.`.g.g.g.+.",
"e  .| X   p     5.<X2X2X2X2X2X2X2X2X2X2X2X2X2X2X2X2X2X2X2X2X2X2X<X5.      X G ( L.P.6.  ; a.E.t.g   ; t.Q.x.r. .H ! g.x.g.g.g.+.",
"e +.| O   c c   O .X1X2X2X2X2X2X2X2X2X2X2X2X2X2X2X2X2X2X2X2X2X2X2X;Xs       < ( J.*XJ.O   } x $       h  .P t t A L  .q.d.g.d. .",
"8  .| $   a Z.i   - +X1X2X2X2X2X2X2X2X2X2X2X2X2X2X2X2X2X2X2X2X2X2X2X=Xb       6 4.G.D.O   o   i A.-.  X O       8 S Q ` q.q.q.) ",
"5 ` ) ;   > _.B.-   : oX1X2X2X2X2X2X2X2X2X2X2X2X2X2X2X2X2X1X1X2X2X2X2X,X.Xi       O O       ;.;X1XC.O : c p   X t A A L  .+.O.Y ",
"4 Q Q 8   - _. XB.a   O 3.$X,X1X2X2X2X2X2X2X2X2X2X2X2X2X,XA.5.:X2X2X2X2X1X:X.X-.p i c -.v.+X,X2X2X&XoX;X-Xb   3 A A A S ( ( ( S ",
"; S S 8   O n. X X_.R O     - -..X&X>X<X<X,X,X>X;X%X.X-.-     > =X2X2X2X2X2X2X1X,X<X1X1X1X2X2X2X2X2X1X:X3.  $ l S A A A A A S t ",
"; k k =     b  XXX XV.$ X           O O O O                     : v.%X<X2X2X2X2X2X2X2X2X2X2X2X2X2X1X#Xc   = l A A A A A S S S t ",
"; t 8       X y.XXXXV.O   = 7 $ X                     X # 3 =       O 3.#X,X1X2X2X2X2X2X2X2X1X1X;Xv.O   = u A A A A A S S S S g ",
"; 7 4         > _.XXZ.    < N N y y y K W =   % y y y N N N N %           i 5.#X=X,X>X:X;X=X.X} -   $ t 9.t.t.t.t.e. .) S S S g ",
"; 3 =     O     j _.Z.:   1 B N N N B [ X.=   < B N N N N B W 3   = 9 $         O : p p > O     X 7 l  .^.[.{.{.{.(.k.q.G S S g ",
"; 3 =     j O     U B.>   1 B B B N B ] %.u   1 B B B B N B [ r   < N V ~ 7 X                   O L 9.d.E.W.W.Q.Q.R.p.+.F S S g ",
"3 8 4     I 1.;     : -   1 B B B N N ^ &.~ X 1 N B B B N C %.B   = B W =.T./   3 Z Z Z 4.S.f   o ) E.(.x.d.d.d.d.p.+.) S S L h ",
"e T J     z j.2.a X       = N B B N N ~ &.] X < N N N B N ~ =.~   $ M ~ U.~./   6 E E ( K.*XS.    L W.`.x.g.g.d.r.+.! L S L t.} ",
"h W.c.*   ; u.j.u.1.j X   # N N B B N V u =     # 1 y N N W I.%.# X y [ I.T.~   3 E E E N.@X8.    L E./.k.d.g.p.+.! F F L  .`.h.",
"g W.E.)     z u.j.j.u.R   X y N B N 7 X             X < y V I.I.=   B X.X.Y.W   6 E E E _ 4.:   X S +.q.r.r.q.+.) L A ! t.k.W.t.",
"e d.d.r.$     z u.j.j.j.-   9 N B 7       X % < $       # y *.~.7 X ~ X.X.[ r   0 E E E E Z     $ L L ! +.+.O.` F A A | [.`.g. .",
"e d.d.| X       5 U >.1.;   < V B #     3 D E E E D 6     # ..T.K   u ] ~ B 1   6 E E E E 0     e d.d.k.x.x.p.+.L A A | [.`.g. .",
"e g.g.T   O -               # B B #     D E E E E ( b.:..   W Y.=.= # N N r %     6 E E E 3     T [.[.[.[.(.k.q.L A A | ).(.g. .",
"e g.g.)   - 0.U 5 O X X     X y N $   X E E E E E w.@XP.p   B I.Y./   # 7 $       X Z E E $     <.W.W.W.W.x.p.+.J A A L a.g.d. .",
"e f.a.+.X   1.i.u.0.0.0.>.$   1 N <     Z E y.b.( 1.L.J.,   y X.*.I.u       $ 0 X   % D q     O r.g.g.g.d.p.O.` S A A L ` +.p. .",
"8 $.$.O.$   5 i.j.j.j.j.j.j   o N 9 X   % ' L.@Xl.E { I     B [ W ~ / X   0 D E 3     q $     h d.g.g.g.g.p.O.` F A A S L ! $.) ",
"4 o.| G       x u.j.j.j.j.>.    9 N 1     5 K.@Xy.E Z X   o ~ W B B 1   X D E E Z     X     O +.g.g.g.g.d.p.O.) F l A S S L ` Y ",
"3 L Q 7         $ 5 a a 5 O     # N M =     : d $ X       y V N N 9     0 E 2.' E %         l s.g.g.g.a.p.O.! L S A A S S F L l ",
"; L L 4                           2 B N 9 =           o 9 N N N 1     3 E { K.N.( 0       l p.a.a.a.a.p.O.) F A A A A S Q Q L l ",
"a c.x.}     ; R R v a w j U 2.5   X y ] [ [ [ / F 3 % 1 M B N =     % D E ( b.w._ R O   l +.$.$.$.$.$.o.Q G S S A A A ) k.x.x.9.",
"h [.[.(.*   X >.i.j.j.j.j.j.j.>.    = [ X.[ ~ *.Y.@.7 = = 1 %       3 D E E E E F.P.m   l o.o.o.o.o.o.` F A A S A S L  .).[.[.h.",
"e R.x.x.l     O I u.j.j.j.j.j.1.X     3 V B N V X.&.< $     O 5 O   X k 1.F.y.E K.*X7.  t L L L L L L L S A A S A ) k.R.R.R.R.9.",
"e g.s.d.$.4       > z I U v a $ X - o   $ 9 y N y <   $ g J  .r.J X   $ 7.@XK.( F.J.f   8 S A A A A A A A S A S A | ).).g.g.d. .",
"e g.g.g.d.)                 X 6 G E E 6     X o X   $ e.x.g.g.g.d.J     f J.G.( ( a     t A A A A A A A S A A S S  .`.`.g.g.g. .",
"e g.g.d.g.l   0 D Z q 0 q Z D E E E E E 0       X = e.[.R.g.g.g.g.f.P O   @ : $ X     $ A S S L L L L L L L G S S  .`.`.k.g.g.+.",
"e g.g.g.g.g   k E E E E E E E E E E E E _ 3.n + 8 A c.{.R.g.g.g.g.g.f. .4 X         $ t A ) h.^.^.^.^.^.^.E.t. .F  .`.`.g.g.g. .",
"e g.g.g.g.)   $ E E E E E E E E E E E E y.L.L.6.O u c.{.R.g.g.g.g.g.g.g.a.| t 4 3 8 l A H | E.[.[.[.[.[.[.(.k.9.L | (.(.g.g.g. .",
"e g.g.g.g.r.4   % D E E E E E E E 1.l.' 2.L.P.8.  3  .q.a.g.g.g.g.g.g.g.g.f.#.` L A A ) k.^.x.x.x.x.x.x.k.d.$.` K L +.r.g.g.g.,.",
"e g.s.d.g.a. .=   X q E E E E E E N.L.M.( l.D.U   ; ) | p.a.g.g.g.g.g.d.g.f.#.` L A A ) c.).x.g.g.g.g.g.g.p.#.` G L | +.a.g.d. .",
"5 O.O.O.#.O.` u =     $ 6 D E E E y.H.l.E D 6 O   t S F | O.#.O.O.O.O.O.O.o.Q A A A S ) c.).x.g.g.g.g.g.g.p.#.` G A F Q +.O.O.( ",
"5 O.o.o.O.o.) A l 4 O       X $ 3 8 a 4 $     $ e A A A ` o.O.o.o.o.o.o. .| K A A A S ) E.).x.g.g.g.g.g.g.p.O.` F A A L  .o.o.Y ",
"3 F S S S S S S S S k 8 = o               X 4 u A S S S S S S F A S S F S A A A A A A A F Q ` O.O.#.#.#.O.` G F S S S S F F S g ",
"; A l l l l l l l l l l l u S J l t t l L ) L A S S A l l l l A l l l A l l l l l l l l S L ` +.O.O.O.O.+.` G A l l l l l l A g "
};
