/* XPM */
static const char *UGVyc29fNF9T[] = {
/* columns rows colors chars-per-pixel */
"64 64 207 2 ",
"   c #010102",
".  c #05060A",
"X  c #06080D",
"o  c #0A0B0C",
"O  c #100E0F",
"+  c #15130F",
"@  c #070A12",
"#  c #0C0D13",
"$  c #0C0E1A",
"%  c #100F15",
"&  c #0D1014",
"*  c #0E111B",
"=  c #131314",
"-  c #13151C",
";  c #17181A",
":  c #1B1B1B",
">  c #211F1D",
",  c #2C281F",
"<  c #0E1422",
"1  c #0F1728",
"2  c #0F182A",
"3  c #131523",
"4  c #151924",
"5  c #1B1D24",
"6  c #16162B",
"7  c #131A2C",
"8  c #1A1E2C",
"9  c #141D33",
"0  c #1B1C34",
"q  c #1D1D3A",
"w  c #1C212C",
"e  c #162136",
"r  c #1D2235",
"t  c #16223B",
"y  c #1C253A",
"u  c #232324",
"i  c #22232C",
"p  c #28272C",
"a  c #2C2C2C",
"s  c #332F2E",
"d  c #212534",
"f  c #252933",
"g  c #2B2B32",
"h  c #21253A",
"j  c #252A3E",
"k  c #2A2A3C",
"l  c #302F34",
"z  c #2F3037",
"x  c #2E303B",
"c  c #333333",
"v  c #373639",
"b  c #3B3B3B",
"n  c #423D30",
"m  c #4F493A",
"M  c #192743",
"N  c #1A2845",
"B  c #1D2C4B",
"V  c #222345",
"C  c #242B43",
"Z  c #292D44",
"A  c #25264B",
"S  c #262C4A",
"D  c #2A2D4B",
"F  c #2A3345",
"G  c #25314B",
"H  c #2A354A",
"J  c #2A324C",
"K  c #343540",
"L  c #363842",
"P  c #3D3B43",
"I  c #31354F",
"U  c #323A4C",
"Y  c #3C3D4B",
"T  c #272954",
"R  c #2B2C55",
"E  c #2D2E59",
"W  c #223152",
"Q  c #2C3552",
"!  c #2E3954",
"~  c #26375B",
"^  c #26385C",
"/  c #2B385A",
"(  c #323454",
")  c #333C55",
"_  c #393E55",
"`  c #343459",
"'  c #343D5B",
"]  c #3B3B5A",
"[  c #2B3E64",
"{  c #2C3F68",
"}  c #363F62",
"|  c #364057",
" . c #3D4255",
".. c #35415C",
"X. c #3B445D",
"o. c #2E426C",
"O. c #374462",
"+. c #3B4563",
"@. c #3C4A64",
"#. c #31456E",
"$. c #3B4668",
"%. c #3E4A69",
"&. c #334A76",
"*. c #374D7C",
"=. c #444444",
"-. c #44434B",
";. c #4B4B4B",
":. c #5E5746",
">. c #434453",
",. c #4C4A53",
"<. c #43445D",
"1. c #474858",
"2. c #4B4B5D",
"3. c #514E57",
"4. c #514E5F",
"5. c #535353",
"6. c #57545B",
"7. c #5C5C5C",
"8. c #625A44",
"9. c #6B645D",
"0. c #7A725F",
"q. c #434C64",
"w. c #424E6B",
"e. c #4D5163",
"r. c #43516D",
"t. c #4A576A",
"y. c #4B556D",
"u. c #525264",
"i. c #57596C",
"p. c #595968",
"a. c #465473",
"s. c #4A5674",
"d. c #475977",
"f. c #4B5976",
"g. c #475A78",
"h. c #4C5B79",
"j. c #535D74",
"k. c #5B5D71",
"l. c #515E7A",
"z. c #615E66",
"x. c #53627D",
"c. c #5B657E",
"v. c #626262",
"b. c #6A6568",
"n. c #6C6A6A",
"m. c #756E6B",
"M. c #7C746D",
"N. c #6C6A77",
"B. c #726F7A",
"V. c gray45",
"C. c #76727F",
"Z. c #7C7C7C",
"A. c #82796E",
"S. c #877D70",
"D. c #978B6E",
"F. c #8B8171",
"G. c #958A73",
"H. c #9E9277",
"J. c #A59879",
"K. c #A59979",
"L. c #AEA17B",
"P. c #B2A47D",
"I. c #B6A97F",
"U. c #B9AA7F",
"Y. c #3D5686",
"T. c #405788",
"R. c #425A8D",
"E. c #445D92",
"W. c #566581",
"Q. c #5A6681",
"!. c #566882",
"~. c #5B6984",
"^. c #5C6C89",
"/. c #486198",
"(. c #616D86",
"). c #616E8A",
"_. c #64738E",
"`. c #7A7682",
"'. c #7C7986",
"]. c #7F7B88",
"[. c #657491",
"{. c #697591",
"}. c #6B7A94",
"|. c #697996",
" X c #6C7A95",
".X c #6D7C99",
"XX c #717C96",
"oX c #727E98",
"OX c #827E8B",
"+X c #848484",
"@X c #84808D",
"#X c #8B8B8B",
"$X c #949494",
"%X c #999999",
"&X c #A4A4A5",
"*X c #ABABAB",
"=X c #B4B4B4",
"-X c #BDBDBD",
";X c #C2B283",
":X c #C4C4C4",
">X c #CBCBCB",
",X c #D3D3D3",
"<X c #DCDCDC",
"1X c #E4E4E4",
"2X c #EBEBEB",
"3X c #F3F3F3",
"4X c #FFFFFF",
/* pixels */
"O # # # O # # & & & & & & & # # # # # # # # # # # # # # # # # # # # # o # # # # # # & & & % # # # # # # # # # # # # # # # # # o ",
"- j j j j Z X.XXoXoXoXXX).s.X.Z C C C C C C C C j j j j C C C h 8 4 3 4 0 F c.oXoXoXoX{.x.w.( C C C j j j j j j j j j j j j j i ",
"3 j C Z C H @.{.c.t.i.~.!.a...C C C C C Z F F J G G S Z j y 4 #           & <.}..X.X.X[.x.w.Q Z Z Z Z Z F J J J J D D S C C C d ",
"- j C Z ..XXx.4 .     . 4 ! ! C C Z Z C s.{.}. X X Xc.y.r X                 X ) h.h.h.f.%.' J C C C C ..~.}. X X X_.l.q.Z j C r ",
"- C C Z X.j.&   X g b O   4 Q C C C F Q h.[.}.}.}. Xh.f .     @ 6 V V h 8 .   - a.h.h.f.%.' D C C Z J @.~.}.}.}.}.[.h.@.Z j C r ",
"- Z C Z ) 5   $ D S.P.5.  X J C C C y.{.!.h.h.h.h.h.d     X k 1.( R ` A.G.P . . @.h.h.a.%.' J C C ) ~._.x.h.h.h.h.a.$.' C C C r ",
"4 ) ) ) w   # A R z.F.1.  . J C C C s..X~.h.h.h.s.H     # >.J.J.b.T p.P.P.9.X . | h.h.a.%.' J C C | (._.x.s.s.s.a.r...) C Z U F ",
"f  X}.j.o . V R R R ` D   . F r h h y. X~.h.h.h.+.#   X D A.U.P.M.R p.P.J.,.    ) h.h.f.%.' J C C | (._.x.s.h.a.%.' S C C ' {.k.",
"f }.[.k   3 R R R R n.G.,   .   . # d e.h.a.a.a.F     0 R m.L.G.] R ( 4.<.q   . ) f.f.r.+.) F C C ) l.W.s.a.a.w.O.! C G ) q.[.j.",
"i l.@.X   V R R R ( H.U.8.        .   . & 4 - 4 #   . A R ` <.] R R R R T $   . Q +.+.} Q C C C C Z G Q ..O.$.' G Z Z ' _._.h.q.",
"w h.H   # T R R R R M.J.n   . 1 e e <   X           X A R R T R <.b.<.R A X   & Q ' ` Q S Z ) ........@.r.a.%.O.G C Z ' {._.h.X.",
"w h.w   6 R R R R R ( i   @ t M t t *       @ X     . A R R R R 4.S.2.E 0     4 j C Z C C ) x.{.{.{.{.{.}.).h.%.F j Z ..{._.h.X.",
"w h.4   0 T T A A A D #   e N 2 .                 .   # 0 R R R Q ] ( A @     X # # 3 h ) w.Q._._._.[.[.[.^.h.@.F j C ) W.W.h.+.",
"w h.-   X q $ . . X #   7 { M       > g 4 $       @ 7 .   q R R R R R *               . U ).c.h.h.h.h.h.h.f.%...S C C J @.w.s.X.",
"w a.w                   B ^ @   X P J.J.<.( s o   . t 9 .   3 V A V 3     . 3 6 < # o   X U h.h.h.h.h.h.h.a.$.' S j C D ) ..r...",
"5 $.Q .     . ; p -   . N 9     0 u.L.J.2.F.P.:.  . B #.7       X .     $ A E E ` b.0.n . . F s.h.h.h.h.h.a.$.' S j C Z S J +.I ",
"4 ` F .   = 1.i.i.X   * N 2   X A ` u.<.] J.P.D.=   G R.S             @ A R R R 2.P.I.L.m   . F h.h.h.s.a.%.' Q Z C C Z Z S ! Z ",
"- S 4     Y k.k.u..   9 N 7   . A R T T ( A.P.D.o   G R.y   e 9 @     V R R R R ` F.P.P.9.X   X ..s.h.a.%.' J Z C C Z Z C C S h ",
"w q.5   o u.k.k.1.    t N 9     q R R R R ` z.P     Q E.3 . [ o.~ X   3 R R R R T D =.a # .       Z %.%.' Q Z C C Z C J q.w.r._ ",
"f _.5   5 2.Y u =   . M N t .   $ T R R R R A @   . #./.< . ~ o.o.[ X   q R A 6 # .                 # 5 h Z C C Z Z C ) _.{.{.j.",
"f ^.4   4 #         X M N M $     0 T R T V $     1 *.E.3   e [ *.R.Q   @ 0 X     . = u p a p : o         # 0 C Z J q.s.(.).).y.",
"w h.4         5 i   @ N N M t .     $ 6 * .     # M &.Y.e   7 B &.E.R.*       X c +X>X2X3X3X3X2X<X&Xv .       $ j ..(.).l.h.h.q.",
"w d.F     = >.i.x   @ B N N M 9 @             $ t N #.Y.t   7 N ~ Y.T.*     a $X<X4X4X4X4X4X4X4X4X4X3X-Xv.=     - ..{._.h.h.s.<.",
"w g.j     Y k.k.K   @ B N N M B [ e .   . * 9 M M M [ *.M   < N B [ 9     b <X4X4X4X4X4X4X4X4X4X4X4X4X4X4X*Xo   . H [.[.h.h.s.+.",
"w d.-   - i.k.k.Y   X B N N N B o.*.S   1 M M N N M B o.B   @ M M 4   . v.2X4X4X4X4X4X4X4X4X4X4X4X4X4X2X2X,Xb     h {.[.h.h.h.+.",
"w %.X   K k.k.e.x   X N N N N N ~ &.[   < M N N N N N ^ W .   9 $   . v.3X4X4X4X2X=X$X$X&X=X>X1X3X3X3X7.= : o     h _.[.h.h.h.+.",
"w )   . 1.i.K X     X M N N N M W o.#.# @ M N N N N M B B X   .     ;.2X4X4X3X-Xu .       . o : b +X*Xu   # - - 3 F h.x.h.h.h.+.",
"w j   o e.g     X   . M N N N M B o.o.#   9 N N M y e 7 1 X       v 1X4X4X4X$Xo     + ; # @               j ..) Z J X.w.h.h.s.X.",
"5 h   X f     4 >..   t N N N M B [ o.$ . 3 8 @                 o =X4X4X4X,X=     u F.n.R T D 0 X       . ) $.' Z Z Q ' w.w.w.) ",
"5 F .       ; e.u.#   7 N N N M N ^ / 3 .             o : a c c &X3X4X4X1Xa     3 R ] ( R b.H.n.*   # h ) a.$.' Z C C G X.+.+.I ",
"4 Q 4     # 2.k.i.5   * N N N M e 3 .     . = a 7.$X-X<X1X2X3X3X4X4X4X4X$X    # A R R T R G.U.J.=   w %.w.%.` Q Z C C Z ( ( ( Z ",
"- Z 8     K k.k.k.k   . t N M 4 o   o u v Z.:X3X4X4X4X4X4X4X4X4X4X4X4X1Xc   X V R R R R R M.;XD.o . Z +.+.' F Z Z C C C C C Z r ",
"- C &   o 2.k.i.1.x     7 y -   = b.-X2X4X4X4X4X4X4X4X4X4X4X4X4X4X4X4X:X.   0 R R R R R R ] 3.>   # J Q Q Q Z C C C C C Z Z Z r ",
"- C X   5 i.u.p .       * #   v -X3X4X4X4X4X4X4X4X4X4X4X4X4X4X4X4X4X4X#X    A R R R R R R T $     8 C C C C C C C C C Z Z Z Z d ",
"; h .   K 1.=     = = . .   ;.<X4X4X4X4X4X4X4X4X4X4X4X4X4X4X4X4X4X4X4X$X    A R R R R R A 3     & j C H q.y.y.y.y.r.X.) Z Z Z d ",
"- r .   f #   . P B.3..   c 1X4X4X4X4X4X4X4X4X4X4X4X4X4X4X4X4X4X4X4X4X-X=   A R R R T q $     # h C Z X.(..X.X.X.X_.l.w.D Z Z d ",
"- r     .   . ;.OXOX-.  o *X4X4X4X4X4X4X4X4X4X4X4X4X4X4X4X4X4X4X4X4X4X2X=.  q R R A $       # h C J q.s.W.~.~.^.^.W.a.+.S Z Z d ",
"3 Z X     . 3.].@XC.=   5.3X4X4X4X4X4X4X3X1X1X2X4X4X4X4X4X4X4X4X4X4X4X4X%X  @ * @       . 8 Z j C | ~._.x.s.s.s.s.a.+.` Z Z F f ",
"w s.j     p ].@XOX-.  o =X4X4X4X4X4X2X*Xv.p : =.$X2X4X4X4X4X4X4X4X4X4X4X,X=           - J ' F j C ..~.[.x.h.h.s.r.@.! J Z J y. .",
"f .X .    6.@X@X].u   c 1X4X4X4X3X*Xc o         . 7.3X4X4X4X4X4X4X4X4X4X2X=.    . 4 ) w.@.' F C C ' Q.).l.h.h.a.+.! S S J X.[.j.",
"d ~.w   ; C.@X@X'.;   5.3X4X4X4X=X=                 +X4X4X4X4X4X4X4X4X4X3X#X. . J w.w.@.' Q Z Z Z J @.w.r.r.w.@.) J C ! r. .t.t.",
"w r.#   P OX@X@X'.;   7.3X4X4X1Xc                   =.3X4X4X4X4X4X4X4X4X4X,X:   r ....' J C F H J J J ! +.@.$.' y y C ) Y . &  .",
"w X..   ,.@X@X@X'.;   7.3X4X4X*X                    ;.3X4X4X4X4X4X4X4X4X4X3X5.  # F Q J Z J q.j.s.s.s.h.x.x.r.w . X 5 4     X _ ",
"w )     ,.@X@X@X'.;   7.3X4X4X$X                  o $X4X4X4X4X4X4X4X4X4X4X4X$X    8 C Z F ..Q.}.}.}. X}.}._.U         . = . & ..",
"w |     ,.@X@X@X'.;   7.3X4X4X:X=                 v.3X4X4X4X4X4X4X4X4X4X4X4X1X:   # j H q.l.c.~.~.~.~.~.~.q.#   ;.p   b 7.. j X.",
"w |     -.OX@X@XOXu   =.2X4X4X3X$X=         o p V.2X4X4X4X4X4X4X4X4X4X4X4X4X4XZ.. . h ..c._.x.h.h.h.h.h.@.-   c ,X=X#X-Xu X X.X.",
"5 '     v OX@X@XOXz   p <X4X4X4X4X>X7.a v =.#X2X4X4X4X4X4X4X4X4X4X4X4X4X4X4X4X<X:   5 h.W.W.h.h.h.h.s.X.-   c ,X4X4X3XV.  3 @.) ",
"4 ' X   ; '.@X@XOX1.  o -X4X4X4X4X4X3X2X2X2X4X4X4X4X4X4X4X4X4X4X4X4X4X4X4X4X4X3XZ.. . U q.r.r.%.X.U w X o b.,X4X4X4X&X=   h ' I ",
"3 J -     z.OX@X@Xv.X . +X3X4X4X4X4X4X4X4X4X4X4X4X4X4X4X4X4X4X4X4X4X4X4X4X4X4X4X<Xc     o # # # X . o c %X2X4X4X4X-Xp   4 S J j ",
"; J h     g OX@X@X`.-   =.1X4X4X4X4X4X4X4X4X4X4X4X4X4X4X4X4X4X4X4X4X4X4X4X4X4X4X4X:X;.= .   o : v 7.&X2X4X4X4X4X*X:   # F Q H j ",
"i c.x.d   . p.OX@XOXx   = =X4X4X4X4X4X4X4X4X4X4X4X4X4X4X4X4X4X4X4X4X4X4X4X4X4X4X4X4X3X,X:X-X:X,X1X3X3X4X4X3X,X+Xu   # Z l.x.x.q.",
"f  X}.Q.o   # B.OX@X4..   V.3X4X4X4X4X4X4X4X4X4X4X4X4X4X4X4X4X4X4X4X4X4X4X4X4X4X4X4X4X4X4X4X4X4X4X4X3X3X>XV.p     # C X._.}..Xj.",
"w W.x.x.U     p '.OXN.-   a 1X4X4X4X4X4X4X4X4X4X4X3X,X:X*X:X3X4X4X4X4X4X4X4X4X4X4X3X3X3X3X3X3X<X>X*X+X;.: .   . 3 U l.W.W.W.W.q.",
"w h.d.s.a.8     l `.OXL   o &X4X4X4X4X4X4X4X3X<X%X5.p : . = +X3X4X4X4X4X4X4X4X4X:X7.;.7.5.=.c p : o .     . & r C .._._.h.h.s.X.",
"w h.h.h.s.w.&     l `.N.#   u <X4X4X4X4X4X2XZ.=             o :X4X4X4X4X4X4X4X1Xv                   . & 7 y C Z Z X.[.[.h.h.h.X.",
"w h.h.h.h.h.@.&     u 6.g     $X4X4X4X4X3Xn..                 $X4X4X4X4X4X3X=X=..   - - - 3 7 r r h Z F F F D Z Z X.[.[.l.h.h.+.",
"w h.h.h.h.h.a.) -     . : .   a <X4X4X4X,Xu                 = =X4X4X4X3X,XV.:     3 C C C ) j.(.(.(.(.).).W.y.X.S X.[.[.h.h.h.X.",
"w h.h.h.h.h.a.+.Q 3 .           5.2X4X4X<Xp               = #X3X4X3X-X7.u     # r C C C Z ..~.}.}.}. X}.}._.l.q.F .._._.h.h.h.X.",
"w h.h.h.h.f.a.+.` C r - # .     . V.1X4X3X+X= . . = p 5.$X>X2X>X#X=.:     # r Q F C C ) l.^.c.x.x.x.x.x.l.s.%.' G J @.r.h.h.h.<.",
"w h.d.s.f.f.a.+.) Z C Z X.t.w .     =.:X3X3X=X#X#X=X<X3X,X$X=.=     . - F %.$.' F C C ) W._.x.h.h.h.h.h.h.a.$.' D J ..@.f.h.s.X.",
"5 $.$.$.$.$.' S Z C C Z w.oX~.@.4     o b #X:X<X>X*XV.c : .   . # w J ..$.+.Q C C C Z ) Q._.x.h.h.h.h.h.h.a.$.' D C S Q +.$.$.( ",
"5 +.O.+.+.+.) C Z C C Z w.XX^.s.w.f #       o =         . - 8 Z ' +.+.+.X...G C C C Z ) Q._.x.h.h.h.h.h.h.a.$.' S C C J X.+.O.I ",
"3 S Z Z Z Z Z Z Z Z Z C Z S / $.$.+.) h & X . . X # & 7 y C Z S C Z Z S Z C C C C C C C S Q ' $.$.$.$.$.$.' D S Z Z Z Z S S Z d ",
"- C j j j j j k k j j j j C J X.X.X.X.X.' Z 8 w r j C j j j j j j j j C j j j j j k k k C F ' +.$.$.$.$.+.' D C j j j j j j C d "
};
