/* XPM */
static const char *UGVyc29fM19T[] = {
/* columns rows colors chars-per-pixel */
"64 64 206 2 ",
"   c #010102",
".  c #080707",
"X  c #05060A",
"o  c #06080C",
"O  c #0B0B0C",
"+  c #070A13",
"@  c #0C0D13",
"#  c #0C0E1B",
"$  c #100F12",
"%  c #0E1014",
"&  c #0D111C",
"*  c #131313",
"=  c #1A1A16",
"-  c #13151C",
";  c #1B1B1C",
":  c #211E1A",
">  c #2C281F",
",  c #0E1423",
"<  c #0F1728",
"1  c #0F182A",
"2  c #121423",
"3  c #151924",
"4  c #1A1C24",
"5  c #15162A",
"6  c #141B2B",
"7  c #1A1D2C",
"8  c #131D32",
"9  c #1A1C32",
"0  c #1E1E3B",
"q  c #201F2E",
"w  c #1D222C",
"e  c #162036",
"r  c #1D2234",
"t  c #16233D",
"y  c #1D243B",
"u  c #1F283E",
"i  c #242424",
"p  c #23232B",
"a  c #2B2B2B",
"s  c #2C2A29",
"d  c #3C3729",
"f  c #212434",
"g  c #232935",
"h  c #2B2C35",
"j  c #21263B",
"k  c #252A3E",
"l  c #292B3C",
"z  c #2C313C",
"x  c #333333",
"c  c #34343C",
"v  c #3D3D3D",
"b  c #423D2E",
"n  c #464134",
"m  c #172541",
"M  c #192743",
"N  c #1A2845",
"B  c #1D2C4B",
"V  c #1F2F50",
"C  c #222342",
"Z  c #242B43",
"A  c #292D44",
"S  c #26264A",
"D  c #262D49",
"F  c #282D4B",
"G  c #263144",
"H  c #2A3245",
"J  c #25314B",
"K  c #2A334C",
"L  c #2E384B",
"P  c #393946",
"I  c #31364F",
"U  c #313A4D",
"Y  c #2B2C54",
"T  c #233353",
"R  c #2C3553",
"E  c #2E3A55",
"W  c #25365A",
"Q  c #27395F",
"!  c #2B3A5B",
"~  c #313454",
"^  c #333B54",
"/  c #393E54",
"(  c #353558",
")  c #343D5B",
"_  c #3B3B5A",
"`  c #2A3D64",
"'  c #2C3F68",
"]  c #373F61",
"[  c #403F5A",
"{  c #3F404E",
"}  c #364156",
"|  c #3F4353",
" . c #35415C",
".. c #3B445E",
"X. c #3E495B",
"o. c #2E4167",
"O. c #2E426C",
"+. c #374462",
"@. c #3A4564",
"#. c #3C4963",
"$. c #31446D",
"%. c #3A4668",
"&. c #3E4A69",
"*. c #314772",
"=. c #364C79",
"-. c #3B517F",
";. c #444444",
":. c #41414D",
">. c #4B4B4B",
",. c #524C43",
"<. c #5D5649",
"1. c #444554",
"2. c #41455C",
"3. c #45485B",
"4. c #4B4A5D",
"5. c #545454",
"6. c #585357",
"7. c #5B5B5B",
"8. c #615941",
"9. c #72684C",
"0. c #7C7258",
"q. c #434C65",
"w. c #484F61",
"e. c #424E6B",
"r. c #4D5262",
"t. c #43516C",
"y. c #4A546C",
"u. c #525264",
"i. c #5A5765",
"p. c #585A6E",
"a. c #465373",
"s. c #4A5674",
"d. c #475977",
"f. c #4B5A76",
"g. c #4B5A79",
"h. c #4C5B79",
"j. c #4D5B7A",
"k. c #4E5D7A",
"l. c #535C74",
"z. c #5C5E72",
"x. c #515E7A",
"c. c #615B65",
"v. c #54627C",
"b. c #5A667E",
"n. c #59687E",
"m. c #636363",
"M. c #6A6469",
"N. c #6D6D6D",
"B. c #756C66",
"V. c #6E6A76",
"C. c #737373",
"Z. c #777073",
"A. c #76727E",
"S. c #7B7B7B",
"D. c #887C5F",
"F. c #837864",
"G. c #83796F",
"H. c #897E71",
"J. c #948971",
"K. c #988C74",
"L. c #A79978",
"P. c #B6A77C",
"I. c #B4A57E",
"U. c #3C5484",
"Y. c #3F5889",
"T. c #425A8D",
"R. c #455E92",
"E. c #566482",
"W. c #5A6681",
"Q. c #5C6B85",
"!. c #5C6C88",
"~. c #476298",
"^. c #606D86",
"/. c #616E8A",
"(. c #64738E",
"). c #69758E",
"_. c #7C7885",
"`. c #657491",
"'. c #697691",
"]. c #6B7993",
"[. c #6B7B97",
"{. c #6C7A95",
"}. c #6A7C96",
"|. c #717D97",
" X c #717D99",
".X c #727E99",
"XX c #827E8A",
"oX c #848484",
"OX c #84808D",
"+X c #8A8A8A",
"@X c #929292",
"#X c #9B9B9B",
"$X c #BDAD81",
"%X c #A4A4A4",
"&X c #ABABAB",
"*X c gray70",
"=X c gray73",
"-X c #C2B182",
";X c #C4C4C4",
":X c #CBCBCB",
">X c #D4D4D4",
",X c #DBDBDB",
"<X c #E3E3E3",
"1X c #EBEBEB",
"2X c #F4F4F4",
"3X c #FFFFFF",
/* pixels */
"O @ @ @ $ @ @ % % % % % % @ @ @ @ @ @ @ @ @ @ @ @ @ @ @ @ @ @ @ @ @ @ @ @ @ @ @ @ @ % % % $ @ @ @ @ @ @ @ @ @ @ @ @ @ @ @ @ @ O ",
"- k k k k A ...X.X.X.X[./.s...A Z Z Z Z Z Z Z Z k k k k Z Z Z k k k k Z Z L W..X.X.X.X'.v.e.~ Z Z Z k k k k k k k k k k k k k p ",
"2 k Z A Z K #.[.}.}.}.}.!.a. .Z Z Z Z Z Z G H K J J D A A Z Z Z Z Z Z j G E n.[.}.[.}.`.v.e.R A A A A Z H K K K J D D D A Z Z f ",
"- k Z A  .|.(.f.j.j.k.k.a.+.E Z Z Z A Z s.].].{.{.{.b.s.L Z Z Z Z Z Z J b.].E.j.j.j.k.d.&.) K Z Z Z Z  .Q.].{.{.].(.j.q.A k Z r ",
"- Z Z A ..|.(.f.g.j.j.f.a.+.~ Z Z Z H R k.`.].].].{.v.s.L A Z Z Z Z Z J n.].E.j.j.j.j.d.&.) F Z Z Z K #.Q.].].].].`.g.#.Z k Z r ",
"- A Z A ..|.(.f.g.j.j.f.a.+.~ Z Z Z y.'.W.k.k.k.k.x.e.@.K Z A Z Z Z Z J n.].E.g.g.j.g.s.&.) K Z Z ^ b.(.v.k.k.k.k.s.%.) Z Z Z r ",
"3 ^ ^ ^ q.`.!.s.d.a.U G %.@.^ Z Z Z s.[.W.j.j.j.f.s.@.) K Z L E E E E  .b./.k.s.g.j.g.s.&.) K Z Z } !.(.v.f.f.f.s.t. .^ Z Z U A ",
"g {.].'.Q.%.%.+.L 3 X   k +.^ Z Z Z s.[.W.j.j.j.e.@.R A 7 7 v.].].{.{.'.s.%.%.&.a.j.j.d.&.) K Z Z } ^.(.v.f.g.s.&.) D Z Z ) ).z.",
"g ].'.`.E.+.) r X       H ) K Z Z Z q.Q.x.a.s.d.#. .J 6   X l !.`.`.'.`.a.%. . .e.d.d.t.+.^ H Z Z ^ l.W.f.s.s.e. .E Z J E q.`.l.",
"p x.k.j.s. .6   ; i   - R D A A Z Z J J ) @.%.%.R D Z 2       - t.k.k.j.&.+.R J ) @.@.] R Z Z Z Z A J R  .+.%.) J Z Z ) (.(.k.q.",
"w j.f.j.e.r   a *Xv   j L A L .... . . .&.a.e.&.R A A 6 . i v   4 t.g.f.&.+.T D E ) ^ E D G ^  . . . .#.t.a.&.+.J Z Z ) ].(.g...",
"w j.g.j.G   * *X>XO   - j Z e.'.'.'.].].].].E.f.^ Z A r O x :X5.  f d.f.&.+.J Z Z Z Z Z Z ^ v.'.].].].].]./.k.&.H k A  .].(.g...",
"w g.g.#.@ . +X3X:X>.O   & ..j.(.`.(.(.`.`.`.x.a.E Z r & X ; :X,Xx X ^ g.&. .J Z A A Z G ^ e.W.(.(.(.`.`.`.!.g.#.H k Z ^ W.E.g.@.",
"w j.a.4   v 1X3X3X;X;   7 ).Q.k.k.k.k.k.k.k.e.%.K y o     . +X3X%XO - e.&...H Z A A Z ^ v.(.b.k.k.k.k.k.k.d.&. .D Z Z K #.e.f...",
"7 a.^   O &X3X3X2X>.  O 2.(.E.f.f.f.j.g.g.j.e.@.K r   . ;.C.=X3X2Xm.  G ) L j y j A ) t.W.!.v.j.j.j.j.j.j.a.%.) D k Z D ^  .t. .",
"7 %.r   >.2X3X3X#XO X w.Q.x.j.f.g.g.g.g.g.j.e.+.K j &   S.3X3X3X3X:X= O @ o X X X @ w U X.t.g.j.g.g.f.g.g.a.%.) D k Z Z D K @.I ",
"3 R @   S.3X3X1Xa   f [./.j.j.j.g.g.g.g.a.a.+.^ A k r X 4 :X3X3X3X2X;.                    O g #.g.g.g.f.s.&.) R Z Z Z A A D E A ",
"- y X   #X3X3X=X. @ ..|./.j.j.j.j.j.j.j.e.@.R D Z Z Z 2   ;.<X3X3X3XoX    d D.0.=             o k d.g.s.&.) K Z Z Z A Z Z Z D j ",
"w H . O =X3X3XC.  7 ^ j.s.t.a.a.a.a.a.a.+.^ D Z Z Z Z 3 .   #X3X3X3X;XO   D.-X$X6.C 9 2 @       X g e.&.) R Z Z Z A Z K q.e.e./ ",
"g X.  ; >X3X2X;.X r Z L ^ @.%.%.%.%.%.%.E D Z Z Z y @       7.3X3X3X:X;   5.L.G._ Y Y Y Y y @       g A r 9 r Z A A Z ^ (.).'.l.",
"g }   i ,X3X<Xa X j Z Z K E E E E E E ^ F Z Z j 7 X   O O   v 3X3X3X,Xi   C ~ Y Y Y Y Y Y Y 0 X               @ y L q.s.^./.(.y.",
"w L   a ,X3X>Xi o j Z A Z Z Z Z Z Z Z Z A Z Z r . O 8.L.F.O x 2X3X3X<Xi   C Y Y Y Y Y Y C #         . n 9.d     @ ^ ^./.x.k.k.q.",
"w H   ; >X3X,Xx . y A Z Z A A Z Z Z Z Z Z Z y X   n $X-XK.O ; 1X3X3X<X;   C Y Y Y Y Y 5 X       # 9 P I.-XL.p     k ).(.k.g.f.2.",
"w ^ X * ;X3X1Xv   r Z Z k k k Z Z A A Z Z Z @     n I.L.6.. i <X3X3X:X*   3 5 2 5 9 5     X 2 C Y ~ _ J.L.H.~ o   7 (.`.k.g.f.@.",
"w #.@   &X3X2X5.  3 Z k k A / y.y.y.y.y.y./     @ F ( ~ 5   ;.3X3X3X%X                    9 Y Y _ Z.u.Y Y ~ ~ @   3 (.`.k.g.g.@.",
"w t.-   @X3X3XC.  & k Z j Z q.'.].].].].).w     0 Y Y ,     +X3X3X2Xm.  X ! ! W T e , #   @ S Y 4.L.M.Y i.L.K.=   7 (.`.k.g.g.@.",
"w s.4   N.3X3X%X  . 7 j ^ y.x.!.!.!.!.!.v.O   @ F S o     i >X3X3X<Xi   7 R.~.R.T.' B e @   9 F R 2.( Y H.-XI.*   j j.v.j.g.g.@.",
"w d.r   >.3X3X,Xa   X & g r.y.y.j.f.j.k.t..   2 y o     . oX3X3X3X%Xo   T -.Y.U.$.O.W N 6 X   o 9 Y Y Y 4.B.d   @ H ..e.j.j.f...",
"7 e.G   a >X3X3X*Xi       . @ - 3 7 w g G o   @         v <X3X3X1X5.  @ V T W ' O.O.` M @   X     2 S S C @   X r Z R ) e.e.e.^ ",
"4 +.E @ . @X3X3X3X=XC.v = O                           a ;X3X3X3X*XO   8 N N m e N T t +   u ! ,     # 2 X     r Z Z Z K ..@.@.I ",
"3 R y X . +X3X3X3X3X2X1X>X*X@XC.m.5.;.v x x ; * O i 7.:X3X3X3X3Xm.    & , , @ X   X   & ! U.W N 8           7 J Z Z Z Z ~ ~ ~ A ",
"- Z @   x ,X3X3X3X3X3X3X3X3X3X3X2X2X1X<X<X<X>X*X*X:X2X3X3X3X3X;X=           X + & 7 J -.T.=.T N M ,     X r D A A Z Z Z Z Z A f ",
"- 9   . %X3X3X3X3X3X3X3X3X3X3X3X3X3X3X3X3X3X3X3X3X3X3X3X3X3X>X;   X # 5 e N W $.U.~.R.T.U.O.o.T N N &   & H Z Z Z Z Z Z Z Z A f ",
"- -   a ,X3X3X3X3X3X3X3X3X3X3X3X3X3X3X3X3X3X3X3X3X3X3X3X3X2X7.    , N T ' *.U.U.U.=.o.T N t N W B N M # X r Z Z Z Z Z Z Z Z Z f ",
"- @   N.3X3X3X3X3X3X3X3X3X3X3X3X3X3X3X3X3X3X3X3X3X3X3X3X3X3XS.    3 N N B T W T B t +         + t N B ,   H y.y.y.t...^ Z A Z f ",
"- X O &X3X3X3X3X3X3X3X3X3X3X3X3X3X3X3X3X3X3X3X3X3X3X3X3X3X3X1X*   + M N N N N M t +   . > :     X 8 m &   z ].[.[.(.x.e.D A Z f ",
"-   = >X3X3X3X3X3X3X3X3X3X3X3X3X3X3X3X3X3X3X3X3X3X3X3X3X3X3X3X;.  o M N N N N N ,     ,.$XL.H o   + 5 & @ O X.W.!.E.a.@.D A A f ",
"-   i ,X3X3X3X3X3X3X3X3X3X3X3X3X3X3X3X3X3X3X3X3X3X3X3X3X3X3X3XoX  X t N N N N t X   5 M.-XI.[ C     # 7 ,   @ #.f.a.@.^ Z Z H g ",
"- X v 1X3X3X3X3X3X3X3X3X3X3X3X3X3X3X3X3X3X3X3X3X3X3X3X3X3X3X3X*X    t N N N N <     S ( u.4.Y Y o   3 $.*.&   g t.^ 6 3 r L y.| ",
"-   >.3X3X3X3X3X3X3X3X3X3X3X3X3X3X3X3X3X3X3X3X3X3X3X3X3X3X3X3X:X    t N N N M +   @ Y Y Y ( c.i.@   J R.*.t X O r O     X k `.l.",
"%   m.3X2X&X+X&X2X3X3X3X3X3X3X3X3X3X3X3X3X3X3X3X3X3X3X3X3X3X3X,X.   # , , 1 ,     2 Y Y Y M.$X$Xs   ! =.B M o   O <.0.v o % j.y.",
"@   C.3X+X*   O 7.<X3X3X3X3X3X3X3X3X3X;XoXoX;X2X3X3X3X3X3X3X3X<X.         X X     2 Y Y Y c.I.L.= X ` T N t X   b I.$XG.5   l ..",
"O   S.1Xa         %X3X3X3X3X3X3X3X3X#X$     * +X2X3X3X3X3X3X3X<X.   & & t W ` &   o Y Y Y Y [ 4   & ' ' N 8     <.I.I.c.S   o / ",
"O   +X>X=         @X3X3X3X3X3X3X3X;X*         O #X3X3X3X3X3X3X1X.   T O.*.*.*.t     2 S Y C #     e ' o.B @   9 _ c.4.~ Y @   U ",
"O . @X:X=         S.3X3X3X3X3X3X3Xm.            a <X3X3X3X3X3X1X.   J ' ` Q W B o       X       & N ' ' 3   5 Y Y Y _ B.i.2   l ",
"O   @X=X*         N.3X3X3X3X3X3X3Xx             . *X3X3X3X3X3X,X.   t N N N M N 5           X < M N M &   o Y Y Y Y m.I.J.q   f ",
"o   #X*XO         oX3X3X3X3X3X3X<Xa             O &X3X3X3X3X3X=X    t N N N N N M 6 + + @ , e N M 6 X     - Y Y Y Y 4.G.i.5   w ",
"o   %X=XO         %X3X3X3X3X3X3X:X=             O =X3X3X3X3X3XoX  X M N N N N N N N N N N N N 8 +       X X Y Y Y Y Y Y Y 2   r ",
"O   +X,X;         =X3X3X3X3X3X3X>Xi             ; >X3X3X3X3X2X;.  @ M N N N N N N N B N t , o       4 1.3.O 5 Y Y Y Y Y Y @   7 ",
"@   m.3X;.      ; >X3X3X3X3X3X3X2X>.            v 1X3X3X3X3X<XO   5 N N N N N M t 8 , + X         . 4.z.z.p o F Y Y Y Y Y X   f ",
"; . i <X*Xa O a &X3X3X3X3X3X3X3X3X+X          O #X3X3X3X3X3X&X  X & , , < , & + X         @ h 1.o   P z.z.c   C Y Y Y Y S   % 2.",
"w % . S.2X,X;X>X3X3X3X3X3X3X3X3X3X<X7.O     O C.1X3X3X3X3X2X>.  X               . * -   X 1.z.z.;   h z.z.P   y Y Y Y Y 7   z l.",
"w f   O &X3X3X3X3X3X3X3X3X3X3X3X3X3X2XoXv a @X2X3X3X3X3X3X+X. O % O . - ; *   X :.z.3.. X u.z.z.p   p z.z.P   9 Y Y Y Y @ X X.q.",
"w ..@   x :X3X3X3X3X3X3X3X3X3X3X3X3X3X3X1X1X3X3X3X3X3X3X#X*   :.A.V.A.A.V.-   h p.z.1.. X u.z.z.p   p z.z.h   0 Y Y Y y   & t...",
"w f.L X   x &X1X3X3X3X3X3X3X3X3X3X3X3X3X3X3X3X3X3X3X1XoXO   p _.OXOXOX_.P   O 4.z.z.P   O u.z.z.4   c z.p.;   C Y Y S X X H g...",
"w g.d.G .   . ;.%X>X1X3X3X3X3X3X3X3X3X3X3X3X3X2X1X=X5.O   - V.OXOXOX_.h     p p.z.p.;   4 p.z.p.@   1.z.P     S Y Y #   w s.g.@.",
"w g.g.f.L @     . * a 7.+X*X;X:X,X<X<X,X,X:X%XM.v ;     p V.OXXXXXi.;     - r.z.p.h     P z.p.z     { 1..     9 C @   4 q.g.g...",
"w g.g.g.g.e.w @                 O ; a x a i O       . x A._._.M.c .     @ 4.z.p.h     - u.4.4       ; X             w v.k.g.g...",
"w g.g.g.g.g.a.] K r 7 - @                       . * s x p ; * O       @ h P h -       O * .               7 L 7 - r ..t.g.j.g.2.",
"w g.d.f.g.d.a.+.^ A Z Z e..XW.&.U l g g - .                                       X     X O % .       @ g e.%.) D K  .#.d.g.f...",
"4 %.%.%.%.%.) D Z Z Z Z e..X/.g.g.g.g.g.a.} 7 @ .     . @ 2 r A 3 X           X 6 j 9 f 2.v.k. .k g } a.g.a.%.) D Z D R @.%.%.~ ",
"4 @.+.+.@.+.^ Z A Z Z Z e.|.!.f.f.f.f.f.f.d.@.L y r 9 r K ) +.+.) G f 6 3 7 7 r j Z A ^ W.(.v.g.g.g.g.g.g.a.%.) D Z Z K ..+.+.I ",
"2 D A A A A A A A Z Z Z Z D E %.%.%.@.@.%.@.K u r r r r j Z A D Z r 7 3 2 3 7 y Z Z Z Z D R  .%.%.%.%.%.%.) F D A A A Z D D A f ",
"- Z k k k k k l l j r 7 7 r K ........+.....K Z A Z Z k k k k k k k k Z k k k k k l l l Z H ) @.%.%.%.%.@.) D Z k k k k k k Z f "
};
