/* XPM */
static char *_4d0095c652d46a89e6df79c35d7dd196m66jyrP4qUi9726[] = {
/* columns rows colors chars-per-pixel */
"64 64 205 2 ",
"   c #010102",
".  c #0A0907",
"X  c #05060A",
"o  c #06080C",
"O  c #0B0B0C",
"+  c #100E0F",
"@  c #070A12",
"#  c #0C0D13",
"$  c #0C0E1A",
"%  c #100F15",
"&  c #0D1014",
"*  c #0D111C",
"=  c #141415",
"-  c #1A1813",
";  c #13151C",
":  c #16181D",
">  c #1C1C1C",
",  c #201E1C",
"<  c #28251C",
"1  c #0E1322",
"2  c #0F1729",
"3  c #0F1829",
"4  c #131523",
"5  c #151925",
"6  c #1A1C24",
"7  c #16162C",
"8  c #131A2B",
"9  c #191D2B",
"0  c #141D33",
"q  c #1B1D34",
"w  c #151F38",
"e  c #1D1E3A",
"r  c #1D222C",
"t  c #162035",
"y  c #1D2334",
"u  c #16223B",
"i  c #1D253A",
"p  c #232323",
"a  c #22232B",
"s  c #28272C",
"d  c #2C2C2C",
"f  c #312D2C",
"g  c #212434",
"h  c #242933",
"j  c #2A2A32",
"k  c #21263C",
"l  c #252A3E",
"z  c #2A2B3C",
"x  c #302E36",
"c  c #2D323D",
"v  c #333333",
"b  c #33333D",
"n  c #3A3738",
"m  c #3B3B3C",
"M  c #403A2C",
"N  c #423E38",
"B  c #4E4838",
"V  c #192743",
"C  c #1A2845",
"Z  c #1D2C4B",
"A  c #222344",
"S  c #242B43",
"D  c #292D44",
"F  c #25264A",
"G  c #252D4A",
"H  c #2A2C4C",
"J  c #2A3244",
"K  c #26314B",
"L  c #2B3548",
"P  c #2A334C",
"I  c #393944",
"U  c #31354F",
"Y  c #323A4D",
"T  c #3C3D4B",
"R  c #272954",
"E  c #2B2C55",
"W  c #2C2D58",
"Q  c #233151",
"!  c #2B3553",
"~  c #2F3A54",
"^  c #29375B",
"/  c #26385C",
"(  c #313454",
")  c #323B55",
"_  c #393D54",
"`  c #353558",
"'  c #333C5A",
"]  c #3A3A5A",
"[  c #2B3D64",
"{  c #2C3F68",
"}  c #383F62",
"|  c #403F5B",
" . c #3F414E",
".. c #384057",
"X. c #36415C",
"o. c #3B445D",
"O. c #2E426C",
"+. c #364362",
"@. c #3A4463",
"#. c #3D4964",
"$. c #30446D",
"%. c #3A4668",
"&. c #3E4B6A",
"*. c #334974",
"=. c #364C7A",
"-. c #384F7D",
";. c #434343",
":. c #46444D",
">. c #4B4B4B",
",. c #5B5447",
"<. c #464655",
"1. c #4C4B53",
"2. c #44455D",
"3. c #464B5E",
"4. c #4A4A5C",
"5. c #514E59",
"6. c #535353",
"7. c #51515E",
"8. c #5C5C5C",
"9. c #69625B",
"0. c #7B735F",
"q. c #424B64",
"w. c #424E6B",
"e. c #514E61",
"r. c #4F5162",
"t. c #43516D",
"y. c #4A546B",
"u. c #535465",
"i. c #5D5963",
"p. c #555769",
"a. c #555A6D",
"s. c #595A6D",
"d. c #455372",
"f. c #495673",
"g. c #475977",
"h. c #4B5976",
"j. c #4C5B79",
"k. c #525C73",
"l. c #5B5D71",
"z. c #515E7A",
"x. c #615E67",
"c. c #55627C",
"v. c #59637B",
"b. c #59687E",
"n. c #636263",
"m. c #6B6669",
"M. c #6C6A6B",
"N. c #716B6A",
"B. c #79716C",
"V. c #6D6B79",
"C. c #716E79",
"Z. c #737373",
"A. c #74707C",
"S. c #7B7B7B",
"D. c #827A6F",
"F. c #877D71",
"G. c #978B6C",
"H. c #8B8271",
"J. c #948973",
"K. c #A49879",
"L. c #AFA27C",
"P. c #B2A47D",
"I. c #B6A97E",
"U. c #B9AA7E",
"Y. c #3D5686",
"T. c #405788",
"R. c #425A8C",
"E. c #445D91",
"W. c #566582",
"Q. c #5A6782",
"!. c #5C6985",
"~. c #5D6C89",
"^. c #616D87",
"/. c #616F8A",
"(. c #64738E",
"). c #6A758E",
"_. c #7A7783",
"`. c #7D7986",
"'. c #667491",
"]. c #697691",
"[. c #6B7A94",
"{. c #697896",
"}. c #6B7A96",
"|. c #6C7A95",
" X c #717D97",
".X c #707D98",
"XX c #827E8B",
"oX c #838383",
"OX c #84808D",
"+X c #8C8C8C",
"@X c #939393",
"#X c #9B9B9B",
"$X c #A4A4A4",
"%X c #AAAAAA",
"&X c #B3B3B3",
"*X c #BCBCBC",
"=X c #C1B183",
"-X c #C4C4C4",
";X c #CBCBCB",
":X c #D4D4D4",
">X c #DBDBDB",
",X c #E4E4E4",
"<X c #ECECEC",
"1X c #F3F3F3",
"2X c #FFFFFF",
/* pixels */
"+ # # # + # # & & & & & & # # # # # # # # # # # # # # # # # # # # # # # # # # # # # # # & % # # # # # # # # # # # # # # # # # O ",
"; l l l l D o. X.X.X.X[./.f.o.D S S S S S S S S l l l l S S S l l l l S S P Q..Xv.; # : l ) U S S S l l l l l l S l l l l l l a ",
"4 l S D S L #.[.[.[.[.[.~.d.X.S S S S S G J P K K K G D D S S S S S S l J ~ b.[.k.        o 4 y D D D G P K K K K G G G S S S g ",
": l S D X. X(.h.h.h.j.j.d.+.~ S D D D S h.].[.|.|.|.b.h.P S S S S S S K v.].W.j.g.l   - 8.p     4 l S X.!.[.|.|.|.(.z.q.D l S y ",
": S S D o. X(.h.j.j.j.j.d.+.( S S S P ! j.].[.[.[.|.c.f.P S S S S S S K b.].W.j.j.d.r   ;.*XZ.=   # S #.!.[.[.[.[.(.j.#.G l S y ",
": D S D o..X(.j.j.j.j.j.d.+.( S S S y.].Q.j.j.j.j.z.w.@.P G D S S S S K b.].W.j.j.j.)     +X2X$Xp   5 c.c.j.j.j.j.g.@.' S S S y ",
"5 ) ) ) q.'.~.g.g.j.j.j.d.+.) S S S f.|.Q.j.h.o.J J ' ' K G P ~ ~ ~ ~ X.b./.j.g.j.q.#   d &X2X2X*X>   6 f.h.h.h.g.t.X.) S G Y J ",
"h |.[.].!.@.@.@.&.j.j.j.d.+.) S S S h.|.Q.y.h X     5 G G S v.].].|.|.].d.@.%.&.d.o.o   >.:X2X2X2X%Xp X c d.j.g.&.' G S S ' ).l.",
"h [.'.'.W.+.X.' @.d.d.f.&.' U S S S q.!.j.9         # S ) ' Q.].].].].'.d.@.X.X.w.d.g     v :X2X2X2XH.  X ) g.w.X.~ S K ~ q.].k.",
"a z.j.j.g.+.' G ! @.@.@.) G D D S S K K l     O m O @ i v.].b.j.j.j.j.j.&.+.! K ' +.} l o   v :X2X2X;Xp   5 +.' K G G ' (.(.j.q.",
"r j.h.j.d.+.' S P ' ' ' P D P o.o.X.X.X.;   = %X;X= X 4 3.|.c.j.j.j.j.h.&.+.Q G ! ' ' ! i #   m.1X2X1XZ.  # X.+.K S G ] ].(.j.o.",
"r j.j.j.d.+.) S S G G G G G w.].].].].k.    n.2X<X=     o a.c.j.j.j.j.h.&.+.K S G G G S S J ; . #X2X2X-X=   Y &.P l D X.].(.j.o.",
"r j.j.j.f.+.' D S D G G ( @.j.(.'.(.(.J     -X2X,X6.p     J h.j.j.j.j.j.&.X.K S D D D J ) w.q.O v <X2X1X>.  r o.P l S ) Q.W.j.@.",
"r j.j.j.f.+.' D S D G G q.].!.j.j.j.d.&   m 1X2X2X1X$X    o y ) d.j.j.j.&.o.P S D D D ) c.(.c.r . $X2X1XoX  @ ~ G S S P #.w.h.o.",
"9 d.d.d.w.' ! S S D ) q.h.(.b.h.h.h.J     %X2X2X2X1XoX          ; P w.d.X.) G S S P X.t.Q.~.c.Y X 8.1X2X%XO X K G l S H ) X.t.X.",
"9 %.%.@.' G G S S G q.).!.z.h.h.h.X.    & ,X2X2X2X1Xm   X * = O     9 ' ! D S S S ~ z.(.W.j.j.o.o m <X2X;X:   D G l S G G K @.U ",
"5 ' ' ' ! l l S S G q. X/.j.j.h.J o     p <X2X2X2X,X=   q N.K.G.,     * S S l S S ~ v.].W.j.j.q.o p :X2X>Xp   y G S S D D G ~ D ",
": G G G S S S D S D q. X/.j.g.D X       d 1X2X2X2X;X. X H K.U.=X5.$     # i l S D ) v.).W.j.j.t.# O -X2X<Xv   8 S S D G S S G k ",
"r q.q.w.#.' ~ D D D ) h.d.t.l X   X X   d 1X2X2X2X&X  @ E m.J.B.] R 4     9 G S S P q.f.t.t.d.#.#   *X2X1X;.  4 S D S P q.w.w._ ",
"h (.(.].~.d.@.D l S G P ) l X   B 9.#   d 1X2X2X2X$X  @ E E W E E E H $   X k S S G P ! X.@.@.( o . -X2X1X6.  ; S D S ) (.].].k.",
"h ~././.W.w.o.S l S S G l X   M L.L.d   p <X2X2X2X@X  - m.( E E E E E e     @ l G S S G ! ~ ! 9   : :X2X1X8.  4 G P q.f.^./.~.y.",
"r j.j.j.g.@.' S D D S S 4   . 0.I.P.N   = ;X2X2X2X@X  - H.] E E E E E R $     q G D S D G y *     >.1X2X1X>.  ; S ..^./.z.j.j.q.",
"r g.h.h.d.w.@.! P D D l #   # m.P.H.H X   oX2X2X2X&X    p E E E E E E E F     # G S k 9 #     . m -X2X2X1X8.    ; ..).(.j.j.h.2.",
"r g.h.h.y.#.) D D k l k o   1 ] 4.` R @   n >X2X2X<X>     4 H E E E E E E @   X y 5 o       p oX>X2X2X2X2X;Xm     l (.].j.j.h.@.",
"r j.g.) ; o   X X X * 4 o   7 W E E E 7   O @X2X2X2X*X.     @ A E E E E E *             > oX,X1X2X2X2X2X2X2X,X;.  # c.].j.j.j.@.",
"r j.X.o     X               4 W E E E F o   d >X2X2X1X@X=     X q F H F e @       > 6.#X,X2X2X2X2X2X2X2X2X2X2X*X:   Y '.j.j.j.o.",
"r d.4   X m 9.:.q $ X       X H E E E E q     ;.<X2X2X2X:Xd                 = >.+X>X1X2X2X2X2X2X2X2X2X2X2X2X2X2XZ.  # d.j.j.j.@.",
"r X.X   9 J.L.K.2.R F q @     $ F E E e @       n.1X2X2X2X,X@Xv       = ;.#X:X<X1X2X2X2X2X2X2X2X2X2X2X2X2X2X2X2X>Xp   l j.j.h.o.",
"6 D     k D.P.P.e.W E W F $     @ A 4     * *     n.<X2X2X2X2X,X-X+X@X*X<X2X2X2X2X2X2X2X2X2X2X2X2X2X2X2X2X2X2X2X1Xn.  # @.w.w.) ",
"4 y     A ` i.i.( E | 4.( E 4         o ! T.T.0     >.,X2X2X2X2X2X2X2X2X2X2X2X2X2X2X2X2X2X2X2X2X2X2X2X2X2X2X2X2X2X*X>   J @.@.U ",
": 9     A E R E E E m.F.] E A X     o [ R.E.Y.{ 8     m &X1X2X2X2X2X2X2X2X2X2X2X2X2X2X2X2X2X2X2X2X2X2X2X2X2X2X2X2X1X>.  5 ( ( D ",
": q     7 ( n.B.] E 2.7.! E H X   @ / O.=.=./ Z V $     . $X2X2X2X2X2X2X2X2X2X2X2X2X2X2X2X2X2X2X2X2X2X2X2X2X2X1X2X2X+X  o k D g ",
"; k @   @ 2.K.P.J.] E E E E A     0 O.O.[ Z C C V 0 X     v 1X2X2X2X2X2X2X2X2X2X2X2X2X2X2X2X2X2X2X2X2X2X2X1X*X@X&X1X;X=   9 D g ",
": S 5     c K.U.L.4.R E E W 4     t [ / u 8 8 1 @         f 1X2X2X2X2X2X2X2X2X2X2X2X2X2X2X2X2X2X2X2X2X2X1XS..   O oX<X>.  ; S g ",
"; S y o   @ <.D.B.` E E E e         X X           X o o   d <X2X2X2X2X2X2X2X2X2X2X2X2X2X2X2X2X2X2X2X2X2X-X=       O -X@X  @ S g ",
": S l 9     $ H ( E E E q   X 8 G i 4 1 1 t t V Z Q Z 2   : ,X2X2X2X2X2X2X2X2X2X2X2X2X2X2X2X2X2X2X2X2X2X%X.         +X>X:   y g ",
": D S D r     o e H H F @ X 0 $.R.R.E.E.E.Y.Y.-.O./ Z 8   O >X2X2X2X2X2X2X2X2X2X1X1X1X1X2X2X2X2X2X2X2X2X;X:         6.1Xn   5 g ",
"4 H K K X.I       X o X   8 u Z K K ! *.-.=.$.[ Z C V t     *X2X2X2X2X2X2X2X2X1XoXm >.+X<X2X2X2X2X2X2X2X:Xd         p >XS.  ; g ",
"r d.f.d.j.z.Y #         X @ X X       X 2 V C V V C C V     @X2X2X2X2X2X2X2X<X8.        n.<X2X2X2X2X2X2X1X6.        O &X&X  ; T ",
"h [.|.[.~.+.+.) P ;             O O       # u V C C C C     8.2X2X2X2X2X2X2X@X            Z.2X2X2X2X2X2X2X#X          +X:X  ; 3.",
"g ~.Q.!.z.+.' ~ ' 5   o     . ,.G.G.I @     $ V C C C C @   d <X2X2X2X2X2X<X;.            p ,X2X2X2X2X2X2X,X=         +X>X= # Y ",
"r h.j.j.d.+.~ S K ;   @     f L.I.I.x.F $     0 C C C C q   O *X2X2X2X2X2X,X>             . +X1X2X2X2X2X2X1XS..     = &X-X. o l ",
"r h.h.j.d.+.~ S G ;       $ ( H.K.D.] E A X   * C C V 0 4     S.2X2X2X2X2X<Xd               ;.<X2X2X2X2X2X2X<XZ.p d +X1X+X  o J ",
"r j.j.j.d.+.~ S S # X     4 ] 4.| ( E E R 1   X 2 1 @         n 1X2X2X2X2X1Xm.              m <X2X2X2X2X2X2X2X1X:X,X2X1Xm   ; ..",
"r j.j.h.d.+.' S y X       d K.K.2.R E E E 7         # # $ 4   > <X2X2X2X2X2X&XO             d <X2X2X2X2X2X2X2X2X2X2X2X-X=   J o.",
"r g.g.g.w.+.) S 4   1 *   , K.P.u.E E E R $   X G [ $.O.O.^ X   &X2X2X2X2X2X<Xn             8.1X2X2X2X2X2X2X2X2X2X2X,X;.  o #.o.",
"9 &.&.&.@.! K S # X t t     I u.` E E R q     t =.*.O.O.[ / 4   n.1X2X2X2X2X2X&X=         = ;X2X2X2X2X2X2X2X2X2X2X<XM.    9 #.) ",
"5 +.X.+.) S S k X   t u X   X q F F e $     o [ O./ Q Z Z C u O = *X2X2X2X2X2X2X&Xm     = @X1X2X2X2X2X2X2X2X2X2X:X6.    # G ' U ",
"4 P ! ! P S S g     2 V 3       X X       X 0 Z Z C V V V V V 5   n >X2X2X2X2X2X2X,X&X#X-X1X2X2X2X2X2X2X2X1X>X+Xd       i G K l ",
": K P P K D S k X   X u C V @         X $ w V V C C C C C C C V ;   ;.>X2X2X2X2X2X2X2X2X2X2X2X2X2X2X2X1X>X$Xp         # P ! L l ",
"a v.c.y.r # X X       @ t { / 0 3 8 0 u V V C C C C C C C C C C i #   v $X1X2X2X2X2X2X2X2X2X2X2X1X,X&XZ.d .   X o     g z.c.c.q.",
"h |.(.h         < ,.M     8 Z C C C C C C C C C C C C C C C C u 8 *       6.%X,X1X1X1X1X1X<X>X*XoX;.O       # j >   o ) (.[.[.k.",
"a W.d.o + 6.<.D J.U.K.a @     X * 0 u V V C Z Z Z C V V u 8 * X     X X     . d 6.8.8.8.8.m p O       o ; I V.i.    h b.W.W.W.q.",
"r j.X.  n P.H.` M.K.D.( H $           X X @ @ @ o o X X             = 1.:.;                     o : c 7.C.XX_.p   X k.(.j.j.h.o.",
"r j...  j H.n.W W ( W E H o   ; .                       X # 6 z b   # C.XX_.:.a : ; ; ; > p b 1.n._.OXOXXX_.x     y (.].j.j.j.o.",
"r j.#.  o H W E E E E E F X   a p.u.4.=   a z b T b   o  .u.a.l.4.o   m `.OXOXXX`.`.`.`.`.XXXXOXOXOXOXXX_.x     # ' ].].z.j.j.@.",
"r j.h.5   $ H E E E E E H X   ; p.l.l.a   6 p.l.l.r.O   > r.l.l.s.j     :.`.OXOXOXOXOXOXOXOXOXOXOXOXXXC.s     ; S o.'.].j.j.j.o.",
"r j.j.w.#   @ A E E E E R $     <.l.l.T      .l.l.l.I     = 4.l.l.u.;     1.`.OXOXOXOXOXOXOXOXOXXXXXi.#     ; X.P X.(.(.j.j.j.o.",
"r j.j.j.o.;   X 4 A R E R e     # T u.r.=   & T p.l.s.j X   # b 4.a.4.#     a 5.A.XXXXXXXXXXXX_.x.j X     y @.' K P #.t.j.j.j.2.",
"r j.g.h.j.t.y X     @ 7 q @         O 6 5       ; b <.r.j       X 6 b j         = I 1.1.1.:.b ;       o Y d.%.' G P X.#.g.j.h.o.",
"6 @.@.@.%.@.' i ; X           X o                     O o                                           y w.j.d.%.' G S G ! @.@.@.( ",
"6 +.+.+.+.+.) S l g 5 * ; 6 g X.#.J r ; ; 4 l y #           9 G 9 & o X   @ 8 8 # X           # r o.j.j.j.d.@.' G S S K o.+.+.U ",
"4 G D D D D D D D D D S S G ! @.@.@.+.+.+.+.! G S i 9 4 4 y D G S S k i i k S S S k y q t i P +.@.%.%.%.@.' H G D D D G G G D g ",
": S l l l l l z z z l l l S P o.o.o.o.+.o.o.L S D G S l l l l l l l l S l l l l l z z z S P ' @.@.@.@.@.@.' H S l l l l l l S g "
};
