/* XPM */
static const char *UGVyc29fMl9T[] = {
/* columns rows colors chars-per-pixel */
"64 64 182 2 ",
"   c #010101",
".  c #050609",
"X  c #07080B",
"o  c #0B0B0C",
"O  c #100E0F",
"+  c #070A12",
"@  c #0C0E13",
"#  c #0B0F19",
"$  c #100F12",
"%  c #0D1015",
"&  c #0E111B",
"*  c #121314",
"=  c #13151C",
"-  c #18171A",
";  c #15181E",
":  c #1C1B1D",
">  c #0E1523",
",  c #131521",
"<  c #161A23",
"1  c #1A1D24",
"2  c #151B2A",
"3  c #191E2A",
"4  c #151E32",
"5  c #1A1F32",
"6  c #1F2027",
"7  c #1D222C",
"8  c #172237",
"9  c #1D2334",
"0  c #1D243A",
"q  c #232324",
"w  c #23242B",
"e  c #28272C",
"r  c #2B2B2B",
"t  c #212534",
"y  c #242934",
"u  c #282931",
"i  c #21263B",
"p  c #242A3E",
"a  c #292A3C",
"s  c #302F34",
"d  c #2A303B",
"f  c #333233",
"g  c #34343B",
"h  c #3C3C3C",
"j  c #1B2741",
"k  c #1D2943",
"l  c #242B43",
"z  c #282D45",
"x  c #252E49",
"c  c #282F49",
"v  c #263146",
"b  c #2A3244",
"n  c #26314A",
"m  c #2A334C",
"M  c #2E384D",
"N  c #3E3D42",
"B  c #31354E",
"V  c #313A4E",
"C  c #233152",
"Z  c #2C3552",
"A  c #2E3A54",
"S  c #26365B",
"D  c #2D3858",
"F  c #313753",
"G  c #323B55",
"H  c #393D54",
"J  c #333C5A",
"K  c #383F5A",
"L  c #293C63",
"P  c #374057",
"I  c #3B4254",
"U  c #35415C",
"Y  c #3B445D",
"T  c #2E426D",
"R  c #364362",
"E  c #3A4463",
"W  c #374965",
"Q  c #3D4964",
"!  c #3B4668",
"~  c #3E4B6A",
"^  c #444445",
"/  c #45434A",
"(  c #48464E",
")  c #4B4B4B",
"_  c #4D4B54",
"`  c #40465F",
"'  c #545455",
"]  c #54535B",
"[  c #59575F",
"{  c #5C5C5C",
"}  c #424C65",
"|  c #424E6B",
" . c #425165",
".. c #43516D",
"X. c #4A546D",
"o. c #555563",
"O. c #5A5761",
"+. c #5C5A65",
"@. c #515B6F",
"#. c #5C5B68",
"$. c #434F70",
"%. c #455372",
"&. c #4A5673",
"*. c #475977",
"=. c #4B5976",
"-. c #475A78",
";. c #4B5B79",
":. c #4D5D79",
">. c #4E5D7C",
",. c #535D74",
"<. c #585C71",
"1. c #515E7A",
"2. c #605D66",
"3. c #615E68",
"4. c #566377",
"5. c #52627D",
"6. c #54627D",
"7. c #56617E",
"8. c #59647C",
"9. c #5B697F",
"0. c #636364",
"q. c #64626D",
"w. c gray42",
"e. c #696672",
"r. c #6D6A74",
"t. c #706C77",
"y. c #747474",
"u. c #76727E",
"i. c #777878",
"p. c #7A7A7A",
"a. c #556283",
"s. c #566581",
"d. c #596783",
"f. c #556880",
"g. c #5D6B83",
"h. c #5C6A85",
"j. c #5D6C89",
"k. c #5E718C",
"l. c #616C86",
"z. c #616E8B",
"x. c #62718E",
"c. c #65738D",
"v. c #6A758E",
"b. c #69788F",
"n. c #7A7683",
"m. c #7D7986",
"M. c #657491",
"N. c #667691",
"B. c #697692",
"V. c #667993",
"C. c #6B7892",
"Z. c #6D7B93",
"A. c #697996",
"S. c #6C7895",
"D. c #6C7A95",
"F. c #697C96",
"G. c #6E7D97",
"H. c #6E7C98",
"J. c #707C97",
"K. c #717D97",
"L. c #707E98",
"P. c #827E8B",
"I. c #838383",
"U. c #84808D",
"Y. c #8B8B8B",
"T. c #949494",
"R. c #9B9B9B",
"E. c #A2A2A2",
"W. c #ABABAB",
"Q. c #B4B4B4",
"!. c #BBBBBC",
"~. c #C3C3C3",
"^. c #CBCBCB",
"/. c #CFCFD0",
"(. c #D5D5D5",
"). c #D7D8D9",
"_. c #DCDCDC",
"`. c #E3E3E3",
"'. c #ECECEC",
"]. c #F3F3F3",
"[. c #F7F7F8",
"{. c #FEFEFE",
/* pixels */
"O @ @ @ O @ @ % % % % % % @ @ @ @ @ @ @ @ @ @ @ @ @ @ @ @ @ @ @ @ @ @ @ @ @ @ @ @ @ % % % $ @ @ @ @ @ @ @ @ @ @ @ @ + @ @ + @ o ",
"= a p p p z Y K.L.L.L.G.z.&.Y l l l l l l l l l p p p p l l l p p p p l l M d.L.L.L.L.B.7.} F l l l p p p p p p l p p p p p p w ",
", p l l l m Q G.F.F.F.F.j.%.U l l l l l x v n n n n x z z l l l l l l p v A 9.S.x.g.M.M.5.| Z l l l l x n n n n n c x x l l l t ",
"; a l l U K.x.=.:.:.:.:.%.R A l l l l l &.C.Z.S.S.S.8.&.M l l l l l l n 8.C.s.:.} Y %.*.~ K n l l l l U g.Z.S.S.S.c.1.} z p l 9 ",
"; l l z Y K.x.=.=.;.;.=.%.R F l l l n Z :.M.M.8.c.S.7.&.M l l l l l l n 9.C.a...i 3 M %.~ K n l l x m Q h.S.S.A.S.x.=.Q x p l 9 ",
"; l l l Y K.x.=.=.;.;.=.%.R F l l l X.B.d.Q 7 @ t :.| E m x z l l l l n 9.S.a.Q o   . 3 K K n l l G 9.x.5.:.>.>.>.*.E J l l l 9 ",
"< G G G } M.j.*.*.=.;.=.%.R G l l l &.H.X.o     + } E K n x M A A A A U 8.z.>.%.3   o   @ n n l l P l.c.5.=.=.=.*...U G l x V z ",
"y S.Z.B.h.E E E ~ =.;.;.%.R G l l l &.,.@ o r . = E Z x l l 8.C.C.S.S.B.%.E ! ~ G . w ' o o i l l P l.c.5.=.=.*.~ J x l l J v.<.",
"y S.V.M.d.R U K E %.%.&.~ K m l l l I < . I.Y.o < U n l G J d.B.M.M.B.M.%.E U U Q = @ E.y.  o 9 l G ,.d.=.*.*.| U A l n A } M.,.",
"w 1.:.;.*.R J x Z E E E G x l l l l &   0.'.i.. & 0 l l 8.B.8.:.:.:.:.;.~ R Z l 2 .   ' `.'   + p z n Z U R E J n x x K c.x.:.} ",
"7 :.=.=.%.R J l n K K J M l M U U p . f _._.h     X 5 l 8.L.5.=.;.;.=.=.~ R C 3     h R.].`.f   6 U U Q ..%.~ R n l x K C.c.;.Y ",
"7 ;.=.=.%.R G l l x x x x x } B.l.1 o R.].(.^ r o   , l d.L.5.=.;.;.;.=.~ R n 9     y.[.{.{.E.o . ,.C.C.S.z.>.~ n p z U C.c.;.Y ",
"7 =.;.;.&.R J l l l x x F E :.c.X.. ' `.[.].`.^.r   2 l :.h.:.=.=.=.=.=.Q U n p <   * Q.{.{.'.h   b c.M.M.h.=.! n p l G d.s.;.E ",
"7 ;.=.;.&.R J l l l x x } B.h.:.y o W.[.[.[.].R.* + i x U Q *.;.;.;.;.=.~ Y n l l &   f `.{.{.T.  & X.:.>.*.~ U x l l m Q | =.Y ",
"3 %.%.%.| J Z l l l F } :.x.s. .= q _.[.[.[.~.: . 9 l l Z G | %.%.%.%.%.U G x l x l %   W.{.{.~.o . G ;.;.%.! J x p l c G U ..U ",
"3 ! ! E K x x l l l } v.h.1.:.Y o ^ '.[.[.`.'   = l l l x x K E E E E E Z l l l l A I . 0.[.{._.q   y =.=.%.! K x p l x x n E B ",
"< J J J Z p p l l x } K.z.:.:.G . ' '.[.[.~.: . 5 l l l l l Z J J J J G x l p l l A ,.= r `.{.'.h   7 %.*.~ K Z x l l l l x A z ",
"; x x x l l l z l z } K.z.:.;.M . 0.].[.[.E.. X i l l l l l l x x c x x l p p l z G 8.d o Q.{.].'   3 ..~ K n x l l z x l l x i ",
"6 }  .| Q J A z z z G :.%.....z   0.].[.[.Y.  @ p l l l Y } } } } } } } U G z l l m } a . T.{.[.y.  < E J Z x l l z l m } } | H ",
"y c.c.M.j.%.E z p l x M G E E z   ' [.[.[.i.  & l l l k 4.c.b.B.B.c.c.c.:...M l l x z 2   Y.[.[.i.. = G n x l l z z l G x.B.B.<.",
"y k.z.z.d.| Y l p l l x n A A p   N ].[.[.y.  @ p l Y Q 8.j.x.j.j.j.j.j.&.| m l x l p & o E.{.].0.  & n c l l l x M } &.l.z.x.X.",
"7 ;.:.:.*.E J l l l l l x x x 9 . w `.[.[.R.  X i l 1.c.8.1.4.:.:.:.:.>.~ R n l x z p + * Q.{.'.)   = l l l l l z I l.z.1.:.:.} ",
"7 *.=.=.%.| E Z m l z l l z p i X * (.[.[.^.*   , l 8.B.X.Q Q }  .=.;.=.%.| J Z x l t . : ~.{.`.r   , l l l l l l U v.c.:.=.=.` ",
"6 -.=.=.=.*.| K G l l p p p p p @ . E.{.[.'.'   . 2 y < o X . X + < p Y %.*.! J n l 3   f _.{.(.-   2 l l l x l l Y M.M.:.=.=.E ",
"7 =.=.=.=.=.%.R J l l p p l G X.a   ) ].[.{.~.*                       . 3 Q ~ K c 9 o   0.[.{.!.o X I X.X.X.E G c E B.M.:.=.=.E ",
"7 =.=.=.;.=.%.R J l l p p l } B.@.X * Q.{.{.].w.    . 4 x C C x 0 , +     = i 2 # .   o Q.{.{.R.  = 9.C.C.z.1.} n Y M.M.:.=.=.E ",
"7 =.;.=.=.=.%.R J l l l G X.1.j.8.<   0.].{.{._.h     + 4 8 2 > # + .             . o y.].{.].w.  7 f.j.j.s.%.Y v A :.5.;.=.=.E ",
"7 =.=.=.=.=.%.R G l l z } Z.h.:.:.b   q `.{.{.[.^.h o               .   . o * r ' I.W.].{.{._.r   M :.:.:.*.~ J v m Y | :.;.=.Y ",
"3 | ....%.| ! A m l l x } K.j.=. .3   . i.[.{.{.[.`.T.{ _ { p.I.I.I.Y.T.E.Q.^.`.].{.{.{.{.{.(.q   y =.=.=.%.E J x x Z G | | | G ",
"1 R R R E E J l l l l x } Z.h. .=       o !.{.{.{.{.{.{.].{.{.{.{.{.{.{.{.{.{.{.{.{.{.{.{.{.[.y.  X Y ;.;.%.E J x l l n Y E E B ",
"< Z Z Z A A n l l l l x G X.} ,     + #   r /.{.{.{.{.{.{.{.{.{.{.{.{.{.{.{.{.{.{.{.{.{.{.{.{._.r   9 | | ~ J Z x l l x F F F l ",
"; l x x l l l l l l l l l x 9       x &   q !.{.{.{.{.{.{.{.{.{.{.{.{.{.{.{.{.{.{.{.{.{.{.{.{.[.p.. + K R K n z z l l z l l l t ",
"= l l l l x G X.X.X.&.X.} G .     8 S   o E.[.{.{.{.{.{.{.{.{.{.{.{.{.{.{.{.{.{.{.{.{.{.{.{.{.{.^.* . l Z Z x l l l l l x x l t ",
"; l p l p z Y S.L.L.L.H.z.b     . 2 #   r `.{.{.{.{.{.{.{.{.{.{.{.{.{.{.{.{.{.{.{.{.{.{.{.{.{.{.'.r   3 l l l l l l l x x x x t ",
"= l p l B X.,.h.h.j.j.j.1.3             ' ].{.{.{.{.{.{.{.{.{.{.{.{.{.{.{.{.{.{.{.{.{.{.{.{.{.{.{.^   < } X.X.X.X.X.Y G x z x t ",
"; l p z Y K.x.=.;.;.;.=.$.=       + .   i.{.{.{.{.{.{.{.{.{.{.{.{.{.{.{.{.{.{.{.{.{.{.{.{.{.{.{.{.{   1 l.G.H.H.H.c.1.| c z x t ",
"; l l x Y L.x.=.;.=.;.=.E .   + k C @   R.{.{.{.{.{.{.{.{.{.{.{.{.{.{.{.{.{.{.{.{.{.{.{.{.{.{.{.{.I.  1 4.h.h.j.j.f.%.E x z l t ",
", c n n E S.z.=.=.=.;.=.7   . S T L #   E.{.{.{.{.{.{.{.{.{.{.{.{.{.{.{.{.{.{.{.{.{.{.{.{.{.{.{.{.T.  ; %.=.=.=.=.%.E J x x n y ",
"7 %.&.%.:.7.;.| %.=.;.} .   > T T L @   R.{.{.{.{.{.{.{.{.'._.].{.{.{.{.{.{.{.{.{.{.'.W.I.T.`.{.{.W.. * X.=.=.=...! A n x M X.I ",
"y F.S.S.j.E R R ~ =.%.V     k T T S @   T.{.{.{.{.{.{.].R.h f y.`.{.{.{.{.{.{.{.{.].w..     ) ].{.~.* @ } =.=.%.E G x x n Y M.,.",
"t j.h.d.1.R K A J | U i     C T T C @   r.{.{.{.{.{.'.' o       ) ].{.{.{.{.{.{.{.~.*         R.{.^.* . G ..| ! G m l A X.1.h.X.",
"7 =.:.=.%.R A l n U M 9     j T S > .   ^ {.{.{.{.{.Y.          o E.{.{.{.{.{.{.{.W..         ' {.^.* . M ! E K x l l U S.M.:.Y ",
"7 =.=.=.%.R A l x M n 7     X 4 X       : [.{.{.{.{.h             f ].{.{.{.{.{.[.Y.          h {.(.- o } 4.%.E n l l U S.M.;.Y ",
"7 =.;.=.%.R A l l l l 9             o   o ].{.{.{.'.q             o '.{.{.{.{.{.{.Y.          r {.(.: o ,.x.1.} n l l P c.x.;.Y ",
"7 =.;.=.%.R J l l l l l =       .   e     ^.{.{.{.`.w             o (.{.{.{.{.{.{.E..         r {._.w . } 5.%.E v l l M &.:.=.Y ",
"7 *.*.*.| R F l l l v M Y @   1 * . ]     E.{.{.{.'.f             o ^.{.{.{.{.{.{.~.          ) {.`.- . Y %.E J x l l n J W %.Y ",
"3 ~ ~ ~ E Z n l l x U ,.7.=   g o o r.@   i.{.{.{.{.'             - `.{.{.{.{.{.{.(.-         I.{._.  o } %.E J c l l x m A ~ G ",
"< R U R G l l l l x } H.j.=   a . o u.g   h {.{.{.{.Y.            ^ [.{.{.{.{.{.{.].^       - ^.{.Q.  = ..%.E J c p l l x n K B ",
", m Z Z n l l l l z } H.j.=   u   o u.3.. o `.{.{.{._.h         . R.{.{.{.{.{.{.{.{.~.f - q Y.[.{.{   3 | E A n x l l l x x n p ",
"; n m m n n z l l z Q c.d.<   w . o t.m.1   { ].{.{.{.^.f . . o 0.'.{.{.{.{.{.{.{.{.{._.!.(.[.[.!.*   p E J x l l l l x M Z m p ",
"w 8.7.7.1.Q G l l x M E Q 3   = o   O.P.q.o o T.{.{.{.{._.T.i.W.].{.{.{.{.{.{.{.{.{.{.{.{.{.{.).q   . Z A c x z l l l G 1.7.4.} ",
"u S.S.S.z.%.} z l l l l Z i   . *   g P.P.h   * T.].{.{.{.{.{.{.{.{.{.{.{.{.{.{.{.{.{.{.{.{.'.{     , G x l l z l x n Y c.S.F.,.",
"7 a.5.7.;.Q U x l l l l x p .   *   o e.P.u.:   o i.'.{.{.{.{.{.{.{.{.{.{.{.{.{.{.{.{.{.{._.'       2 x x l l z l G 1.s.d.s.f.} ",
"7 =.*.=.%.E J l l l l l l p &   o o   e n.P.r.=   o ^ Y.~.'.{.{.{.{.{.{.{.{.{.{.{.`.^.Q.y.q     * .   . 3 l l z l U c.c.:.=.=.Y ",
"7 =.=.=.=.%.~ J Z l l l l z 9     *   . / m.P.q.q .     - ^ I.W.!.^.^.~.~.Q.W.R.y.f . o       = e.-     . 0 l l l Y M.M.:.:.=.E ",
"7 =.=.=.=.;.%.R G l l l l z z =     o     ^ P.P.m.+.e o     . o o - * o o o . .             o s P.e.-     o x z l Y M.M.1.:.=.E ",
"7 =.=.;.=.=.%.R J l l l l x } 4.1   . .   . g t.P.U.m.q.N 1 o             . . o @ ; 6 q o   - q.P.P.q.o     V Y x Y M.M.:.=.=.Y ",
"7 =.=.=.=.=.%.E J l l l x n X.G.4.%           - ] n.P.P.P.m.r.[ _ ( ( ( _ ] o.#.q.e./ .   X [ P.U.U.P._     9 } n U c.x.:.=.=.Y ",
"7 =.=.=.=.=.%.R J l l x Q c.h.1.:.} ;           . - f ] e.t.t.u.u.P.P.P.P.P.r./ 1 o     . e ( ] 2.t.P.m.:   & K n M Q ..=.;.=.` ",
"7 =.*.=.=.*.%.R G l l x } L.j.=.=.=. .i o               . o o o o * : r q o                       . o : *   & J c n U Q *.=.=.Y ",
"1 E E E ! E K x x l l x } L.z.=.;.=.=.=.Q i o                                     . + = < @ .               3 J c l x Z E E E F ",
"1 R R R R R G l l l l x } K.j.=.=.=.=.=.=.*.U M 9 3 8 8 i 9 9 3 , & & % % = & & 3 i l G 4.g.X.Y G v y < 1 y G J x l l n Y R R B ",
", x l l l l x z z l l l l x D E E E R R E E A x l l l l i 0 0 0 2 , , , , < 2 5 i l l l x Z U E E R Z i i v x x l l l x x x l t ",
"; l p p p p p a a a p p p l m Y Y Y Y R R Y m l z l l p p p t 7 9 t t 9 9 t i i p a a a l n K E E R R K K G z l p p p p p p l t "
};
