/* XPM */
static const char *V2FsbF9TX1Yy[] = {
/* columns rows colors chars-per-pixel */
"64 64 226 2 ",
"   c #010101",
".  c #050609",
"X  c #080408",
"o  c #06090D",
"O  c #0A0B0D",
"+  c #100E0F",
"@  c #080C12",
"#  c #0B0E13",
"$  c #100F15",
"%  c #0D1115",
"&  c #0E131B",
"*  c #111316",
"=  c #12151C",
"-  c #15191D",
";  c #1A1A1F",
":  c #0F1722",
">  c #121621",
",  c #141A24",
"<  c #191D24",
"1  c #161D29",
"2  c #1A1E2B",
"3  c #1A1F31",
"4  c #1C2026",
"5  c #17212C",
"6  c #1C222C",
"7  c #152230",
"8  c #1B2433",
"9  c #1D2936",
"0  c #1D2639",
"q  c #1E2A3B",
"w  c #242529",
"e  c #22252C",
"r  c #24292E",
"t  c #212632",
"y  c #242A33",
"u  c #2A2D34",
"i  c #21263C",
"p  c #242B3D",
"a  c #2A2F3B",
"s  c #2C3037",
"d  c #25313E",
"f  c #2D323B",
"g  c #32353D",
"h  c #34393E",
"j  c #242B43",
"k  c #252B45",
"l  c #292F43",
"z  c #262E49",
"x  c #243244",
"c  c #2C3444",
"v  c #26344A",
"b  c #2B344C",
"n  c #28394A",
"m  c #2B394D",
"M  c #313642",
"N  c #343A43",
"B  c #393D45",
"V  c #30364D",
"C  c #333B4B",
"Z  c #393E4A",
"A  c #2C3854",
"S  c #2D3D54",
"D  c #313653",
"F  c #333D53",
"G  c #343E5A",
"H  c #383F58",
"J  c #3A4049",
"K  c #3C424D",
"L  c #2E4156",
"P  c #2E435B",
"I  c #354154",
"U  c #3A4353",
"Y  c #3C4954",
"T  c #35425B",
"R  c #3B455C",
"E  c #3D4A5C",
"W  c #2E4660",
"Q  c #374462",
"!  c #3A4563",
"~  c #354A63",
"^  c #3C4B64",
"/  c #3D4669",
"(  c #374F6A",
")  c #3E4B6A",
"_  c #3F5165",
"`  c #3B506B",
"'  c #3D5775",
"]  c #41454D",
"[  c #43494F",
"{  c #424652",
"}  c #454A54",
"|  c #484C56",
" . c #41465C",
".. c #434B5B",
"X. c #494E5B",
"o. c #47505D",
"O. c #4C525D",
"+. c #51545D",
"@. c #424D64",
"#. c #484F60",
"$. c #424E6A",
"%. c #445265",
"&. c #4C5463",
"*. c #4F5967",
"=. c #44536B",
"-. c #4C576A",
";. c #4D5A6D",
":. c #515562",
">. c #555A64",
",. c #595E66",
"<. c #545C6B",
"1. c #595E6A",
"2. c #434F72",
"3. c #445472",
"4. c #495573",
"5. c #455B76",
"6. c #4B5A75",
"7. c #415B7A",
"8. c #4C5B79",
"9. c #525D73",
"0. c #525D78",
"q. c #5A6067",
"w. c #5C636C",
"e. c #4D607E",
"r. c #556175",
"t. c #5C6473",
"y. c #54637C",
"u. c #5B657B",
"i. c #5C697D",
"p. c #61666D",
"a. c #616774",
"s. c #636975",
"d. c #646A77",
"f. c #656C7B",
"g. c #6A6E7B",
"h. c #65707F",
"j. c #6B727C",
"k. c #72767E",
"l. c #4A5D83",
"z. c #5A6783",
"x. c #586A85",
"c. c #5C6B84",
"v. c #5F7085",
"b. c #626D84",
"n. c #616E8B",
"m. c #637184",
"M. c #6C7483",
"N. c #64738C",
"B. c #6B768B",
"V. c #6C798D",
"C. c #717685",
"Z. c #747A85",
"A. c #787C87",
"S. c #747C8B",
"D. c #787E8B",
"F. c #657493",
"G. c #697691",
"H. c #6C7B95",
"J. c #697D98",
"K. c #737E93",
"L. c #717D99",
"P. c #7B828F",
"I. c #748196",
"U. c #7C8494",
"Y. c #75849B",
"T. c #7B8599",
"R. c #7E8A9C",
"E. c #6F84A1",
"W. c #7B88A1",
"Q. c #7D8EAA",
"!. c #838994",
"~. c #838B9B",
"^. c #898F9B",
"/. c #8B929D",
"(. c #91989F",
"). c #848EA3",
"_. c #888FA2",
"`. c #8792A4",
"'. c #8C94A3",
"]. c #8493AC",
"[. c #8997AB",
"{. c #8D99AA",
"}. c #929BA5",
"|. c #949AA5",
" X c #949CAC",
".X c #8C9CB4",
"XX c #949FB3",
"oX c #97A0AD",
"OX c #9BA2AD",
"+X c #95A2B5",
"@X c #9CA4B4",
"#X c #95A3BA",
"$X c #9AA6BB",
"%X c #9AA8BB",
"&X c #9CA9BD",
"*X c #A1A6B4",
"=X c #A2A9B6",
"-X c #A4ABBB",
";X c #A8AFBA",
":X c #A7B0BE",
">X c #A9B0BC",
",X c #9FADC2",
"<X c #A3AEC3",
"1X c #A6B3C3",
"2X c #ACB5C3",
"3X c #ADB8CA",
"4X c #B0B7C4",
"5X c #B1B8C6",
"6X c #B3BACB",
"7X c #AEBCD2",
"8X c #B8BFD0",
"9X c #B9C0CF",
"0X c #B6C0D3",
"qX c #BBC4D3",
"wX c #BEC8D6",
"eX c #C1C7D2",
"rX c #C2C9D6",
"tX c #C3CDDC",
"yX c #C9CFDB",
"uX c #C9D1DD",
"iX c #C5D1E0",
"pX c #CCD5E3",
"aX c #D3DAE5",
"sX c #D4DAE6",
"dX c #D3DBEA",
"fX c #DBE1EC",
/* pixels */
"+ # # # + # # % % % % % % # # # # # O . # # # # # # # # # # # # # # # # # # # # # # % % # $ # # # # # # # # # # # # # # # # # O ",
"= p p p p l R V.H.L.L.H.n.4.R k j p u u j i i j p p p p j j j p p p p j j m z.L.L.L.L.G.c F D j j j p p p p p p p p p p p p p e ",
"> p j k j b m a c.J.J.J.x.3.T j j 2 OX} k 2 o k v b z l l j j j j j j i x m u.H.H.H.J.c.* p A z k k k k b b b b v z z z j j j t ",
"- p j k T H.C h ^ 6.8.8.=.Q A j i t.yXp 6.U >.X.H.H.u.9.m j j j j j j v ;.e f 8.8.8.8.R O.<.z j j j j T c.H.H.H.H.F.8.@.l p j t ",
"- j j l R i.w.OX6.8.8.8.3.Q D j M 1X(.0 8.@.>XU.n.H.y.4.m k j j i j j v r.u J R 8.8.8.c ^.t.k j j k b ~ c.H.H.H.H.F.8.) k p j 8 ",
"- k j k R M >X;X9.8.8.8.3.Q D p C.pX[ u.z.^ @X>X%.0.$.! b k j 1 1 j j v i.X.Z.d.3.8.8.e =X<.k j j H z.N.y.8.8.8.8.4.! G j j j 0 ",
"< F F F ! f sX;X6.8.8.8.3.! D U 5XwX6 H.z.$.A.eXi.4.! G b k c N -.A A T y.y.:.1XE 8.=.K ;XO.k j j I b.N.y.6.6.6.4.=.T F j k C l ",
"y H.H.G. .j.fX=X=.8.8.8.3.Q l Z.pX'.y H.z.=.1.sXP.T b z k j Z _.B.m.H.G.$.Q a 5Xf.3.C s.*XZ j j j I c.N.y.6.8.4.) G z j j G B.9.",
"y H.G.F.c 5XaX X .4.4.4.) k a qXwXO.F c.0.$.C dX XT v j F F J 6Xf.c.G.v.8 l k D.'.R 8 }. XM i j j C U 9.6.4.4.$.Q A j z A $.F.9.",
"e 0.8.=.N pX0X'.C ! ! ! A & K ^.{.y j v G ! 6 tX6XU j j y.9.w.6X#.4.8.$.r p z g *X..6 '.~.u 0 j j 8 # 7 T Q ! G v k k G N.N.8.@.",
"6 8.6.H g.dX$X/.b G G G 2 f  Xw.< 6 T T ) 3.2 +XiX&.j j u.J @X6X#.3.8.C U...z 1 ~.M.u +.:.e b T T c K y =.3.) Q v j k H G.N.8.R ",
"6 8.6.b ^.tXQ.!.p k z j Z 0XdX1XN X.G.N.N.H.y m.6Xt.i j y.N 6X<X#.3.3.N %X{ j 8 } !.s } N , 6.G.B.*.~.J H.n.8.) b j k T G.N.8.R ",
"6 8.=.t g.+XY.C.i k k p '.pX3X[.y 9.v.C @.n.c c <.h 2 j E } 8X+X..3.C t.@XB j i r M.u X.*.a y.N.c.*.}.M n.x.8.~ b p j F z.z.8.! ",
"6 8.^ N ,.f 2 ; 2 k j O.tX7X.Xt.6 =.@.Z.>.4.F e T.w.= j p a.0X`.C =.6 !.@Xf j i - } +.# - c 0.8.=.O.OXu 6.6.) T z j j b ^ $.6.R ",
"2 3.T j.aXpXtXg.8 k t =XpX]..Xe c 6.p rXh.$.T Z <X+X& i 2 ,.'.M.c R & +X Xy i j < h.=Xu u c 6.3.$.:.-Xy 6.3./ G z p j z F T =.T ",
"< / c |.wX.X1Xf.2 1 p.tX#XE.Y.= R 3.J iXd.^ ! C #X&X6 3 = y | w # p u 3X`.y 8 0 # O.s.OX] p m % I O. X6 6.3./ G z p j k z b T V ",
", D g eX#Xl.].t.= , 2X,XJ.].Y , =.^ a.tX1.H T c [.&XI & u '.+XK s 2 N 2XT.e 3 > B } Z.yXe c c >.f N d.< 3.) G A k j j k k j & > ",
"- 8 +.uXQ.l.].1.. = g C y.].% b 8.c '.rX:.l j a I..Xy.o ] +Xi.p.oXt - 1.1.- 1 * S.} 2X|.N C F >XM.| w.; ) G b k i 9 l k j j & B ",
"< < /.0XF.8.].&.4 `.OX] Y %.O / 2.6 5X9XO.2 O 6 i.].Y.o +.{.f ;X;XN /.h.+.r & J U.S.pX} a.a H @X=Xh.{.< G i > i 1 1 j b $.$.c Z.",
"6 % 2X$Xe.3.].U ;.Q.I.m.d # 1 / T = P.g.r # u , %.L.[.= s.I.f sX;XX.=X1X XN O P.f.5XwXu '.M m A.eXP.*.= z f y i N &.i H m.G.c.:.",
"< O ~.Y.3.3.].E 5.7.m 3.y # & A v # | w.e u 5X6 U c.XXy a.&.j.fX=X:.=X).i.y O t.D.pX'.N XXK i 1.sX/.U & p S.>.2 '.t.R 4.b.u.z.M ",
"% O U c.~ 7.W.I ` L S ' 9 S 1 0 7 y -X-X] :.sXg C =.&.4 ..f 5XaX X>.+XI.=.y . u qXwXO.1. X1.2 N dX@XU # u  XZ f 6X>.u.n.6.y I M ",
"O s u C F ^ r.x T 6 ` P % P v , , { -XH.f s.fX} < 6 N = e N pX0X'.w. Xy.%.e = K ^.{.e m.B.h.< < tX6XK   y O., 1.6X} b.N.$.y C U ",
"  h U.>.M 2 1 7 x > ' q o L P , $ &.@Xx.y D.dXw.O t.[...# d.dX$X/.w.`.~ %.= f  Xw.< O H.6.<.= # +XiX} % f.K # @X6X .b.F.C U.&.T ",
"  = B.~.B.i.u.j , v ( # # S ~ 9 # t.{.5.e /.dXC., =.6.%.. ^.tXQ.!.<.H.S T Z 0XdX1Xh . <.C 6 = . m.6Xw.J  XK 6 6X<X..n.c.N %X} H ",
". 8 =.q T K.I., > ( q   o v ~ n # f.T.` 6 /.dX!.p =.S ^ O g.+XY.C.} i.m C /.pX3X[.4   # # g f.% c <.h >.V., K 8X+XU c. .t.@XJ H ",
"% q m , S T.u.  q W .     0 ~ n , M.m.~ 6 '.aX'.1 =.p L u ,.f 2 ; w R p O.tX7X.Xt.#   , Z.t.t.4 e T.w.N X.# a.0X`.f =.6 !.@Xf F ",
"= q 8 & F T.O.# P 7       1 P q # d.6.m 2 '.tX}.= %.8 9 u pXpXtXg.r 2 < =XpX]..X6 & . = rXd.E = Z ,X+X, y # >.'.M.p F & +X Xu F ",
"< 0 o & S K.a 8 A o       % v 1 * U y 8 , D.*Xa.# E 5 s +.wX].&Xf.O.] p.tX#XE.Y.# 1 . g tXt.n . M #X&X6 & O 4 | u < 0 u 3X`.y c ",
"> #   & S u.= 0 &         o 7 - < - s = . r h r % U = OX/.#XA ; w.y 6 2X,XJ.].Y # 5   w.tX,.q & y [.&XI . # | XXT.6 , N 2XT.t p ",
">     & S -.. o             > ; B r ..f . >.=X|.6 y ,.yX!.Q.c >.J o - g C y.].% , ,   '.rX| O # 6 I..Xy.  O.D.V.M.2 & - 1.1., 2 ",
",     & S c                 # ,.@XO.O & . a.6X>Xr y :X|.!.F.F >XA.< `.OX] Y %.  8 &   5X9X} # B = i.].Y.. ^.U.c.i., < /.h.+.r # ",
">     & b O                   ;X>XP..     &.J.2Xs h.pX} ).e.T @X;XX.Q.I.m.d # o , # . P.g.r # C.:.@.H.[.= =Xh.i.t.= M =X1X XN . ",
"      % j   r               w sX;XU..     &.x.=X} 5XwXu Y.3.~ A.eXi.7.m 3.y # # N {   | w.e . } ;XC c.).K ;Xw.r.*.& | =X).i.y O ",
"      . = w 5XO             g.fX=X:.>.    J 5.C.Z.pX'.< c.~ ( w.sXP.m S ' 9 S & '.O.e -X=X{   * 2Xt.@.g s.*X{ <...# q. XI.-.y X ",
"          O.sXu           O 4XaX XZ.6X-   M T N qXwXO.e C F R C dX Xy ` P % S f 6X} J -XN.<     A.^.y - }. XN 9.J O j.f.9.%.t f ",
"          p.fX[           w pX0X'.J %X1.  s 1 U ^.{.y D.>.M 2 < tX6XN ' q o x w.6Xg ..@X;.r %   u *X&.f '.~.u r.f O w.w p %.t B ",
"          A.dXq.          p.dX$X/.y B.^.* # f  Xw.< # B.~.B.i.6 +XiX&.~ # # 5 @X6Xf <.{.C U.f # > ^.C.u O.:.< U 6 % +.{ 8 _ y { ",
"O % O O   ^.dXj.        . !.tXQ.!.= %. Xu g 9XdX1Xh - =.0 T K.f m.3Xa.9   . 6 6X<Xg t.V.M %Xh x x } !.f } N % 6 . O X.~.f ^ y &.",
"y y.9.;.y '.dXU.1 p p t = g.+XY.C.# c K.K /.pX3X[.< 7 b & p I.N c <.h .     Z 8X+Xg d...t.@Xf m v r M.u X.1.6 f.O   B }.u I 4 f ",
"6 c.z.z.V '.aX'.i ) ) H h ,.f 2 ; O & #.:.tX7X.Xt.O 0 6 k...B.N e T.w.      w.0X`.y a.6 !.@Xy m x * } O.- c < S.% O ] OXr &   . ",
"# =.8.6.c '.tX'.7 T T b j.pXpXtXg.g o 4 =XpX]..Xe % 9 # rXd.f.y Z <X+X#     >.'.M.e } # +X Xr d 1 * h.1Xr a 1 S.# 4 >.-Xr d % . ",
"* R 8.6.b P.*Xa.1 m m a |.wX.X1Xf.O.* w.tX#XE.Y.% & # f tXt.&.* C #X&X6   . y | u O % y 3X`.e     O O.=XZ.6 6 b.. e O. X6 m % o ",
"X.C 8.6.c u h r < j j g eX$Xl.].d.4 < 2X,XJ.].Y & &   w.tX1.U . a [.&XI   w '.#XT.< B N 2XT.6     B O.[.;X; 6 r.  w N d.= x # . ",
"U.y =.6.l >.=X|.a j 3 +.uXQ.l.].w.. , g C y.].# 1 ,   '.rX:.y   6 K..Xy.  K +XI.M.4 6 - 1.1.=   O K.X.K.2XO.6 I   < O.w.= j o   ",
"P.+.b 6.p d.6X2XC i & /.0XF.8.].&.4 `.+X] Y %.  , >   5X9Xo.O   = i.].Y.. +.{.N.i., 6 /.h.+.r   J '...f.*XC.* &   < ~.{.- x     ",
"a.~.- ! i *.J.2XK i O 2X$Xe.3.].U ;.Q.I.m.d # . .   . U.g.r     # %.L.[.= s.R.N.r.& f =X1X XN . U.R.s <.R.'.<     w ~.*.& C e w ",
"C [.O k 8 -.x.;X{ 3 O ~.Y.3.3.].E 5.7.m 3.y # o       | w.e     . U c.XXy a.B.v.-.# { @X).i.y O !.M.6 ..K.XXB     u _...& f Z.O.",
"# O.>.> 2 U 5.+X} > O U c.~ 7.W.I ` L S ' 9 S ,     r -X-X|       C =.&.4 ..y.c.... >.oXI.=.y X r N & a V. X,..   B R.F % u  Xg ",
"% '.6X6 > C 3.[.:.# s u C F ^ r.x T 6 ` P % P v     K -XH.Z       4 6 N = y E c.J . j. Xy.%.t f t.< O 4 B.B.h.%   f t.y   y O.% ",
"# I %Xw.= N 3.K.O.. h U.>.M 2 1 7 x > ' q o L P #   &.@Xx.I .     O r.[...& n b.f O C.`.~ %.t B S.t.t % H.6.<.%   Z 6 % % f.K . ",
"* 6 B./.< < ^ 9.h   = B.~.B.i.u.j , v ( # # S ~ 5   t.{.5.I . # 6 6 =.6.=.  , X.6 % C.H.S _ y { r.I 8 O <.C 6 =   u.F & {  X{ . ",
". # %. Xh   & & < . 8 =.q T K.I., : ( q   o v ~ x O f.T.` C . v P S =.S =.  , 6 . O t.i.m ^ y &.I x , . # # ..h.6 i.c , ~.V., * ",
"  . c I.,.% ..).b.% q m , S T.u.  q W .     0 ~ S 1 M.m.~ b o T S y =.p ( o f B.O   f R x I 4 f j j 1   1 <.T.m.y  .6 ]  X#.= c ",
"= # & ;.O.% T y.9.= q 8 & F T.O.# P 7       1 P L y M.6.S q % T v 6 %.8 T % c T.% # f 6 > &   . q x 8 . > S T ;., 6 - t.T.a , H ",
"f { o 8 ..y v F -.< 0 o & S K.a 8 A o       % v x y *.q 8 1 & n 1 = E 6 S & m K.# e S.S.O.x % . q j 8 . # x v S o % # C @., y R ",
"< D.w y T.<.1 x ^ > #   & S u.= 0 &         o 8 # o = s =         & R 5 q : I m.. f y.9.%.S % o 9 j 5   . j l v &   , > # # m R ",
"* { | % c -.2 2 S >     & S -.. o             >   6 m.&.f .       o d # # # C r.  g -.v v n # . 1 x ,     q q x ,   6 n > # $.R ",
"1 < >.% 7 T c = x ,     & S M                 #   a %.# &           = & = & c I   6 T j v j o   & q &     8 9 7 7   1 n > 6 6. .",
"6 2 * . & v x # 2 >     & b #                     p n               % . . . , &   > v p v x .   , q #     1 , > 8   2 x o H 6.R ",
"< b       q b # .       % j                       9 8                             > v 9 m I .   9 9 .     # . o > . q 7 # ! ! D ",
"< Q >     & 6 &         . &                       1 &                               , > m C . . p 1               & l & p Q Q V ",
"> z 0 .                                           o                                   & n 6   . 9 #               1 7 & j z k t ",
"- j p 2 o                                                                             o 1 .     O                 1 & 2 p p j t "
};
